<svg width="353" height="81" viewBox="0 0 353 81" fill="none" xmlns="http://www.w3.org/2000/svg">
<rect x="1.04297" y="1.69922" width="350.179" height="77.9037" rx="38.9519" fill="#0C0F22"/>
<rect x="1.04297" y="1.69922" width="350.179" height="77.9037" rx="38.9519" stroke="black" stroke-width="2"/>
<rect x="2.04297" y="2.69922" width="347.182" height="66.4157" rx="33.2079" fill="#14172A"/>
<path d="M228.026 17.7578V49.5645" stroke="black" stroke-width="2" stroke-linecap="round"/>
<path d="M122.664 17.7578V49.5645" stroke="black" stroke-width="2" stroke-linecap="round"/>
<g opacity="0.6">
<g clip-path="url(#clip0_132_771)">
<g clip-path="url(#clip1_132_771)">
<path d="M266.003 14.1758H294.958C296.689 14.1758 298.092 15.5791 298.092 17.3101V37.4594C298.092 39.108 296.756 40.4444 295.107 40.4444H265.853C264.205 40.4444 262.868 39.108 262.868 37.4594V17.3101C262.868 15.5791 264.272 14.1758 266.003 14.1758Z" fill="#AAC0D8"/>
<path d="M294.797 15.9668H266.164C265.333 15.9668 264.659 16.6403 264.659 17.4711V37.7461C264.659 38.5769 265.333 39.2504 266.164 39.2504H294.797C295.628 39.2504 296.301 38.5769 296.301 37.7461V17.4711C296.301 16.6403 295.628 15.9668 294.797 15.9668Z" fill="#5C5B5B"/>
<path d="M293.161 17.7578H267.8C267.385 17.7578 267.048 18.0946 267.048 18.51V36.1101C267.048 36.5255 267.385 36.8623 267.8 36.8623H293.161C293.577 36.8623 293.914 36.5255 293.914 36.1101V18.51C293.914 18.0946 293.577 17.7578 293.161 17.7578Z" fill="white"/>
<path d="M293.914 36.1101C293.914 36.5255 293.577 36.8623 293.161 36.8623H267.8C267.385 36.8623 267.048 36.5255 267.048 36.1101V18.51C267.048 18.0946 267.385 17.7578 267.8 17.7578" fill="#F1F5F9"/>
<path d="M260.731 38.6534H300.23C300.369 38.6534 300.481 38.7521 300.481 38.8738V40.6183C300.481 41.1818 299.962 41.6385 299.322 41.6385H261.64C261 41.6385 260.481 41.1818 260.481 40.6183V38.8738C260.481 38.7521 260.593 38.6534 260.731 38.6534Z" fill="#AAC0D8"/>
<path d="M279.286 24.6235H281.674C282.169 24.6235 282.57 25.0245 282.57 25.5191V32.6832C282.57 33.1778 282.169 33.5788 281.674 33.5788H279.286C278.792 33.5788 278.391 33.1778 278.391 32.6832V25.5191C278.391 25.0245 278.792 24.6235 279.286 24.6235Z" fill="#78C800"/>
<path d="M285.257 21.0415H287.645C288.139 21.0415 288.54 21.4424 288.54 21.937V32.6833C288.54 33.1779 288.139 33.5788 287.645 33.5788H285.257C284.762 33.5788 284.361 33.1779 284.361 32.6833V21.937C284.361 21.4424 284.762 21.0415 285.257 21.0415Z" fill="#78C800"/>
<path d="M273.316 28.2057H275.704C276.199 28.2057 276.6 28.6066 276.6 29.1012V32.6833C276.6 33.1779 276.199 33.5788 275.704 33.5788H273.316C272.822 33.5788 272.421 33.1779 272.421 32.6833V29.1012C272.421 28.6066 272.822 28.2057 273.316 28.2057Z" fill="#78C800"/>
</g>
</g>
<path d="M254.897 54.9971C254.697 54.9971 254.53 54.9438 254.397 54.8371C254.27 54.7238 254.197 54.5871 254.177 54.4271C254.157 54.2604 254.21 54.0904 254.337 53.9171L256.547 50.9871V51.6771L254.427 48.8571C254.3 48.6771 254.244 48.5071 254.257 48.3471C254.277 48.1804 254.35 48.0438 254.477 47.9371C254.61 47.8238 254.774 47.7671 254.967 47.7671C255.134 47.7671 255.277 47.8071 255.397 47.8871C255.524 47.9671 255.65 48.0938 255.777 48.2671L257.427 50.5471H256.927L258.567 48.2671C258.694 48.0871 258.82 47.9604 258.947 47.8871C259.074 47.8071 259.22 47.7671 259.387 47.7671C259.587 47.7671 259.75 47.8204 259.877 47.9271C260.01 48.0338 260.084 48.1704 260.097 48.3371C260.117 48.4971 260.06 48.6704 259.927 48.8571L257.797 51.6771V50.9871L259.997 53.9171C260.13 54.0904 260.187 54.2604 260.167 54.4271C260.154 54.5871 260.08 54.7238 259.947 54.8371C259.82 54.9438 259.654 54.9971 259.447 54.9971C259.287 54.9971 259.144 54.9571 259.017 54.8771C258.897 54.7971 258.77 54.6671 258.637 54.4871L256.917 52.1171H257.427L255.707 54.4871C255.58 54.6671 255.454 54.7971 255.327 54.8771C255.2 54.9571 255.057 54.9971 254.897 54.9971ZM262.229 56.7971C262.056 56.7971 261.912 56.7504 261.799 56.6571C261.686 56.5638 261.619 56.4404 261.599 56.2871C261.579 56.1404 261.606 55.9838 261.679 55.8171L262.349 54.3371V54.9571L260.579 50.8971C260.512 50.7238 260.489 50.5638 260.509 50.4171C260.536 50.2638 260.609 50.1438 260.729 50.0571C260.856 49.9638 261.029 49.9171 261.249 49.9171C261.429 49.9171 261.572 49.9604 261.679 50.0471C261.792 50.1271 261.896 50.2838 261.989 50.5171L263.169 53.5171H262.849L264.069 50.5071C264.162 50.2804 264.266 50.1271 264.379 50.0471C264.499 49.9604 264.659 49.9171 264.859 49.9171C265.032 49.9171 265.169 49.9638 265.269 50.0571C265.376 50.1438 265.439 50.2604 265.459 50.4071C265.486 50.5538 265.459 50.7138 265.379 50.8871L263.029 56.2171C262.929 56.4438 262.816 56.5971 262.689 56.6771C262.569 56.7571 262.416 56.7971 262.229 56.7971ZM267.037 56.7971C266.791 56.7971 266.601 56.7304 266.467 56.5971C266.341 56.4704 266.277 56.2804 266.277 56.0271V50.6771C266.277 50.4304 266.341 50.2438 266.467 50.1171C266.601 49.9838 266.784 49.9171 267.017 49.9171C267.264 49.9171 267.451 49.9838 267.577 50.1171C267.704 50.2438 267.767 50.4304 267.767 50.6771V51.3571L267.657 50.9671C267.757 50.6471 267.957 50.3904 268.257 50.1971C268.564 49.9971 268.914 49.8971 269.307 49.8971C269.734 49.8971 270.107 50.0004 270.427 50.2071C270.754 50.4138 271.007 50.7071 271.187 51.0871C271.367 51.4671 271.457 51.9204 271.457 52.4471C271.457 52.9738 271.367 53.4304 271.187 53.8171C271.007 54.2038 270.757 54.5004 270.437 54.7071C270.117 54.9138 269.741 55.0171 269.307 55.0171C268.921 55.0171 268.577 54.9238 268.277 54.7371C267.977 54.5438 267.774 54.2938 267.667 53.9871H267.787V56.0271C267.787 56.2804 267.721 56.4704 267.587 56.5971C267.461 56.7304 267.277 56.7971 267.037 56.7971ZM268.857 53.8871C269.071 53.8871 269.257 53.8338 269.417 53.7271C269.584 53.6204 269.711 53.4638 269.797 53.2571C269.891 53.0438 269.937 52.7738 269.937 52.4471C269.937 51.9604 269.837 51.6038 269.637 51.3771C269.437 51.1438 269.177 51.0271 268.857 51.0271C268.644 51.0271 268.454 51.0771 268.287 51.1771C268.127 51.2771 268.001 51.4338 267.907 51.6471C267.814 51.8538 267.767 52.1204 267.767 52.4471C267.767 52.9338 267.867 53.2971 268.067 53.5371C268.267 53.7704 268.531 53.8871 268.857 53.8871ZM273.137 54.9971C272.984 54.9971 272.854 54.9671 272.747 54.9071C272.64 54.8471 272.56 54.7604 272.507 54.6471C272.46 54.5271 272.437 54.3738 272.437 54.1871V50.6371C272.437 50.4038 272.497 50.2271 272.617 50.1071C272.737 49.9804 272.904 49.9171 273.117 49.9171C273.337 49.9171 273.504 49.9804 273.617 50.1071C273.737 50.2271 273.797 50.4038 273.797 50.6371V53.3271H273.527L275.737 50.3971C275.817 50.2904 275.92 50.1838 276.047 50.0771C276.174 49.9704 276.354 49.9171 276.587 49.9171C276.74 49.9171 276.867 49.9471 276.967 50.0071C277.074 50.0604 277.15 50.1471 277.197 50.2671C277.25 50.3804 277.277 50.5304 277.277 50.7171V54.2771C277.277 54.5038 277.217 54.6804 277.097 54.8071C276.984 54.9338 276.82 54.9971 276.607 54.9971C276.38 54.9971 276.207 54.9338 276.087 54.8071C275.974 54.6804 275.917 54.5038 275.917 54.2771V51.5771H276.197L273.977 54.5071C273.897 54.6204 273.794 54.7304 273.667 54.8371C273.547 54.9438 273.37 54.9971 273.137 54.9971ZM279.159 54.9971C278.946 54.9971 278.782 54.9371 278.669 54.8171C278.556 54.6904 278.499 54.5138 278.499 54.2871V50.7471C278.499 50.5671 278.522 50.4171 278.569 50.2971C278.616 50.1704 278.692 50.0771 278.799 50.0171C278.906 49.9504 279.036 49.9171 279.189 49.9171C279.336 49.9171 279.459 49.9404 279.559 49.9871C279.659 50.0338 279.746 50.0971 279.819 50.1771C279.892 50.2571 279.959 50.3504 280.019 50.4571L281.349 52.6771L282.669 50.4671C282.722 50.3671 282.782 50.2771 282.849 50.1971C282.922 50.1171 283.009 50.0504 283.109 49.9971C283.216 49.9438 283.342 49.9171 283.489 49.9171C283.729 49.9171 283.906 49.9904 284.019 50.1371C284.132 50.2771 284.189 50.4804 284.189 50.7471V54.2871C284.189 54.5138 284.132 54.6904 284.019 54.8171C283.906 54.9371 283.739 54.9971 283.519 54.9971C283.312 54.9971 283.149 54.9371 283.029 54.8171C282.916 54.6904 282.859 54.5138 282.859 54.2871V51.7471H283.109L281.849 53.8471C281.802 53.9204 281.742 53.9904 281.669 54.0571C281.596 54.1238 281.489 54.1571 281.349 54.1571C281.209 54.1571 281.102 54.1238 281.029 54.0571C280.956 53.9904 280.892 53.9204 280.839 53.8471L279.569 51.7471H279.819V54.2871C279.819 54.5138 279.762 54.6904 279.649 54.8171C279.536 54.9371 279.372 54.9971 279.159 54.9971ZM287.191 54.9971C286.951 54.9971 286.764 54.9304 286.631 54.7971C286.504 54.6638 286.441 54.4738 286.441 54.2271V51.1771H285.361C284.941 51.1771 284.731 50.9804 284.731 50.5871C284.731 50.4004 284.784 50.2571 284.891 50.1571C285.004 50.0504 285.161 49.9971 285.361 49.9971H289.021C289.448 49.9971 289.661 50.1938 289.661 50.5871C289.661 50.7804 289.604 50.9271 289.491 51.0271C289.384 51.1271 289.228 51.1771 289.021 51.1771H287.951V54.2271C287.951 54.4738 287.888 54.6638 287.761 54.7971C287.634 54.9304 287.444 54.9971 287.191 54.9971ZM294.165 54.9971C293.918 54.9971 293.728 54.9304 293.595 54.7971C293.468 54.6638 293.405 54.4738 293.405 54.2271V51.1671H292.125V51.7171C292.125 52.1438 292.095 52.5304 292.035 52.8771C291.975 53.2238 291.885 53.5304 291.765 53.7971C291.645 54.0638 291.492 54.2904 291.305 54.4771C291.118 54.6571 290.895 54.8004 290.635 54.9071C290.462 54.9804 290.305 55.0004 290.165 54.9671C290.025 54.9338 289.908 54.8704 289.815 54.7771C289.728 54.6838 289.672 54.5738 289.645 54.4471C289.625 54.3138 289.642 54.1838 289.695 54.0571C289.755 53.9238 289.862 53.8104 290.015 53.7171C290.162 53.6371 290.282 53.5338 290.375 53.4071C290.468 53.2804 290.542 53.1304 290.595 52.9571C290.648 52.7838 290.685 52.5938 290.705 52.3871C290.732 52.1738 290.745 51.9338 290.745 51.6671V50.8471C290.745 50.5738 290.815 50.3638 290.955 50.2171C291.102 50.0704 291.312 49.9971 291.585 49.9971H294.075C294.348 49.9971 294.555 50.0704 294.695 50.2171C294.842 50.3638 294.915 50.5738 294.915 50.8471V54.2271C294.915 54.4738 294.848 54.6638 294.715 54.7971C294.588 54.9304 294.405 54.9971 294.165 54.9971ZM297.799 55.0171C297.439 55.0171 297.115 54.9471 296.829 54.8071C296.542 54.6671 296.319 54.4771 296.159 54.2371C295.999 53.9971 295.919 53.7271 295.919 53.4271C295.919 53.0671 296.012 52.7838 296.199 52.5771C296.385 52.3638 296.689 52.2138 297.109 52.1271C297.529 52.0338 298.085 51.9871 298.779 51.9871H299.309V52.7671H298.789C298.449 52.7671 298.172 52.7871 297.959 52.8271C297.752 52.8604 297.602 52.9204 297.509 53.0071C297.422 53.0938 297.379 53.2138 297.379 53.3671C297.379 53.5538 297.442 53.7071 297.569 53.8271C297.702 53.9471 297.892 54.0071 298.139 54.0071C298.332 54.0071 298.502 53.9638 298.649 53.8771C298.802 53.7838 298.922 53.6604 299.009 53.5071C299.095 53.3471 299.139 53.1671 299.139 52.9671V51.8171C299.139 51.5238 299.072 51.3171 298.939 51.1971C298.805 51.0704 298.579 51.0071 298.259 51.0071C298.079 51.0071 297.882 51.0304 297.669 51.0771C297.462 51.1171 297.232 51.1871 296.979 51.2871C296.832 51.3538 296.702 51.3704 296.589 51.3371C296.475 51.2971 296.389 51.2304 296.329 51.1371C296.269 51.0371 296.239 50.9304 296.239 50.8171C296.239 50.6971 296.272 50.5838 296.339 50.4771C296.405 50.3638 296.515 50.2804 296.669 50.2271C296.982 50.1004 297.275 50.0138 297.549 49.9671C297.829 49.9204 298.085 49.8971 298.319 49.8971C298.832 49.8971 299.252 49.9738 299.579 50.1271C299.912 50.2738 300.162 50.5038 300.329 50.8171C300.495 51.1238 300.579 51.5204 300.579 52.0071V54.2271C300.579 54.4738 300.519 54.6638 300.399 54.7971C300.279 54.9304 300.105 54.9971 299.879 54.9971C299.652 54.9971 299.475 54.9304 299.349 54.7971C299.229 54.6638 299.169 54.4738 299.169 54.2271V53.8571L299.239 53.9171C299.199 54.1438 299.112 54.3404 298.979 54.5071C298.852 54.6671 298.689 54.7938 298.489 54.8871C298.289 54.9738 298.059 55.0171 297.799 55.0171ZM305.801 54.9971C305.554 54.9971 305.364 54.9304 305.231 54.7971C305.104 54.6638 305.041 54.4738 305.041 54.2271V51.1671H303.761V51.7171C303.761 52.1438 303.731 52.5304 303.671 52.8771C303.611 53.2238 303.521 53.5304 303.401 53.7971C303.281 54.0638 303.128 54.2904 302.941 54.4771C302.754 54.6571 302.531 54.8004 302.271 54.9071C302.098 54.9804 301.941 55.0004 301.801 54.9671C301.661 54.9338 301.544 54.8704 301.451 54.7771C301.364 54.6838 301.308 54.5738 301.281 54.4471C301.261 54.3138 301.278 54.1838 301.331 54.0571C301.391 53.9238 301.498 53.8104 301.651 53.7171C301.798 53.6371 301.918 53.5338 302.011 53.4071C302.104 53.2804 302.178 53.1304 302.231 52.9571C302.284 52.7838 302.321 52.5938 302.341 52.3871C302.368 52.1738 302.381 51.9338 302.381 51.6671V50.8471C302.381 50.5738 302.451 50.3638 302.591 50.2171C302.738 50.0704 302.948 49.9971 303.221 49.9971H305.711C305.984 49.9971 306.191 50.0704 306.331 50.2171C306.478 50.3638 306.551 50.5738 306.551 50.8471V54.2271C306.551 54.4738 306.484 54.6638 306.351 54.7971C306.224 54.9304 306.041 54.9971 305.801 54.9971Z" fill="white"/>
</g>
<g opacity="0.6">
<g clip-path="url(#clip2_132_771)">
<g clip-path="url(#clip3_132_771)">
<path d="M178.521 40.4338H172.747C172.277 40.4338 171.897 40.8145 171.897 41.2842V43.012C171.897 43.4816 172.277 43.8623 172.747 43.8623H178.521C178.991 43.8623 179.372 43.4816 179.372 43.012V41.2842C179.372 40.8145 178.991 40.4338 178.521 40.4338Z" fill="#1899D6"/>
<path d="M159.288 14.7196H191.979C192.43 14.7196 192.863 14.8986 193.182 15.2175C193.501 15.5364 193.681 15.9691 193.681 16.4202V41.3043C193.681 42.2436 192.919 43.0049 191.98 43.0049H159.289C158.837 43.0049 158.405 42.8259 158.086 42.507C157.767 42.1881 157.587 41.7555 157.587 41.3043V16.4202C157.588 15.4811 158.349 14.7201 159.288 14.7201V14.7196Z" fill="#1899D6"/>
<path d="M177.881 38.5049H173.388C172.918 38.5049 172.537 38.8856 172.537 39.3552V40.4404C172.537 40.91 172.918 41.2907 173.388 41.2907H177.881C178.35 41.2907 178.731 40.91 178.731 40.4404V39.3552C178.731 38.8856 178.35 38.5049 177.881 38.5049Z" fill="#D2E4E8"/>
<path d="M159.936 34.6481H191.545V39.3689C191.545 39.5945 191.456 39.811 191.296 39.9706C191.137 40.1302 190.92 40.2198 190.694 40.2196H160.787C160.561 40.2196 160.345 40.13 160.185 39.9704C160.026 39.8109 159.936 39.5945 159.936 39.3689V34.6481Z" fill="#D2E4E8"/>
<path d="M191.545 37.2197H178.717C177.073 37.2197 175.741 38.5523 175.741 40.1962C175.741 38.5523 174.408 37.2197 172.764 37.2197H159.936V16.6416C159.936 16.1719 160.316 15.7908 160.786 15.7908H172.763C173.552 15.7908 174.31 16.1044 174.868 16.6626C175.426 17.2208 175.74 17.9779 175.74 18.7673C175.74 17.9778 176.053 17.2206 176.612 16.6624C177.17 16.1042 177.927 15.7908 178.717 15.7908H190.695C191.164 15.7908 191.545 16.1719 191.545 16.6416L191.545 37.2197Z" fill="white"/>
<path d="M172.967 17.9338H162.283C161.93 17.9338 161.645 18.2195 161.645 18.5718V19.2243C161.645 19.5766 161.93 19.8623 162.283 19.8623H172.967C173.319 19.8623 173.605 19.5766 173.605 19.2243V18.5718C173.605 18.2195 173.319 17.9338 172.967 17.9338Z" fill="#D2E4E8"/>
<path d="M172.967 26.7197H162.283C161.93 26.7197 161.645 27.0054 161.645 27.3577V28.0102C161.645 28.3625 161.93 28.6482 162.283 28.6482H172.967C173.319 28.6482 173.605 28.3625 173.605 28.0102V27.3577C173.605 27.0054 173.319 26.7197 172.967 26.7197Z" fill="#D2E4E8"/>
<path d="M170.617 22.4338H162.283C161.93 22.4338 161.645 22.7195 161.645 23.0718V23.7243C161.645 24.0766 161.93 24.3623 162.283 24.3623H170.617C170.97 24.3623 171.255 24.0766 171.255 23.7243V23.0718C171.255 22.7195 170.97 22.4338 170.617 22.4338Z" fill="#D2E4E8"/>
<path d="M170.617 31.0049H162.283C161.93 31.0049 161.645 31.2905 161.645 31.6429V32.2954C161.645 32.6477 161.93 32.9333 162.283 32.9333H170.617C170.97 32.9333 171.255 32.6477 171.255 32.2954V31.6429C171.255 31.2905 170.97 31.0049 170.617 31.0049Z" fill="#D2E4E8"/>
<path d="M165.059 13.8623H169.977C170.329 13.8623 170.614 14.1482 170.614 14.4998V29.9264C170.615 30.1564 170.491 30.3689 170.291 30.4822C170.09 30.5955 169.845 30.5922 169.648 30.4734L167.752 29.332C167.543 29.2062 167.282 29.2102 167.077 29.3423L165.404 30.4209C165.208 30.5476 164.959 30.557 164.754 30.4452C164.548 30.3335 164.421 30.1186 164.421 29.8851V14.4998C164.421 14.1478 164.707 13.8623 165.059 13.8623Z" fill="#FF4B4B"/>
<path d="M189.412 17.9338H178.728C178.376 17.9338 178.09 18.2195 178.09 18.5718V19.2243C178.09 19.5766 178.376 19.8623 178.728 19.8623H189.412C189.765 19.8623 190.05 19.5766 190.05 19.2243V18.5718C190.05 18.2195 189.765 17.9338 189.412 17.9338Z" fill="#D2E4E8"/>
<path d="M189.412 26.7196H178.728C178.376 26.7196 178.09 27.0052 178.09 27.3576V28.0101C178.09 28.3624 178.376 28.648 178.728 28.648H189.412C189.765 28.648 190.05 28.3624 190.05 28.0101V27.3576C190.05 27.0052 189.765 26.7196 189.412 26.7196Z" fill="#D2E4E8"/>
<path d="M187.063 22.4338H178.728C178.376 22.4338 178.09 22.7195 178.09 23.0718V23.7243C178.09 24.0766 178.376 24.3623 178.728 24.3623H187.063C187.415 24.3623 187.701 24.0766 187.701 23.7243V23.0718C187.701 22.7195 187.415 22.4338 187.063 22.4338Z" fill="#D2E4E8"/>
<path d="M187.063 31.005H178.728C178.376 31.005 178.09 31.2906 178.09 31.643V32.2955C178.09 32.6478 178.376 32.9334 178.728 32.9334H187.063C187.415 32.9334 187.701 32.6478 187.701 32.2955V31.643C187.701 31.2906 187.415 31.005 187.063 31.005Z" fill="#D2E4E8"/>
</g>
</g>
<path d="M162.539 55.9523C162.352 55.9523 162.199 55.909 162.079 55.8223C161.965 55.7356 161.892 55.619 161.859 55.4723C161.832 55.3256 161.862 55.1623 161.949 54.9823L164.509 49.3723C164.615 49.1456 164.742 48.9823 164.889 48.8823C165.035 48.7756 165.205 48.7223 165.399 48.7223C165.592 48.7223 165.762 48.7756 165.909 48.8823C166.055 48.9823 166.179 49.1456 166.279 49.3723L168.859 54.9823C168.945 55.1623 168.975 55.329 168.949 55.4823C168.929 55.629 168.862 55.7456 168.749 55.8323C168.635 55.9123 168.489 55.9523 168.309 55.9523C168.082 55.9523 167.905 55.899 167.779 55.7923C167.659 55.6856 167.552 55.519 167.459 55.2923L166.859 53.9023L167.479 54.3323H163.309L163.929 53.9023L163.339 55.2923C163.239 55.5256 163.132 55.6956 163.019 55.8023C162.912 55.9023 162.752 55.9523 162.539 55.9523ZM165.379 50.4623L164.099 53.5123L163.829 53.1223H166.959L166.689 53.5123L165.399 50.4623H165.379ZM173.318 55.9523C173.078 55.9523 172.891 55.8856 172.758 55.7523C172.631 55.619 172.568 55.429 172.568 55.1823V53.9423H172.138C172.018 53.9423 171.911 53.959 171.818 53.9923C171.731 54.019 171.651 54.069 171.578 54.1423C171.505 54.209 171.431 54.309 171.358 54.4423L170.758 55.5223C170.665 55.6956 170.545 55.8123 170.398 55.8723C170.258 55.9323 170.115 55.949 169.968 55.9223C169.821 55.8956 169.691 55.839 169.578 55.7523C169.471 55.659 169.401 55.5423 169.368 55.4023C169.341 55.2556 169.375 55.099 169.468 54.9323L170.008 53.9623C170.115 53.7756 170.228 53.6123 170.348 53.4723C170.468 53.3323 170.601 53.219 170.748 53.1323C170.895 53.0456 171.055 52.9923 171.228 52.9723L170.958 53.4623L169.868 51.9423C169.755 51.789 169.701 51.6423 169.708 51.5023C169.715 51.3623 169.761 51.2423 169.848 51.1423C169.941 51.0356 170.051 50.9623 170.178 50.9223C170.311 50.8823 170.448 50.8856 170.588 50.9323C170.728 50.9723 170.851 51.069 170.958 51.2223L172.088 52.7823H172.568V51.6423C172.568 51.3956 172.631 51.2056 172.758 51.0723C172.891 50.939 173.078 50.8723 173.318 50.8723C173.558 50.8723 173.745 50.939 173.878 51.0723C174.011 51.2056 174.078 51.3956 174.078 51.6423V52.7823H174.558L175.678 51.2223C175.785 51.069 175.908 50.969 176.048 50.9223C176.195 50.8756 176.331 50.8723 176.458 50.9123C176.591 50.9523 176.701 51.0256 176.788 51.1323C176.875 51.2323 176.921 51.3523 176.928 51.4923C176.935 51.6323 176.885 51.7823 176.778 51.9423L175.678 53.4623L175.398 52.9723C175.578 52.9923 175.741 53.0456 175.888 53.1323C176.035 53.219 176.168 53.3323 176.288 53.4723C176.415 53.6056 176.528 53.769 176.628 53.9623L177.168 54.9323C177.255 55.099 177.281 55.2556 177.248 55.4023C177.221 55.5423 177.151 55.659 177.038 55.7523C176.931 55.839 176.805 55.8956 176.658 55.9223C176.518 55.949 176.375 55.9323 176.228 55.8723C176.088 55.8123 175.971 55.6956 175.878 55.5223L175.278 54.4423C175.205 54.309 175.131 54.2056 175.058 54.1323C174.985 54.059 174.905 54.009 174.818 53.9823C174.731 53.9556 174.625 53.9423 174.498 53.9423H174.078V55.1823C174.078 55.429 174.011 55.619 173.878 55.7523C173.745 55.8856 173.558 55.9523 173.318 55.9523ZM178.834 55.9523C178.68 55.9523 178.55 55.9223 178.444 55.8623C178.337 55.8023 178.257 55.7156 178.204 55.6023C178.157 55.4823 178.134 55.329 178.134 55.1423V51.5923C178.134 51.359 178.194 51.1823 178.314 51.0623C178.434 50.9356 178.6 50.8723 178.814 50.8723C179.034 50.8723 179.2 50.9356 179.314 51.0623C179.434 51.1823 179.494 51.359 179.494 51.5923V54.2823H179.224L181.434 51.3523C181.514 51.2456 181.617 51.139 181.744 51.0323C181.87 50.9256 182.05 50.8723 182.284 50.8723C182.437 50.8723 182.564 50.9023 182.664 50.9623C182.77 51.0156 182.847 51.1023 182.894 51.2223C182.947 51.3356 182.974 51.4856 182.974 51.6723V55.2323C182.974 55.459 182.914 55.6356 182.794 55.7623C182.68 55.889 182.517 55.9523 182.304 55.9523C182.077 55.9523 181.904 55.889 181.784 55.7623C181.67 55.6356 181.614 55.459 181.614 55.2323V52.5323H181.894L179.674 55.4623C179.594 55.5756 179.49 55.6856 179.364 55.7923C179.244 55.899 179.067 55.9523 178.834 55.9523ZM188.226 55.9523C187.979 55.9523 187.789 55.8856 187.656 55.7523C187.529 55.619 187.466 55.429 187.466 55.1823V52.1223H186.186V52.6723C186.186 53.099 186.156 53.4856 186.096 53.8323C186.036 54.179 185.946 54.4856 185.826 54.7523C185.706 55.019 185.552 55.2456 185.366 55.4323C185.179 55.6123 184.956 55.7556 184.696 55.8623C184.522 55.9356 184.366 55.9556 184.226 55.9223C184.086 55.889 183.969 55.8256 183.876 55.7323C183.789 55.639 183.732 55.529 183.706 55.4023C183.686 55.269 183.702 55.139 183.756 55.0123C183.816 54.879 183.922 54.7656 184.076 54.6723C184.222 54.5923 184.342 54.489 184.436 54.3623C184.529 54.2356 184.602 54.0856 184.656 53.9123C184.709 53.739 184.746 53.549 184.766 53.3423C184.792 53.129 184.806 52.889 184.806 52.6223V51.8023C184.806 51.529 184.876 51.319 185.016 51.1723C185.162 51.0256 185.372 50.9523 185.646 50.9523H188.136C188.409 50.9523 188.616 51.0256 188.756 51.1723C188.902 51.319 188.976 51.529 188.976 51.8023V55.1823C188.976 55.429 188.909 55.619 188.776 55.7523C188.649 55.8856 188.466 55.9523 188.226 55.9523Z" fill="white"/>
</g>
<path d="M84.0659 37.1729C83.769 38.7314 82.4064 39.859 80.8199 39.859H70.1208C68.5342 39.859 67.1717 38.7314 66.8748 37.1729L64.4617 24.504L75.3808 16.4293L86.4795 24.5012L84.0659 37.1729Z" fill="#FFC800"/>
<path opacity="0.5" fill-rule="evenodd" clip-rule="evenodd" d="M72.6365 35.0182C72.6365 34.4291 73.114 33.9515 73.7031 33.9515H77.9698C78.5589 33.9515 79.0365 34.4291 79.0365 35.0182C79.0365 35.6073 78.5589 36.0849 77.9698 36.0849H73.7031C73.114 36.0849 72.6365 35.6073 72.6365 35.0182Z" fill="#945151"/>
<path d="M78.9592 28.2069C78.9592 30.1279 77.4019 31.6851 75.4809 31.6851C73.5599 31.6851 72.0027 30.1279 72.0027 28.2069C72.0027 26.2859 73.5599 24.7286 75.4809 24.7286C77.4019 24.7286 78.9592 26.2859 78.9592 28.2069Z" fill="#945151"/>
<path d="M75.6492 14.7518C76.1238 14.7494 76.604 14.893 77.0168 15.1927L89.4262 24.139C90.4588 24.8893 90.6877 26.3346 89.9375 27.3672C89.1874 28.3995 87.7427 28.6286 86.7101 27.879L75.6409 19.899L64.5728 27.8783L64.5719 27.879C63.5394 28.6284 62.0947 28.3994 61.3446 27.367C60.5944 26.3344 60.8233 24.8891 61.8559 24.1389L61.8575 24.1377L74.2646 15.1931C74.6822 14.8899 75.1694 14.746 75.6492 14.7518Z" fill="#FF4B4B"/>
<path d="M64.6891 55.9971C64.4357 55.9971 64.2424 55.9271 64.1091 55.7871C63.9757 55.6471 63.9091 55.4504 63.9091 55.1971V49.5671C63.9091 49.3138 63.9757 49.1171 64.1091 48.9771C64.2424 48.8371 64.4357 48.7671 64.6891 48.7671C64.9357 48.7671 65.1257 48.8371 65.2591 48.9771C65.3924 49.1171 65.4591 49.3138 65.4591 49.5671V51.6871H68.7391V49.5671C68.7391 49.3138 68.8057 49.1171 68.9391 48.9771C69.0724 48.8371 69.2624 48.7671 69.5091 48.7671C69.7624 48.7671 69.9557 48.8371 70.0891 48.9771C70.2224 49.1171 70.2891 49.3138 70.2891 49.5671V55.1971C70.2891 55.4504 70.2224 55.6471 70.0891 55.7871C69.9557 55.9271 69.7624 55.9971 69.5091 55.9971C69.2624 55.9971 69.0724 55.9271 68.9391 55.7871C68.8057 55.6471 68.7391 55.4504 68.7391 55.1971V52.9771H65.4591V55.1971C65.4591 55.4504 65.3924 55.6471 65.2591 55.7871C65.1324 55.9271 64.9424 55.9971 64.6891 55.9971ZM73.6118 57.7971C73.3718 57.7971 73.1851 57.7304 73.0518 57.5971C72.9185 57.4704 72.8518 57.2804 72.8518 57.0271V55.6671L71.2118 51.8971C71.1385 51.7238 71.1151 51.5638 71.1418 51.4171C71.1685 51.2638 71.2418 51.1438 71.3618 51.0571C71.4885 50.9638 71.6585 50.9171 71.8718 50.9171C72.0518 50.9171 72.1985 50.9604 72.3118 51.0471C72.4251 51.1271 72.5251 51.2838 72.6118 51.5171L73.7918 54.5171H73.4818L74.7018 51.5071C74.7885 51.2804 74.8885 51.1271 75.0018 51.0471C75.1218 50.9604 75.2785 50.9171 75.4718 50.9171C75.6451 50.9171 75.7851 50.9638 75.8918 51.0571C75.9985 51.1438 76.0651 51.2604 76.0918 51.4071C76.1185 51.5538 76.0918 51.7138 76.0118 51.8871L74.3618 55.6071V57.0271C74.3618 57.5404 74.1118 57.7971 73.6118 57.7971ZM78.9122 57.7971C78.6722 57.7971 78.4855 57.7304 78.3522 57.5971C78.2189 57.4704 78.1522 57.2804 78.1522 57.0271V55.6671L76.5122 51.8971C76.4389 51.7238 76.4155 51.5638 76.4422 51.4171C76.4689 51.2638 76.5422 51.1438 76.6622 51.0571C76.7889 50.9638 76.9589 50.9171 77.1722 50.9171C77.3522 50.9171 77.4989 50.9604 77.6122 51.0471C77.7255 51.1271 77.8255 51.2838 77.9122 51.5171L79.0922 54.5171H78.7822L80.0022 51.5071C80.0889 51.2804 80.1889 51.1271 80.3022 51.0471C80.4222 50.9604 80.5789 50.9171 80.7722 50.9171C80.9455 50.9171 81.0855 50.9638 81.1922 51.0571C81.2989 51.1438 81.3655 51.2604 81.3922 51.4071C81.4189 51.5538 81.3922 51.7138 81.3122 51.8871L79.6622 55.6071V57.0271C79.6622 57.5404 79.4122 57.7971 78.9122 57.7971ZM82.9226 57.7971C82.6759 57.7971 82.4859 57.7304 82.3526 57.5971C82.2259 57.4704 82.1626 57.2804 82.1626 57.0271V51.6771C82.1626 51.4304 82.2259 51.2438 82.3526 51.1171C82.4859 50.9838 82.6693 50.9171 82.9026 50.9171C83.1493 50.9171 83.3359 50.9838 83.4626 51.1171C83.5893 51.2438 83.6526 51.4304 83.6526 51.6771V52.3571L83.5426 51.9671C83.6426 51.6471 83.8426 51.3904 84.1426 51.1971C84.4493 50.9971 84.7993 50.8971 85.1926 50.8971C85.6193 50.8971 85.9926 51.0004 86.3126 51.2071C86.6393 51.4138 86.8926 51.7071 87.0726 52.0871C87.2526 52.4671 87.3426 52.9204 87.3426 53.4471C87.3426 53.9738 87.2526 54.4304 87.0726 54.8171C86.8926 55.2038 86.6426 55.5004 86.3226 55.7071C86.0026 55.9138 85.6259 56.0171 85.1926 56.0171C84.8059 56.0171 84.4626 55.9238 84.1626 55.7371C83.8626 55.5438 83.6593 55.2938 83.5526 54.9871H83.6726V57.0271C83.6726 57.2804 83.6059 57.4704 83.4726 57.5971C83.3459 57.7304 83.1626 57.7971 82.9226 57.7971ZM84.7426 54.8871C84.9559 54.8871 85.1426 54.8338 85.3026 54.7271C85.4693 54.6204 85.5959 54.4638 85.6826 54.2571C85.7759 54.0438 85.8226 53.7738 85.8226 53.4471C85.8226 52.9604 85.7226 52.6038 85.5226 52.3771C85.3226 52.1438 85.0626 52.0271 84.7426 52.0271C84.5293 52.0271 84.3393 52.0771 84.1726 52.1771C84.0126 52.2771 83.8859 52.4338 83.7926 52.6471C83.6993 52.8538 83.6526 53.1204 83.6526 53.4471C83.6526 53.9338 83.7526 54.2971 83.9526 54.5371C84.1526 54.7704 84.4159 54.8871 84.7426 54.8871Z" fill="white"/>
<defs>
<clipPath id="clip0_132_771">
<rect width="40" height="30" fill="white" transform="translate(260.481 12.9071)"/>
</clipPath>
<clipPath id="clip1_132_771">
<rect width="40" height="27.4627" fill="white" transform="translate(260.481 14.1758)"/>
</clipPath>
<clipPath id="clip2_132_771">
<rect width="40" height="30" fill="white" transform="translate(155.634 13.8623)"/>
</clipPath>
<clipPath id="clip3_132_771">
<rect width="36.0938" height="30" fill="white" transform="translate(157.587 13.8623)"/>
</clipPath>
</defs>
</svg>
