<svg width="111" height="181" viewBox="0 0 111 181" fill="none" xmlns="http://www.w3.org/2000/svg">
<g clip-path="url(#clip0_41_775)">
<path d="M56.5688 171.522C67.1145 171.522 75.6635 167.173 75.6635 161.808C75.6635 156.444 67.1145 152.095 56.5688 152.095C46.0231 152.095 37.4741 156.444 37.4741 161.808C37.4741 167.173 46.0231 171.522 56.5688 171.522Z" fill="#4D5457"/>
<path d="M55.9046 156.872H33.4891L34.6325 209.377L35.9608 214.061H48.829L50.5913 208.3L55.9046 156.872Z" fill="#4D5457"/>
<path d="M55.6912 157.871H78.1825L76.5766 207.968L74.4181 213.9L61.799 215.011L60.5933 209.296L55.6912 157.871Z" fill="#4D5457"/>
<path d="M38.1252 164.244C36.8792 163.979 34.052 162.501 33.5728 162.75C32.255 163.912 33.0936 193.467 33.8124 194.381C34.5312 195.294 40.6408 195.626 40.6408 194.381C40.6408 193.135 40.7607 188.818 40.6408 185.414C40.5211 182.011 42.5576 164.991 41.5992 164.742C40.6408 164.493 39.6825 164.576 38.1252 164.244Z" fill="#2F3034"/>
<path d="M39.6821 165.49C38.7237 165.407 34.7703 164.244 33.5724 163.497C32.7338 164.244 31.2962 169.391 32.8536 170.056C34.4109 170.72 38.4841 170.637 38.9633 170.056C39.4425 169.475 40.6405 165.573 39.6821 165.49Z" fill="#3B4345"/>
<path fill-rule="evenodd" clip-rule="evenodd" d="M39.4036 166.423L39.2424 166.383L39.1858 166.609C39.1268 166.843 39.0611 167.096 38.9946 167.346L39.1551 167.389L39.2213 167.138C39.2868 166.888 39.3494 166.642 39.4036 166.423ZM38.8883 168.351L38.7288 168.304L38.6851 168.453C38.5848 168.791 38.497 169.06 38.4258 169.246L38.5808 169.306L38.6131 169.219C38.6905 169.005 38.7834 168.711 38.8883 168.351ZM36.7099 169.736C37.0715 169.717 37.413 169.685 37.6947 169.645L37.718 169.809C37.4312 169.85 37.0849 169.882 36.7186 169.901L36.7099 169.736ZM35.7185 169.753C35.3712 169.747 35.0387 169.727 34.7316 169.694L34.7136 169.859C35.0259 169.893 35.3634 169.913 35.7155 169.919L35.7185 169.753ZM33.1407 169.24C33.2965 169.348 33.5068 169.44 33.7658 169.515L33.7196 169.674C33.4447 169.595 33.2185 169.496 33.0461 169.377L33.1407 169.24Z" fill="black"/>
<path fill-rule="evenodd" clip-rule="evenodd" d="M33.8455 163.172L33.7791 163.324L34.1648 163.491C34.3347 163.563 34.5143 163.639 34.6969 163.715L34.7609 163.562L34.3328 163.382C34.1598 163.308 33.9951 163.237 33.8455 163.172ZM35.6816 163.938L35.6201 164.092L35.8656 164.19C36.1073 164.285 36.3369 164.373 36.5511 164.453L36.609 164.297C36.3247 164.191 36.013 164.071 35.6816 163.938ZM37.9907 164.907C37.8665 164.886 37.7013 164.843 37.4973 164.78L37.5461 164.621C37.7044 164.67 37.8378 164.706 37.9443 164.729L38.0191 164.744C38.1037 164.758 38.1996 164.774 38.3059 164.791L38.5085 164.822L38.4837 164.986C38.3882 164.972 38.2991 164.958 38.2169 164.945L37.9907 164.907ZM39.4935 164.962L39.4712 165.127L39.8627 165.179C40.0612 165.205 40.2622 165.231 40.4596 165.257L40.4806 165.092L40.0833 165.041C39.8841 165.015 39.6854 164.988 39.4935 164.962ZM40.7924 166.687L40.8777 165.694L41.0431 165.708L40.9579 166.701L40.7924 166.687ZM40.7072 167.68L40.6223 168.672L40.7878 168.687L40.8727 167.694L40.7072 167.68ZM40.4534 170.657L40.5378 169.665L40.7033 169.679L40.6188 170.671L40.4534 170.657ZM40.3691 171.65L40.2851 172.642L40.4506 172.656L40.5345 171.664L40.3691 171.65ZM40.1183 174.628L40.2016 173.635L40.3671 173.649L40.2837 174.642L40.1183 174.628ZM40.0351 175.621L39.9528 176.613L40.1182 176.627L40.2006 175.634L40.0351 175.621ZM39.7909 178.6L39.8712 177.607L40.0367 177.62L39.9564 178.613L39.7909 178.6ZM39.7136 179.594C39.694 179.872 39.6773 180.205 39.6635 180.591L39.8295 180.597L39.8403 180.319C39.8516 180.051 39.8646 179.812 39.8793 179.606L39.7136 179.594ZM39.6364 181.589L39.8025 181.592C39.7989 181.769 39.7958 181.954 39.793 182.145L39.7876 182.588L39.6215 182.586C39.6237 182.384 39.6262 182.189 39.6291 182L39.6364 181.589ZM39.7805 183.584L39.6145 183.583L39.6129 184.172C39.6128 184.306 39.6128 184.442 39.6129 184.58L39.7789 184.58L39.7793 183.973C39.7796 183.841 39.78 183.712 39.7805 183.584ZM39.6153 185.576L39.7814 185.576L39.7826 185.82L39.7874 186.572L39.6213 186.573L39.6195 186.319L39.6153 185.576ZM39.6302 187.569L39.6375 188.231L39.6415 188.566L39.8075 188.564L39.7963 187.568L39.6302 187.569ZM39.67 190.558C39.6646 190.225 39.6596 189.893 39.6548 189.562L39.8208 189.56L39.836 190.556L39.67 190.558ZM39.6867 191.554L39.7048 192.55L39.8708 192.547L39.8527 191.551L39.6867 191.554ZM38.9953 194.117C39.351 193.953 39.594 193.721 39.6875 193.507L39.8397 193.573C39.729 193.827 39.4557 194.088 39.0647 194.268L38.9953 194.117ZM38.0568 194.35C37.7603 194.377 37.434 194.371 37.0777 194.33L37.0586 194.495C37.4259 194.537 37.7636 194.543 38.0715 194.516L38.0568 194.35ZM35.1605 193.856C35.4901 193.974 35.805 194.07 36.1054 194.147L36.0645 194.308C35.7591 194.23 35.4392 194.132 35.1047 194.013L35.1605 193.856Z" fill="black"/>
<path d="M74.8097 164.244C75.8552 163.979 78.2278 162.501 78.6298 162.75C79.7356 163.912 79.0319 193.467 78.4287 194.381C77.8255 195.294 72.6986 195.626 72.6986 194.381C72.6986 193.135 72.5982 188.818 72.6986 185.414C72.7991 182.011 71.0902 164.991 71.8943 164.742C72.6986 164.493 73.5029 164.576 74.8097 164.244Z" fill="#2F3034"/>
<path d="M73.5026 165.49C74.3067 165.407 77.6242 164.244 78.6294 163.497C79.3331 164.244 80.5394 169.391 79.2326 170.056C77.9257 170.72 74.5078 170.637 74.1056 170.056C73.7035 169.475 72.6983 165.573 73.5026 165.49Z" fill="#3B4345"/>
<path fill-rule="evenodd" clip-rule="evenodd" d="M73.723 166.42L73.8856 166.386C73.9466 166.68 74.0204 167.022 74.0956 167.359L73.9335 167.395C73.8865 167.184 73.8399 166.971 73.7966 166.769L73.723 166.42ZM74.1599 168.367L74.3212 168.327C74.424 168.747 74.5125 169.074 74.5813 169.282L74.4236 169.334C74.3655 169.158 74.2947 168.903 74.2135 168.582L74.1599 168.367ZM75.2921 169.832C75.5892 169.874 75.9377 169.904 76.2939 169.916L76.2994 169.75C75.9491 169.738 75.6066 169.709 75.3157 169.667L75.2921 169.832ZM78.3004 169.738C78.0108 169.816 77.6732 169.869 77.3012 169.897L77.2887 169.731C77.651 169.704 77.9786 169.653 78.2573 169.578L78.3004 169.738Z" fill="black"/>
<path fill-rule="evenodd" clip-rule="evenodd" d="M78.3902 163.174L78.4668 163.322C78.2639 163.427 78.0301 163.546 77.7868 163.668L77.5763 163.772L77.5028 163.624C77.749 163.502 77.9919 163.379 78.2099 163.268L78.3902 163.174ZM76.607 164.055L76.6773 164.206C76.3377 164.364 76.0299 164.502 75.7644 164.613L75.7004 164.46C75.9109 164.372 76.1487 164.267 76.4083 164.147L76.607 164.055ZM74.8041 164.931L74.7723 164.768L74.6601 164.79C74.4257 164.834 74.1318 164.885 73.7935 164.94L73.8204 165.104L74.1446 165.05C74.4016 165.007 74.6243 164.967 74.8041 164.931ZM72.3086 165.17L72.8102 165.095L72.8351 165.259L72.4853 165.311L72.5205 165.799L72.3549 165.811L72.3086 165.17ZM72.4264 166.805L72.4978 167.798L72.6634 167.787L72.592 166.793L72.4264 166.805ZM72.6402 169.785L72.5691 168.792L72.7347 168.78L72.8058 169.774L72.6402 169.785ZM72.7112 170.779L72.7819 171.773L72.9476 171.761L72.8768 170.767L72.7112 170.779ZM72.9227 173.76L72.8524 172.766L73.018 172.755L73.0883 173.749L72.9227 173.76ZM72.9926 174.754L73.0623 175.747L73.2279 175.736L73.1583 174.742L72.9926 174.754ZM73.1997 177.735L73.1313 176.742L73.2969 176.73L73.3654 177.724L73.1997 177.735ZM73.2672 178.729L73.3193 179.525C73.3233 179.588 73.3272 179.654 73.3309 179.723L73.4967 179.714L73.485 179.514L73.4329 178.718L73.2672 178.729ZM73.3693 180.716L73.5353 180.711C73.5395 180.862 73.5434 181.021 73.5469 181.187L73.5564 181.708L73.3904 181.711C73.3862 181.44 73.3812 181.185 73.3754 180.948L73.3693 180.716ZM73.5682 182.705L73.4022 182.706L73.4063 183.36L73.4075 183.702L73.5736 183.701L73.5705 183.027C73.5698 182.918 73.569 182.81 73.5682 182.705ZM73.4084 184.698L73.5744 184.698L73.5738 185.09L73.5719 185.694L73.4058 185.694L73.4066 185.49L73.4084 184.698ZM73.4002 186.69L73.3925 187.686L73.5585 187.688L73.5662 186.691L73.4002 186.69ZM73.3719 189.679L73.3832 188.683L73.5492 188.684L73.5379 189.681L73.3719 189.679ZM73.3587 190.674L73.3445 191.67L73.5106 191.673L73.5248 190.677L73.3587 190.674ZM73.3294 192.666L73.4954 192.669C73.4883 193.122 73.4859 193.285 73.4853 193.354L73.4863 193.406C73.4917 193.461 73.516 193.534 73.5581 193.612L73.4119 193.691C73.3518 193.579 73.3191 193.471 73.3191 193.384L73.3294 192.666ZM74.2157 194.362C74.5039 194.478 74.8427 194.538 75.2306 194.532L75.2281 194.366C74.8618 194.371 74.5449 194.316 74.2777 194.208L74.2157 194.362ZM77.1875 194.079C76.85 194.215 76.5308 194.319 76.2297 194.393L76.19 194.232C76.4833 194.16 76.7951 194.058 77.1256 193.925L77.1875 194.079Z" fill="black"/>
<path d="M31.5257 151.754L79.5602 148.395L80.6631 155.064C80.8443 156.161 80.1445 157.176 79.1604 157.245L33.1533 160.462C32.1692 160.531 31.3349 159.623 31.3618 158.512L31.5257 151.754Z" fill="#81838E"/>
<path d="M27.9573 94.8804C31.9723 85.8633 38.5343 86.5437 41.3224 86.8852L36.1177 118.138L20.4551 127.853C17.3832 123.619 21.4401 110.954 21.7003 109.921C22.5759 106.445 24.8621 101.832 27.9573 94.8804Z" fill="#333742"/>
<path d="M85.1381 95.0058C81.123 85.9887 74.5611 86.6691 71.7729 87.0106L76.9777 118.263L92.0188 112.494C91.6037 111.166 91.2827 110.373 91.0225 109.34C90.1468 105.864 88.2332 101.957 85.1381 95.0058Z" fill="#343844"/>
<path d="M36.0288 92.4142C36.7191 87.3935 40.9304 83.7114 46.0001 83.6552L57.4534 83.5284L68.0066 84.6402C72.8316 85.1486 76.7462 88.8963 77.3816 93.7208C78.7664 104.235 80.9158 122.625 80.9158 135.482C80.9158 154.448 83.9312 156.262 79.2623 158.747C74.5934 161.232 37.2399 160.882 32.14 157.03C27.04 153.177 30.211 149.163 30.211 141.296C30.211 135.501 34.022 107.014 36.0288 92.4142Z" fill="#383C48"/>
<path d="M55.9668 99.5934C60.4945 99.5934 64.165 94.7315 64.165 88.7341C64.165 82.7367 60.4945 77.8749 55.9668 77.8749C51.439 77.8749 47.7686 82.7367 47.7686 88.7341C47.7686 94.7315 51.439 99.5934 55.9668 99.5934Z" fill="#2E2A2B"/>
<rect x="50.4254" y="75.3843" width="11.4568" height="19.0947" rx="5.7284" fill="#EBBAAA"/>
<path d="M49.8452 100.199C44.4351 99.1475 32.7694 87.7171 38.8558 81.8051C42.7443 76.8781 48.9999 83.4474 49.8452 86.7318C50.5215 89.3596 52.3813 95.819 53.5647 97.5708C54.9172 98.8299 55.2553 101.25 49.8452 100.199Z" fill="#40424E"/>
<path d="M62.6283 100.199C68.0386 99.1475 79.7043 87.7171 73.6177 81.8051C69.7292 76.8781 63.4738 83.4474 62.6283 86.7318C61.9522 89.3596 60.0924 95.819 58.9089 97.5708C57.5563 98.8299 57.2182 101.25 62.6283 100.199Z" fill="#40424E"/>
<path d="M49.314 96.2832C49.9426 96.2832 50.4546 96.7821 50.4756 97.4055L50.4763 97.4455V120.62C50.4763 121.262 49.9559 121.782 49.314 121.782C48.6855 121.782 48.1735 121.283 48.1524 120.66L48.1517 120.62V97.4455C48.1517 96.8035 48.6721 96.2832 49.314 96.2832Z" fill="#2E2A2B"/>
<path d="M62.8171 96.2832C63.4456 96.2832 63.9576 96.7821 63.9787 97.4055L63.9794 97.4455V124.123C63.9794 124.765 63.459 125.286 62.8171 125.286C62.1885 125.286 61.6765 124.787 61.6555 124.163L61.6548 124.123V97.4455C61.6548 96.8035 62.1752 96.2832 62.8171 96.2832Z" fill="#2E2A2B"/>
<path d="M38.6181 139.631C39.4275 135.121 43.3516 131.838 47.9336 131.838H55.8367H70.0197C71.103 131.838 72.204 132.021 73.001 132.755C74.3411 133.988 76.2977 136.747 76.9984 142.622C78.1044 151.896 76.9984 153.406 76.9984 153.406C76.9984 153.406 65.5927 156.412 55.8367 156.412C46.0806 156.412 36.1458 153.406 36.1458 153.406L38.0813 142.622L38.6181 139.631Z" fill="#40424E"/>
<path fill-rule="evenodd" clip-rule="evenodd" d="M71.5849 108.034C71.5849 107.815 71.5351 107.639 71.4089 107.516C71.3093 107.417 71.1565 107.35 70.944 107.32L70.6584 107.281C70.5754 107.271 70.5255 107.241 70.4957 107.211C70.4591 107.174 70.4492 107.131 70.4492 107.101C70.4492 106.998 70.5322 106.882 70.7348 106.882L70.753 106.882C70.8596 106.882 71.042 106.881 71.1831 107.022L71.5484 106.656C71.3458 106.454 71.0901 106.374 70.7514 106.374C70.2134 106.374 69.888 106.69 69.888 107.121C69.888 107.324 69.9411 107.483 70.0507 107.596C70.1569 107.706 70.3163 107.775 70.5255 107.805L70.8111 107.845C70.8875 107.855 70.9373 107.878 70.9672 107.908C71.0004 107.945 71.0137 107.991 71.0137 108.048C71.0137 108.184 70.9041 108.26 70.675 108.26C70.4857 108.26 70.2698 108.217 70.147 108.094L69.775 108.466C70.0141 108.712 70.3097 108.778 70.6717 108.778C71.1698 108.778 71.5849 108.516 71.5849 108.034ZM68.6401 108.758L68.1287 107.772C68.3147 107.679 68.5139 107.477 68.5139 107.154C68.5139 106.766 68.2317 106.394 67.707 106.394H66.7705V108.758H67.3517V107.878H67.5476L67.966 108.758H68.6401ZM67.9329 107.154C67.9329 107.277 67.8399 107.393 67.6805 107.393H67.3517V106.915H67.6805C67.8399 106.915 67.9329 107.032 67.9329 107.154ZM69.5179 106.394V108.758H68.9367V106.394H69.5179ZM73.5729 108.24V108.758H71.9656V106.394H73.5729V106.912H72.5468V107.307H73.4234V107.825H72.5468V108.24H73.5729Z" fill="white"/>
<path fill-rule="evenodd" clip-rule="evenodd" d="M69.3259 110.22V110.548C69.3259 110.93 69.2661 111.153 69.0868 111.335C68.8842 111.545 68.6584 111.601 68.3994 111.601C68.1238 111.601 67.9145 111.508 67.7419 111.335C67.5021 111.096 67.5024 110.779 67.5027 110.438L67.5028 110.399L67.5027 110.359C67.5024 110.019 67.5021 109.702 67.7419 109.462C67.9145 109.29 68.1138 109.197 68.3994 109.197C69.0071 109.197 69.2661 109.592 69.3226 109.98H68.7381C68.6916 109.801 68.5986 109.715 68.3994 109.715C68.2931 109.715 68.2134 109.761 68.1702 109.818C68.1171 109.887 68.0839 109.967 68.0839 110.399C68.0839 110.831 68.1171 110.914 68.1702 110.983C68.2134 111.04 68.2931 111.083 68.3994 111.083C68.5223 111.083 68.6053 111.046 68.6584 110.99C68.7248 110.924 68.7481 110.827 68.7481 110.738V110.704H68.3994V110.22H69.3259ZM67.3714 111.581L66.5113 109.217H66.063L65.2029 111.581H65.8106L65.9268 111.229H66.6541L66.7637 111.581H67.3714ZM66.5014 110.744H66.0896L66.3022 110.113L66.5014 110.744ZM71.6262 111.581L70.7662 109.217H70.3178L69.4578 111.581H70.0655L70.1817 111.229H70.909L71.0185 111.581H71.6262ZM70.3443 110.744H70.756L70.5568 110.113L70.3443 110.744ZM72.4473 111.581V109.217H71.8662V111.581H72.4473ZM74.773 109.217V111.581H74.265L73.5078 110.392V111.581H72.9267V109.217H73.4348L74.1919 110.406V109.217H74.773Z" fill="#FF0000"/>
<path d="M74.9164 116.396C72.5918 116.463 70.2395 118.859 69.354 120.049C69.354 121.959 74.9164 124.034 77.49 123.785C80.0636 123.536 80.2297 119.136 79.3995 118.14C78.5693 117.143 77.8221 116.313 74.9164 116.396Z" fill="#EBBEAA"/>
<path d="M33.24 119.634C34.6514 118.721 38.1382 118.555 38.8854 118.555C39.3005 119.745 39.5994 122.175 37.4741 122.374C34.8174 122.623 31.8287 120.547 33.24 119.634Z" fill="#EBBEAA"/>
<path d="M35.4817 136.902C20.1174 134.115 19.4034 127.411 19.3757 124.201C20.2391 112.246 31.9118 113.159 32.742 118.887C34.7345 120.907 35.2706 120.804 39.9648 121.71C44.6969 122.623 50.0102 122.872 58.8104 120.132L68.1917 130.427C62.1312 134.993 54.2443 140.306 35.4817 136.902Z" fill="#333742"/>
<path d="M93.2639 117.393C93.2639 115.081 89.7546 105.767 87.8675 101.204L79.3164 106.824C80.6345 109.47 80.5353 118.86 77.3723 119.971C73.4183 121.36 48.5267 117.292 47.1789 118.285C46.1005 119.078 45.1121 125.66 45.1121 127.611C53.5589 130.984 78.2707 138.723 85.8191 133.266C89.7886 130.396 93.2639 125.33 93.2639 117.393Z" fill="#343844"/>
<path d="M39.1345 117.227C39.7323 116.894 44.5308 118.195 46.8554 118.887C46.1913 119.418 45.3611 125.888 45.278 126.774C44.6139 126.829 43.1195 123.804 41.8742 123.038C40.2968 122.067 38.5257 121.488 37.4741 121.212C37.5018 120.962 37.5903 120.348 37.7232 119.883C37.8892 119.302 38.3873 117.642 39.1345 117.227Z" fill="#2F323D"/>
<path opacity="0.5" d="M81.1428 66.178C84.8109 66.178 87.7845 62.9442 87.7845 58.9552C87.7845 54.9661 84.8109 51.7325 81.1428 51.7325C77.4748 51.7325 74.5012 54.9661 74.5012 58.9552C74.5012 62.9442 77.4748 66.178 81.1428 66.178Z" fill="#C99584"/>
<path opacity="0.5" d="M31.3307 66.178C27.6626 66.178 24.6891 62.9442 24.6891 58.9552C24.6891 54.9661 27.6626 51.7325 31.3307 51.7325C34.9987 51.7325 37.9723 54.9661 37.9723 58.9552C37.9723 62.9442 34.9987 66.178 31.3307 66.178Z" fill="#C99584"/>
<path d="M31.3306 42.8938C31.3306 29.1386 42.4814 17.9877 56.2367 17.9877C69.992 17.9877 81.1428 29.1386 81.1428 42.8938V52.0004C81.1428 53.48 81.0297 54.9573 80.8044 56.4196L79.2823 66.3C77.5345 77.6456 67.7715 86.0199 56.2921 86.0199C45.0565 86.0199 35.4268 77.989 33.409 66.936L31.8025 58.1365C31.4885 56.4166 31.3306 54.6719 31.3306 52.9236V42.8938Z" fill="#F4D5CC"/>
<path d="M29.7535 35.3774C29.6422 25.2472 38.5541 21.9282 36.9763 23.8376C35.3988 25.747 39.1352 30.4792 36.9763 31.9736C34.8176 33.4679 37.2254 38.2833 36.0631 40.1097C34.9008 41.9362 33.0453 41.5211 31.9951 45.091C30.9449 48.6608 31.829 55.6108 31.829 55.6108C31.9121 55.8006 31.829 56.0496 31.663 56.0496C31.497 56.0496 31.2479 55.9666 31.1804 55.6108C31.1804 55.6108 29.9195 50.4871 29.7535 35.3774Z" fill="#868686"/>
<path d="M82.6362 35.6321C82.739 26.2778 74.5128 23.2129 75.969 24.9761C77.4252 26.7393 73.9764 31.109 75.969 32.489C77.9617 33.8689 75.7392 38.3153 76.8122 40.002C77.885 41.6885 79.5977 41.3052 80.5672 44.6016C81.5365 47.8982 80.7204 54.3158 80.7204 54.3158C80.6437 54.4912 80.7204 54.7212 80.8737 54.7212C81.0269 54.7212 81.2567 54.6444 81.319 54.3158C81.319 54.3158 82.483 49.5847 82.6362 35.6321Z" fill="#868686"/>
<path d="M57.0669 29.3169C43.2854 29.3169 33.7859 31.5585 31.6628 36.1558C29.5396 40.7532 30.0256 42.1851 29.9193 40.9398C29.8131 39.6945 29.6703 38.3041 29.6703 35.7925C29.6703 19.4893 41.044 17.0296 51.3385 18.026C61.6331 19.0223 69.663 29.3169 57.0669 29.3169Z" fill="#706F6F"/>
<path d="M55.2943 29.2354C67.9381 29.2354 80.6214 24.476 81.1428 33.7169C83.1353 36.8716 82.3881 40.5247 82.6372 35.3773C83.7098 13.211 49.9272 -1.71154 32.6589 24.1078C32.6589 24.1078 42.6491 29.2354 55.2943 29.2354Z" fill="#706F6F"/>
<path d="M55.5606 53.9383L57.9093 55.504C57.111 56.7014 56.4859 58.4986 56.4859 59.8061C56.4859 61.0669 56.9412 61.5968 58.3351 61.6115L58.3954 61.6118V64.4345C55.3165 64.4345 53.6632 62.5746 53.6632 59.8061C53.6632 57.9307 54.4434 55.6541 55.5026 54.0264L55.5606 53.9383Z" fill="#EBBAAA"/>
<path d="M66.6976 48.6517C67.7811 48.6517 68.6626 49.5166 68.6894 50.5936L68.6901 50.6442V52.9688C68.6901 54.0692 67.798 54.9613 66.6976 54.9613C65.6141 54.9613 64.7326 54.0964 64.7057 53.0194L64.7051 52.9688V50.6442C64.7051 49.5438 65.5971 48.6517 66.6976 48.6517Z" fill="black"/>
<path d="M45.8593 48.6517C46.9428 48.6517 47.8243 49.5166 47.8512 50.5936L47.8518 50.6442V52.9688C47.8518 54.0692 46.9597 54.9613 45.8593 54.9613C44.7758 54.9613 43.8943 54.0964 43.8675 53.0194L43.8668 52.9688V50.6442C43.8668 49.5438 44.7589 48.6517 45.8593 48.6517Z" fill="black"/>
<path d="M49.5952 30.3962C43.2026 28.8397 34.9006 32.3887 29.7533 33.3019C29.7533 22.0941 41.7082 10.6373 55.4066 10.3052C69.1049 9.97314 77.573 19.0224 79.7315 23.5055C80.571 25.2489 78.6523 28.4748 74.1692 30.3962C68.9389 32.6378 59.1425 32.7208 49.5952 30.3962Z" fill="#2B2A2A"/>
<path d="M61.8459 46.2375L60.4752 43.2841L69.8578 41.1234L72.8597 42.8343L73.0199 44.4869L68.411 44.2664L61.8459 46.2375Z" fill="#393939"/>
<path d="M49.9701 46.1409L51.2878 43.1609L41.7994 41.186L38.8142 42.9559L38.6875 44.6115L43.3215 44.3L49.9701 46.1409Z" fill="#393939"/>
<path d="M63.4076 68.3045C63.7921 67.6797 64.6103 67.4849 65.235 67.8694C65.8598 68.2538 66.0546 69.072 65.6702 69.6968C65.1399 70.5585 63.9918 71.5003 62.5646 72.2094C60.842 73.0652 58.8031 73.5578 56.5689 73.5578C54.3303 73.5578 52.3903 73.065 50.7632 72.1895C49.5206 71.5209 48.5388 70.6693 47.8782 69.8105C47.4309 69.229 47.5397 68.3951 48.1212 67.9478C48.6908 67.5096 49.5027 67.605 49.9561 68.1557L49.9839 68.1907C50.4214 68.7595 51.1177 69.3635 52.022 69.85C53.2638 70.5182 54.7714 70.9011 56.5689 70.9011C58.3869 70.9011 60.0221 70.5061 61.3825 69.8302C62.3745 69.3373 63.1318 68.7236 63.39 68.332L63.4076 68.3045Z" fill="#C99584"/>
</g>
<defs>
<clipPath id="clip0_41_775">
<rect width="110" height="181" fill="white" transform="translate(0.5)"/>
</clipPath>
</defs>
</svg>
