<svg xmlns="http://www.w3.org/2000/svg" width="26" height="19" viewBox="0 0 26 19" fill="none">
  <path d="M14.3727 3.24955C13.0579 2.52994 11.6887 3.09785 11.4087 3.2301C11.1014 3.26122 9.63492 3.47905 8.87642 4.77045C8.04789 6.18245 10.444 5.53285 11.8793 5.15554C11.8988 5.15165 11.9182 5.14387 11.9377 5.13998C11.9571 5.13609 11.9766 5.12831 11.996 5.12443C13.4158 4.70822 15.808 4.0314 14.3727 3.24955Z" fill="#F8D21E"/>
  <path d="M12.6884 3.522C12.7856 3.87597 12.3655 4.30384 11.751 4.47499C11.1364 4.64614 10.5568 4.49444 10.4595 4.14047C10.3623 3.7865 10.7824 3.35862 11.397 3.18747C12.0077 3.01632 12.5873 3.16413 12.6884 3.522Z" fill="#F9ED43"/>
  <path d="M24.8206 6.21C24.7817 6.06607 24.735 5.92604 24.6767 5.78601L24.6456 5.70821C24.5989 5.59541 24.5483 5.4865 24.4939 5.38147L24.4589 5.31535C24.3966 5.19865 24.3305 5.08585 24.241 4.94971C23.1519 3.28488 20.9542 2.2113 18.0602 1.91956C15.9714 1.69396 13.6064 1.91956 11.2258 2.58083C8.8336 3.24209 6.67866 4.26899 5.00605 5.54095C2.68385 7.2758 1.35743 9.32571 1.27575 11.3367C1.27186 11.469 1.27186 11.6012 1.27964 11.7413L1.28353 11.8035C1.29131 11.9241 1.30687 12.0447 1.32243 12.1653L1.33409 12.2508C1.35743 12.3948 1.38855 12.5387 1.42745 12.6826C1.45079 12.7643 1.47802 12.846 1.50525 12.9277C1.52469 13.0249 1.54803 13.1183 1.57526 13.2155C2.1704 15.3743 3.44625 17.0119 5.26667 17.9571C5.41837 18.0349 5.57396 18.1088 5.73733 18.1789C7.89227 19.1124 10.7474 19.1824 14.256 18.3811L14.3727 18.3539C14.7383 18.2683 15.1156 18.175 15.5046 18.0661C15.8158 17.9805 16.1192 17.891 16.4109 17.8016C17.0916 17.5915 17.7334 17.3659 18.383 17.1053L18.6009 17.0197C24.0077 14.787 26.2093 11.2356 24.9684 6.75068C24.9412 6.65343 24.9101 6.56008 24.879 6.46672C24.8634 6.37726 24.844 6.29557 24.8206 6.21Z" fill="#8E381E"/>
  <path d="M24.0386 6.73102C24.7699 9.37997 24.9994 14.2461 15.201 16.9534C5.58155 19.614 3.09987 15.3741 2.3647 12.7213C1.26778 8.7576 5.40651 4.8367 11.3929 3.18354C17.3793 1.53038 22.9417 2.76733 24.0386 6.73102Z" fill="#F47920"/>
  <path d="M12.9568 17.4749C13.6608 17.3427 14.4038 17.1754 15.2012 16.9537C15.808 16.7864 16.372 16.6114 16.9049 16.4286L16.3564 14.4409L17.0216 14.0558L17.6089 16.1757C17.9629 16.0435 18.2935 15.9034 18.6125 15.7634L17.9279 13.2934L12.3733 15.3394L12.9568 17.4749Z" fill="#FAAD1B"/>
  <path d="M7.5694 15.526C7.1532 14.5613 4.2981 14.2735 4.2981 14.2735L5.22386 16.6968C5.47281 16.8485 5.73732 16.9847 6.02905 17.113L5.06827 14.8336L5.80344 14.9814L6.89647 17.4242C7.38658 17.5681 7.93115 17.6771 8.53018 17.7393L7.5694 15.526Z" fill="#FAAD1B"/>
  <path d="M14.7142 15.2034C20.7 13.5482 24.8085 9.51587 23.8908 6.19686C22.973 2.87784 17.3766 1.529 11.3908 3.18414C5.40496 4.83928 1.29646 8.87162 2.2142 12.1906C3.13194 15.5097 8.72838 16.8585 14.7142 15.2034Z" fill="#FAAD1B"/>
  <path d="M23.218 4.89514C23.3191 5.09741 23.4008 5.30746 23.463 5.52529C24.3616 8.77326 20.3395 12.7214 14.4776 14.3434C8.61572 15.9655 3.13891 14.6429 2.24037 11.395C2.17813 11.1771 2.14312 10.9515 2.12756 10.7298C2.06144 11.2277 2.08867 11.7178 2.21703 12.1924C3.13502 15.5104 8.73242 16.8601 14.7149 15.2031C20.7013 13.5499 24.8089 9.51621 23.8909 6.19822C23.7625 5.72367 23.5292 5.28801 23.218 4.89514Z" fill="#F8D21E"/>
  <path d="M14.233 13.453C18.5521 12.2588 21.5164 9.34863 20.854 6.95306C20.1916 4.55749 16.1533 3.58364 11.8343 4.7779C7.51521 5.97217 4.5509 8.8823 5.21329 11.2779C5.87569 13.6734 9.91397 14.6473 14.233 13.453Z" fill="#8E381E"/>
  <path d="M14.1772 13.2542C17.9889 12.2002 20.6172 9.67573 20.0476 7.61558C19.4779 5.55543 15.9261 4.73978 12.1143 5.79378C8.30247 6.84778 5.6742 9.37229 6.24385 11.4324C6.8135 13.4926 10.3654 14.3082 14.1772 13.2542Z" fill="#F8D21E"/>
  <path d="M18.7679 7.54769C19.2425 9.25919 17.0564 11.3519 13.894 12.2271C10.7316 13.1023 7.77929 12.4255 7.30863 10.7179C6.83407 9.00636 9.02013 6.91366 12.1825 6.03845C15.3488 5.16325 18.2973 5.84007 18.7679 7.54769Z" fill="#FAAD1B"/>
  <path d="M15.4072 14.5028C15.4811 14.7634 15.17 15.0785 14.7187 15.203C14.2675 15.3274 13.8397 15.2185 13.7657 14.954C13.6918 14.6934 14.003 14.3783 14.4542 14.2538C14.9093 14.1294 15.3333 14.2422 15.4072 14.5028Z" fill="#F9ED43"/>
  <path d="M14.8469 12.4761C14.9208 12.7368 14.6097 13.0518 14.1584 13.1763C13.7072 13.3008 13.2794 13.1919 13.2054 12.9274C13.1315 12.6667 13.4427 12.3517 13.8939 12.2272C14.349 12.1066 14.773 12.2155 14.8469 12.4761Z" fill="#F9ED43"/>
  <path d="M15.1234 5.96482C13.8087 5.24521 12.4394 5.81312 12.1594 5.94537C11.8521 5.97649 10.3856 6.19432 9.62324 7.48573C8.79472 8.89772 11.1908 8.24812 12.6262 7.87082C12.6456 7.86693 12.6651 7.85915 12.6845 7.85526C12.704 7.85137 12.7234 7.84359 12.7429 7.8397C14.1704 7.42738 16.5587 6.75056 15.1234 5.96482Z" fill="#F8D21E"/>
  <path d="M13.4389 6.24085C13.5361 6.59482 13.116 7.0227 12.5014 7.19385C11.8869 7.365 11.3073 7.2133 11.21 6.85933C11.1128 6.50536 11.5329 6.07748 12.1475 5.90633C12.7621 5.73129 13.3377 5.88299 13.4389 6.24085Z" fill="#F9ED43"/>
</svg>