<svg width="111" height="181" viewBox="0 0 111 181" fill="none" xmlns="http://www.w3.org/2000/svg">
<g clip-path="url(#clip0_41_703)">
<path d="M64.1777 152.511C66.6457 152.003 69.06 153.583 69.5704 156.041C70.5091 160.563 70.9683 171.478 70.9355 184.781L70.9343 185.184C70.8933 197.964 70.3958 209.982 69.6191 215.4C69.2629 217.885 66.9516 219.612 64.4567 219.257C61.9618 218.902 60.2281 216.6 60.5843 214.116C62.1333 203.31 62.2665 166.508 60.6816 158.127L60.633 157.882C60.1227 155.424 61.7097 153.019 64.1777 152.511Z" fill="#F6DDD6"/>
<path d="M41.6386 155.313C42.1489 152.855 44.5633 151.274 47.0313 151.783C49.4746 152.286 51.0544 154.648 50.5906 157.08L50.5759 157.154C48.9399 165.034 49.0601 202.596 50.6246 213.51C50.9809 215.994 49.2471 218.296 46.7522 218.651C44.2574 219.006 41.9461 217.279 41.5899 214.794C40.821 209.431 40.3256 197.572 40.276 184.901L40.2746 184.517C40.2314 170.997 40.6904 159.88 41.6386 155.313Z" fill="#F6DDD6"/>
<path d="M68.8385 165.434L41.7577 162.367L35.9108 147.647L72.5314 149.18L68.8385 165.434Z" fill="#556681"/>
<path d="M53.9979 151.249L76.1381 149.69L72.2507 207.107L59.0935 206.501L57.8766 183.703L53.9979 151.249Z" fill="#556681"/>
<path d="M34.1481 148.326L54.0672 151.633L52.8221 180.832L52.2488 207.032L39.2436 206.501L34.1481 148.326Z" fill="#556681"/>
<path d="M29.7733 97.2569C32.922 93.3368 38.6652 92.7013 42.601 95.8374C46.4975 98.9422 47.1618 104.58 44.1195 108.496L44.0262 108.614C43.6085 109.134 40.7504 112.633 39.9362 113.665L39.8889 113.725C37.826 116.351 36.4764 118.416 35.1165 121.151C34.3662 122.661 33.6229 124.368 32.8618 126.35C31.0617 131.04 25.7858 133.387 21.0779 131.595C16.3699 129.802 14.0126 124.547 15.8127 119.858C16.7727 117.357 17.7438 115.127 18.7588 113.085C20.6835 109.213 22.6619 106.171 25.3695 102.706L25.6274 102.378C26.6248 101.119 29.4565 97.6512 29.7733 97.2569Z" fill="#E0C1A1"/>
<path d="M80.2619 101.276C78.1368 96.5643 72.7551 94.2441 67.8518 95.9257C62.9968 97.5907 60.1896 102.64 61.3486 107.622L69.7006 143.519C71.394 150.797 78.9714 155.08 86.1129 152.794C92.8908 150.626 96.5971 143.372 94.3681 136.638L89.2867 121.286L80.2619 101.276Z" fill="#E0C1A1"/>
<path d="M80.6929 142.344C76.5611 143.373 78.5889 146.334 78.6395 148.253C86.5492 148.253 91.0614 149.793 92.1768 150.146C92.4811 149.389 92.9666 148.253 93.3939 147.344C95.7431 142.344 86.1688 140.981 80.6929 142.344Z" fill="#DBB793"/>
<path d="M29.9873 108.102C29.996 99.337 37.1386 92.2498 45.9389 92.2498H63.1934C71.4986 92.2498 78.4234 98.5868 78.9358 106.843C79.3389 113.336 79.7041 120.747 79.7041 126.286C79.7041 133.351 79.1097 143.421 78.6007 150.75C78.2296 156.093 73.7522 160.191 68.3755 160.191H41.3796C36.0337 160.191 31.5706 156.136 31.1676 150.827C30.6532 144.048 30.0644 134.963 30.0198 128.407C29.9836 123.07 29.9801 115.162 29.9873 108.102Z" fill="#E3C7AB"/>
<path d="M54.994 105.487C60.477 105.487 64.9219 100.989 64.9219 95.4398C64.9219 89.8906 60.477 85.3922 54.994 85.3922C49.5109 85.3922 45.066 89.8906 45.066 95.4398C45.066 100.989 49.5109 105.487 54.994 105.487Z" fill="#DBB793"/>
<rect x="48.8785" y="82.2047" width="12.3069" height="18.3862" rx="6.15344" fill="#EED1C9"/>
<rect x="39.9417" y="111.388" width="14.4115" height="14.3537" rx="6.5" fill="#FF6C75"/>
<path fill-rule="evenodd" clip-rule="evenodd" d="M55.314 118.565C55.314 114.601 58.5401 111.388 62.5197 111.388C66.4993 111.388 69.7255 114.601 69.7255 118.565C69.7255 122.529 66.4993 125.742 62.5197 125.742C58.5401 125.742 55.314 122.529 55.314 118.565ZM67.9002 118.565C67.9002 115.605 65.4913 113.206 62.5198 113.206C59.5482 113.206 57.1393 115.605 57.1393 118.565C57.1393 121.525 59.5482 123.924 62.5198 123.924C65.4913 123.924 67.9002 121.525 67.9002 118.565Z" fill="#FF6C75"/>
<path fill-rule="evenodd" clip-rule="evenodd" d="M43.8964 126.539H50.3984C52.5825 126.539 54.3531 128.303 54.3531 130.478V136.954C54.3531 139.13 52.5825 140.893 50.3984 140.893H43.8964C41.7123 140.893 39.9417 139.13 39.9417 136.954V130.478C39.9417 128.303 41.7123 126.539 43.8964 126.539ZM50.3984 128.357H43.8965C42.7204 128.357 41.767 129.307 41.767 130.478V136.954C41.767 138.125 42.7204 139.075 43.8965 139.075H50.3984C51.5745 139.075 52.5279 138.125 52.5279 136.954V130.478C52.5279 129.307 51.5745 128.357 50.3984 128.357Z" fill="#FF6C75"/>
<path fill-rule="evenodd" clip-rule="evenodd" d="M59.2687 126.539H65.7707C67.9549 126.539 69.7255 128.303 69.7255 130.478V136.954C69.7255 139.13 67.9549 140.893 65.7707 140.893H59.2687C57.0846 140.893 55.314 139.13 55.314 136.954V130.478C55.314 128.303 57.0846 126.539 59.2687 126.539ZM65.7708 128.357H59.2688C58.0927 128.357 57.1393 129.307 57.1393 130.478V136.954C57.1393 138.125 58.0927 139.075 59.2688 139.075H65.7708C66.9468 139.075 67.9002 138.125 67.9002 136.954V130.478C67.9002 129.307 66.9468 128.357 65.7708 128.357Z" fill="#FF6C75"/>
<path d="M40.7426 98.6294C42.9204 102.074 46.9878 104.69 52.4321 104.69C52.4321 100.596 49.5497 96.3966 46.1871 91.6121C44.7913 89.6261 43.625 87.4655 40.7426 87.4655C39.8353 89.7514 38.5649 95.1845 40.7426 98.6294Z" fill="#C09F7B"/>
<path d="M68.6048 98.6294C66.4271 102.074 62.3598 104.69 56.9154 104.69C56.9154 100.596 59.7977 96.3966 63.1604 91.6121C64.5562 89.6261 65.7225 87.4655 68.6048 87.4655C69.5123 89.7514 70.7825 95.1845 68.6048 98.6294Z" fill="#C09F7B"/>
<path d="M48.9089 101.237C49.4847 101.237 49.9537 101.692 49.973 102.261L49.9736 102.297V124.557C49.9736 125.143 49.4969 125.617 48.9089 125.617C48.3331 125.617 47.864 125.162 47.8447 124.593L47.8441 124.557V102.297C47.8441 101.712 48.3208 101.237 48.9089 101.237Z" fill="#FFF0E0"/>
<path d="M60.1182 100.918C60.694 100.918 61.163 101.373 61.1823 101.942L61.183 101.979V130.686C61.183 131.272 60.7063 131.746 60.1182 131.746C59.5424 131.746 59.0734 131.291 59.0541 130.722L59.0535 130.686V101.979C59.0535 101.393 59.5302 100.918 60.1182 100.918Z" fill="#FFF0E0"/>
<path d="M18.685 121.75C20.948 119.054 24.9769 118.695 27.6839 120.949C30.3638 123.181 30.7433 127.136 28.5549 129.831L28.4878 129.912C27.5726 131.002 26.6441 133.28 26.3021 136.041C25.8422 139.753 26.4465 143.903 28.3663 148.281C29.7784 151.502 28.3019 155.253 25.0686 156.659C21.8352 158.065 18.0693 156.595 16.6572 153.375C13.82 146.904 12.8812 140.457 13.6213 134.483C14.2527 129.385 16.1196 124.806 18.685 121.75Z" fill="#F6DDD6"/>
<path d="M15.598 120.207C17.5405 115.986 22.5511 114.132 26.7895 116.067C31.0279 118.001 32.8891 122.992 30.9466 127.213C30.5229 128.134 30.1599 129.089 29.8523 130.085C29.2091 132.166 28.807 134.421 28.5904 136.997L28.5737 137.201C28.4082 139.275 28.3697 140.99 28.368 144.623L28.368 144.88C28.368 149.524 24.5884 153.288 19.9261 153.288C15.2637 153.288 11.4841 149.524 11.4841 144.88L11.486 143.513C11.496 140.2 11.5501 138.315 11.7356 135.96L11.7429 135.868C12.0471 132.056 12.6615 128.549 13.7152 125.139C14.2366 123.451 14.8611 121.808 15.598 120.207Z" fill="#E0C1A1"/>
<path d="M13.5415 151.964C12.2881 150.512 11.5507 145.962 11.5507 145.962C17.3714 149.877 26.1957 146.352 28.3635 143.248L28.8994 149.325C27.6247 152.813 25.0595 154.021 21.3295 154.926C17.9855 155.737 14.795 153.416 13.5415 151.964Z" fill="#DBB793"/>
<path d="M80.5385 147.248C75.0417 148.326 75.1509 153.287 76.0879 155.558C80.2261 158.852 89.596 155.183 90.689 153.611C92.1693 151.482 87.4096 145.9 80.5385 147.248Z" fill="#F2CCC1"/>
<path d="M84.3361 150.595C86.8511 150.557 89.4086 151.379 91.8723 152.827C93.7018 153.902 95.3976 155.289 96.5253 156.526L96.598 156.606L94.6695 158.322C93.7184 157.261 92.1954 156.007 90.5586 155.045C88.4727 153.82 86.3593 153.14 84.3749 153.17C82.4442 153.199 80.4787 154.043 78.6038 155.521C77.1536 156.664 75.8462 158.132 75.0448 159.383L74.9897 159.47L72.7966 158.105C73.7457 156.592 75.2769 154.859 76.9993 153.501C79.2851 151.7 81.7675 150.633 84.3361 150.595Z" fill="#CF8388"/>
<rect width="42.8919" height="30.4524" rx="5.75" transform="matrix(0.993623 -0.112755 0.113653 0.99352 64.4207 157.611)" fill="#CF8388"/>
<rect width="42.8919" height="30.4524" rx="5.75" transform="matrix(0.993623 -0.112755 0.113653 0.99352 62.4556 157.834)" fill="#FCA9AE"/>
<path d="M81.4054 172.997L63.3306 165.483L62.8861 161.597C62.6388 159.436 64.1976 157.484 66.3677 157.238L101.127 153.293C103.298 153.047 105.257 154.6 105.504 156.761L105.811 159.44L90.6689 171.668C88.0613 173.774 84.5036 174.284 81.4054 172.997Z" fill="#F1C3C6"/>
<path d="M85.6486 171.212C86.6919 171.093 87.4413 170.155 87.3224 169.116C87.2036 168.077 86.2614 167.33 85.2181 167.449C84.1748 167.567 83.4253 168.505 83.5442 169.545C83.6631 170.584 84.6052 171.33 85.6486 171.212Z" fill="#E29398"/>
<path d="M83.7327 145.884C78.2359 146.962 78.3451 151.923 79.2821 154.194C83.4203 157.488 92.7902 153.82 93.8832 152.248C95.3635 150.119 90.6038 144.537 83.7327 145.884Z" fill="#F6DDD6"/>
<path d="M29.9431 46.3939C29.9431 33.4922 40.9836 23.0332 54.6028 23.0332C68.222 23.0332 79.2625 33.4922 79.2625 46.3939V69.6291C77.2738 84.7005 65.3417 92.99 54.6028 92.99C43.8639 92.99 31.4015 82.9423 29.9431 69.6291V46.3939Z" fill="#F6DDD6"/>
<path fill-rule="evenodd" clip-rule="evenodd" d="M47.9732 75.2679C47.9567 75.4591 47.9484 75.6526 47.9484 75.8479V76.8231C47.9484 80.5261 50.9622 83.528 54.6802 83.528C58.3981 83.528 61.4119 80.5261 61.4119 76.8231V75.8479C61.4119 75.6526 61.4036 75.4591 61.3871 75.2679H47.9732Z" fill="#393939"/>
<mask id="mask0_41_703" style="mask-type:luminance" maskUnits="userSpaceOnUse" x="47" y="74" width="15" height="10">
<path fill-rule="evenodd" clip-rule="evenodd" d="M48.146 74.2281C48.0168 74.7467 47.9484 75.2891 47.9484 75.8475V76.8227C47.9484 80.5257 50.9622 83.5275 54.6802 83.5275C58.3981 83.5275 61.4119 80.5257 61.4119 76.8227V75.8475C61.4119 75.2891 61.3435 74.7467 61.2143 74.2281H48.146Z" fill="white"/>
</mask>
<g mask="url(#mask0_41_703)">
<path d="M54.6801 85.4767C56.9222 85.4767 58.7398 84.5834 58.7398 83.4814C58.7398 82.3794 56.9222 81.4861 54.6801 81.4861C52.4381 81.4861 50.6205 82.3794 50.6205 83.4814C50.6205 84.5834 52.4381 85.4767 54.6801 85.4767Z" fill="#FF6C6C"/>
<rect x="47.9484" y="75.2681" width="13.4637" height="2.50575" fill="white"/>
</g>
<path d="M40.8219 52.5272C43.1943 51.8067 45.8537 51.7123 48.5909 52.6475C49.1471 52.8376 49.4433 53.4408 49.2525 53.9947C49.0617 54.5487 48.4561 54.8438 47.8999 54.6537C45.6294 53.8779 43.4169 53.9565 41.443 54.556C41.1153 54.6555 40.8252 54.7614 40.5774 54.8659L40.4621 54.9157C40.3866 54.9491 40.336 54.9735 40.3118 54.9861C39.7913 55.2586 39.1475 55.0591 38.874 54.5407C38.6005 54.0222 38.8007 53.381 39.3213 53.1086L39.365 53.0863C39.4525 53.0424 39.5807 52.983 39.7471 52.9128C40.0615 52.7802 40.421 52.649 40.8219 52.5272Z" fill="#583311"/>
<path d="M60.8949 52.6403C63.6321 51.705 66.2915 51.7995 68.6639 52.52C69.0648 52.6417 69.4244 52.7729 69.7387 52.9055L69.8663 52.9604C69.9985 53.0186 70.0985 53.0668 70.1646 53.1014C70.6851 53.3738 70.8854 54.0149 70.6118 54.5334C70.3443 55.0406 69.7224 55.2425 69.2081 54.996L69.154 54.9687C69.1102 54.9471 69.0275 54.9088 68.9085 54.8586C68.6606 54.7541 68.3706 54.6482 68.0428 54.5487C66.0689 53.9492 63.8565 53.8706 61.586 54.6464C61.0297 54.8365 60.4241 54.5415 60.2333 53.9875C60.0425 53.4335 60.3387 52.8303 60.8949 52.6403Z" fill="#583311"/>
<path d="M36.2592 78.3745C39.5313 78.3745 42.1839 75.7325 42.1839 72.4735C42.1839 69.2145 39.5313 66.5726 36.2592 66.5726C32.9871 66.5726 30.3345 69.2145 30.3345 72.4735C30.3345 75.7325 32.9871 78.3745 36.2592 78.3745Z" fill="#F2CACA"/>
<path d="M66.1888 57.3059C66.5077 57.0336 66.9878 57.0705 67.2612 57.3881C67.5345 57.7058 67.4975 58.184 67.1786 58.4562C67.1043 58.5196 66.9834 58.6053 66.8122 58.7043C66.5531 58.8541 66.2355 59.0001 65.856 59.1335C65.5505 59.2409 65.2145 59.3365 64.8469 59.4178C64.4369 59.5085 64.0306 59.251 63.9395 58.8426C63.8484 58.4342 64.107 58.0296 64.517 57.9389C64.8252 57.8707 65.1023 57.7919 65.3498 57.7049C65.6178 57.6107 65.8355 57.5128 66.0067 57.4178L66.0485 57.3941C66.1391 57.3418 66.1843 57.3097 66.1888 57.3059Z" fill="black"/>
<path d="M63.7226 57.3927C64.7152 57.3927 65.5227 58.1819 65.5472 59.1645L65.5478 59.2107L65.5477 62.409C65.5476 63.413 64.7304 64.2269 63.7223 64.2269C62.7297 64.2268 61.9222 63.4377 61.8977 62.455L61.8971 62.4088L61.8972 59.2106C61.8973 58.2065 62.7145 57.3927 63.7226 57.3927Z" fill="black"/>
<path d="M42.2349 57.3621C42.4285 57.004 42.8698 56.8638 43.234 57.0386L43.282 57.0625L43.3302 57.0847C43.3481 57.0927 43.3677 57.1012 43.3892 57.1101C43.5194 57.1646 43.6762 57.2204 43.8581 57.2732C44.3914 57.4282 45.0107 57.5221 45.7067 57.5221C46.1268 57.5221 46.4673 57.8612 46.4673 58.2795C46.4673 58.6979 46.1268 59.037 45.7067 59.037C44.8616 59.037 44.0997 58.9215 43.4321 58.7276C43.1936 58.6583 42.9826 58.5832 42.8001 58.5069L42.7268 58.4755C42.6467 58.4404 42.5856 58.4106 42.5439 58.3882C42.1741 58.1899 42.0357 57.7305 42.2349 57.3621Z" fill="black"/>
<path d="M45.685 57.1816C46.6776 57.1816 47.4851 57.9707 47.5097 58.9534L47.5103 58.9996V62.4178C47.5103 63.4218 46.6931 64.2358 45.685 64.2358C44.6925 64.2358 43.8849 63.4467 43.8603 62.464L43.8597 62.4178V58.9996C43.8597 57.9956 44.6769 57.1816 45.685 57.1816Z" fill="black"/>
<path d="M52.7157 64.0585L55.2778 64.4067L55.262 64.5186C55.2012 64.936 55.1321 65.2432 54.8975 66.1902L54.7476 66.7971C54.727 66.8822 54.7083 66.9607 54.6903 67.0374L54.6447 67.2361C54.4201 68.2373 54.3576 68.8921 54.451 69.2822L54.4604 69.3189C54.5133 69.5119 54.5961 69.5578 55.0542 69.5603L55.0969 69.5604V72.1359C53.4133 72.1359 52.2785 71.3109 51.9358 69.8796C51.7256 69.002 51.812 68.0522 52.1165 66.6945L52.1604 66.5024C52.1912 66.3701 52.2228 66.238 52.2606 66.0839L52.5055 65.0901C52.618 64.6246 52.6645 64.4022 52.7001 64.1671L52.7157 64.0585Z" fill="#EBBAAA"/>
<path d="M71.9767 78.0556C75.2047 78.0556 77.8214 75.4137 77.8214 72.1547C77.8214 68.8957 75.2047 66.2537 71.9767 66.2537C68.7488 66.2537 66.1321 68.8957 66.1321 72.1547C66.1321 75.4137 68.7488 78.0556 71.9767 78.0556Z" fill="#F2CACA"/>
<path d="M74.6093 82.6011C76.0505 76.5406 76.611 63.383 76.611 58.2794C76.611 53.9572 74.6157 37.5936 66.0425 34.6757C59.717 32.5226 45.7863 34.5958 44.5052 32.7618C40.1017 41.693 41.6987 45.3003 37.3796 47.6738C32.736 50.2254 33.0562 74.4673 34.256 80.2884C34.3853 80.4977 34.5191 80.7104 34.6574 80.9263C37.1322 84.7901 41.4629 88.821 44.2652 90.017C44.105 91.6385 42.5198 93.9287 42.8941 98.7132C43.1343 100.986 44.5052 104.47 44.5052 107.652C41.8791 107.779 35.593 104.773 33.3114 101.289C33.3114 103.864 34.9703 109.088 31.6382 106.743C28.2949 104.389 24.9566 96.7557 25.3682 85.8215C24.5775 78.8746 24.2214 50.8311 24.2492 47.6738C24.3225 39.3516 32.6339 20.6422 49.7094 17.6106C52.5917 17.0989 54.7534 18.6982 55.3939 19.2854C55.8743 18.6981 57.6357 17.7061 59.1569 17.9005C70.4435 19.343 78.1468 26.326 82.3755 42.3309C84.3342 49.7438 82.4397 74.9392 81.4148 80.2884C78.3724 78.6139 73.1681 88.6614 74.6093 82.6011Z" fill="#4D2909"/>
<path d="M41.223 46.0524C41.2229 41.1085 42.3439 34.2506 44.7458 30.1039C46.347 29.3596 50.3502 28.3177 49.0693 30.1039C47.7883 31.8901 47.4147 41.4804 47.9484 46.0524C46.3472 46.903 43.4646 47.0095 41.223 46.0524Z" fill="#4D2909"/>
<path d="M69.7257 46.0146C69.7257 38.3437 67.6444 33.0551 66.203 28.6151C59.4051 27.8738 45.4335 24.5999 46.8275 30.1294C48.2688 35.8454 48.2688 40.3109 49.784 46.0146C56.582 46.8619 60.2094 46.9678 69.7257 46.0146Z" fill="#4D2909"/>
<path d="M64.7501 28.8321C65.1604 28.4733 65.7851 28.5137 66.1454 28.9224C67.2349 30.1584 68.7512 32.7529 70.05 35.6491L70.1011 35.7636C71.6503 39.2428 72.7442 42.7905 73.1096 45.884C73.1734 46.4242 72.7855 46.9135 72.2432 46.9771C71.7009 47.0406 71.2095 46.6543 71.1457 46.1142C70.8063 43.2404 69.7684 39.8746 68.2935 36.562L68.1993 36.3517C66.9845 33.6611 65.584 31.2706 64.6594 30.2218C64.2992 29.8131 64.3398 29.1909 64.7501 28.8321Z" fill="#4D2909"/>
<path d="M83.6172 93.5257C84.1605 88.0201 82.31 79.8099 81.9097 71.9951C81.9097 71.9951 80.214 71.8356 79.8541 71.9951C79.494 72.1547 78.9329 72.3939 78.9329 72.3939C78.0525 74.8658 78.0128 77.4973 74.1697 82.9198C71.7594 86.3206 68.0047 88.8208 66.0031 89.9372C65.5227 95.6255 68.6002 100.834 67.2312 105.682C68.5122 106.32 72.2509 103.864 74.1697 101.895C74.1697 104.319 72.0636 107.5 74.1697 107.5C78.2529 107.5 82.7462 102.349 83.6172 93.5257Z" fill="#4D2909"/>
</g>
<defs>
<clipPath id="clip0_41_703">
<rect width="110" height="181" fill="white" transform="translate(0.5)"/>
</clipPath>
</defs>
</svg>
