<svg width="111" height="92" viewBox="0 0 111 92" fill="none" xmlns="http://www.w3.org/2000/svg">
<path d="M56.1505 75.4536L46.7399 61.4526H65.561L56.1505 75.4536Z" fill="#6A5AE0"/>
<rect x="15.1187" y="9.89832" width="80" height="54" rx="27" fill="#6A5AE0"/>
<path d="M35.4547 42.0743C34.9 42.0743 34.3507 42.005 33.8067 41.8663C33.2733 41.717 32.7827 41.5143 32.3347 41.2583C32.0893 41.1196 31.9187 40.9436 31.8227 40.7303C31.7267 40.517 31.6893 40.2983 31.7107 40.0743C31.732 39.8503 31.8067 39.653 31.9347 39.4823C32.0733 39.3116 32.2493 39.205 32.4627 39.1623C32.6867 39.1196 32.9373 39.1676 33.2147 39.3063C33.5667 39.509 33.9187 39.6583 34.2707 39.7543C34.6333 39.8396 35.0013 39.8823 35.3747 39.8823C36.0253 39.8823 36.5853 39.7596 37.0547 39.5143C37.5347 39.269 37.908 38.9063 38.1747 38.4263C38.452 37.9356 38.612 37.333 38.6547 36.6183L39.3587 37.1303H34.7187C34.388 37.1303 34.132 37.061 33.9507 36.9223C33.78 36.773 33.6947 36.5383 33.6947 36.2183C33.6947 35.909 33.78 35.6583 33.9507 35.4663C34.132 35.2743 34.388 35.1783 34.7187 35.1783H39.3587L38.6547 35.8663C38.6013 35.1516 38.4413 34.5596 38.1747 34.0903C37.9187 33.6103 37.556 33.2476 37.0867 33.0023C36.628 32.757 36.0787 32.6343 35.4387 32.6343C35.0653 32.6343 34.692 32.6823 34.3187 32.7783C33.956 32.8743 33.6093 33.013 33.2787 33.1943C33.0013 33.3436 32.7507 33.4023 32.5267 33.3703C32.3027 33.3276 32.116 33.2263 31.9667 33.0663C31.828 32.9063 31.7373 32.7196 31.6947 32.5063C31.6627 32.2823 31.6947 32.0636 31.7907 31.8503C31.8867 31.637 32.0573 31.461 32.3027 31.3223C32.7827 31.0343 33.3053 30.8156 33.8707 30.6663C34.4467 30.517 35.012 30.4423 35.5667 30.4423C36.7613 30.4423 37.78 30.6876 38.6227 31.1783C39.476 31.6583 40.1267 32.3303 40.5747 33.1943C41.0333 34.0583 41.2627 35.077 41.2627 36.2503C41.2627 37.1356 41.1293 37.9356 40.8627 38.6503C40.596 39.365 40.212 39.9783 39.7107 40.4903C39.22 40.9916 38.6173 41.381 37.9027 41.6583C37.188 41.9356 36.372 42.0743 35.4547 42.0743ZM43.9442 42.0103C43.6455 42.0103 43.4055 41.9303 43.2242 41.7703C43.0428 41.5996 42.9468 41.3863 42.9362 41.1303C42.9362 40.8743 43.0428 40.613 43.2562 40.3463L45.7362 37.3063V38.3943L43.4322 35.5783C43.2082 35.301 43.1015 35.0343 43.1122 34.7783C43.1228 34.5223 43.2188 34.3143 43.4002 34.1543C43.5815 33.9943 43.8215 33.9143 44.1202 33.9143C44.4082 33.9143 44.6482 33.9623 44.8402 34.0583C45.0322 34.1543 45.2135 34.3143 45.3842 34.5383L47.0962 36.7303H46.2482L47.9602 34.5383C48.1415 34.3143 48.3282 34.1543 48.5202 34.0583C48.7122 33.9623 48.9468 33.9143 49.2242 33.9143C49.5228 33.9143 49.7628 33.9996 49.9442 34.1703C50.1255 34.3303 50.2162 34.5383 50.2162 34.7943C50.2268 35.0503 50.1202 35.3116 49.8962 35.5783L47.5922 38.3943V37.3063L50.0882 40.3463C50.3122 40.6023 50.4188 40.8583 50.4082 41.1143C50.3975 41.3703 50.2962 41.5836 50.1042 41.7543C49.9228 41.925 49.6828 42.0103 49.3842 42.0103C49.0962 42.0103 48.8562 41.9623 48.6642 41.8663C48.4828 41.7596 48.3015 41.5996 48.1202 41.3863L46.2482 39.0023H47.0642L45.1922 41.3863C45.0215 41.589 44.8402 41.7436 44.6482 41.8503C44.4668 41.957 44.2322 42.0103 43.9442 42.0103ZM58.7633 42.0423C58.3686 42.0423 58.0646 41.9356 57.8513 41.7223C57.6486 41.509 57.5473 41.205 57.5473 40.8103V35.9143H55.4993V36.7943C55.4993 37.477 55.4513 38.0956 55.3553 38.6503C55.2593 39.205 55.1153 39.6956 54.9233 40.1223C54.7313 40.549 54.4859 40.9116 54.1873 41.2103C53.8886 41.4983 53.5313 41.7276 53.1153 41.8983C52.8379 42.0156 52.5873 42.0476 52.3633 41.9943C52.1393 41.941 51.9526 41.8396 51.8033 41.6903C51.6646 41.541 51.5739 41.365 51.5313 41.1623C51.4993 40.949 51.5259 40.741 51.6113 40.5383C51.7073 40.325 51.8779 40.1436 52.1233 39.9943C52.3579 39.8663 52.5499 39.701 52.6993 39.4983C52.8486 39.2956 52.9659 39.0556 53.0513 38.7783C53.1366 38.501 53.1953 38.197 53.2273 37.8663C53.2699 37.525 53.2913 37.141 53.2913 36.7143V35.4023C53.2913 34.965 53.4033 34.629 53.6273 34.3943C53.8619 34.1596 54.1979 34.0423 54.6353 34.0423H58.6193C59.0566 34.0423 59.3873 34.1596 59.6113 34.3943C59.8459 34.629 59.9633 34.965 59.9633 35.4023V40.8103C59.9633 41.205 59.8566 41.509 59.6433 41.7223C59.4406 41.9356 59.1473 42.0423 58.7633 42.0423ZM64.3849 42.0743C63.9262 42.0743 63.4729 42.021 63.0249 41.9143C62.5876 41.8076 62.2036 41.669 61.8729 41.4983C61.6596 41.4023 61.5102 41.2743 61.4249 41.1143C61.3502 40.9543 61.3236 40.789 61.3449 40.6183C61.3769 40.437 61.4462 40.2823 61.5529 40.1543C61.6596 40.0156 61.7929 39.925 61.9529 39.8823C62.1236 39.8396 62.3102 39.8663 62.5129 39.9623C62.7796 40.101 63.0569 40.2076 63.3449 40.2823C63.6436 40.357 63.9209 40.3943 64.1769 40.3943C64.6249 40.3943 65.0142 40.3196 65.3449 40.1703C65.6756 40.0103 65.9422 39.7756 66.1449 39.4663C66.3476 39.157 66.4702 38.773 66.5129 38.3143L66.8969 38.7623H63.7449C63.4462 38.7623 63.2116 38.693 63.0409 38.5543C62.8702 38.4156 62.7849 38.2076 62.7849 37.9303C62.7849 37.6636 62.8702 37.461 63.0409 37.3223C63.2116 37.1836 63.4462 37.1143 63.7449 37.1143H66.8969L66.5129 37.5943C66.4596 37.1356 66.3369 36.757 66.1449 36.4583C65.9529 36.1596 65.6916 35.9356 65.3609 35.7863C65.0302 35.6263 64.6356 35.5463 64.1769 35.5463C63.9209 35.5463 63.6436 35.5836 63.3449 35.6583C63.0462 35.733 62.7582 35.8396 62.4809 35.9783C62.2889 36.0636 62.1129 36.085 61.9529 36.0423C61.7929 35.9996 61.6596 35.9143 61.5529 35.7863C61.4462 35.6583 61.3822 35.5143 61.3609 35.3543C61.3396 35.1836 61.3662 35.0183 61.4409 34.8583C61.5262 34.6983 61.6756 34.565 61.8889 34.4583C62.2089 34.2876 62.5876 34.149 63.0249 34.0423C63.4622 33.9356 63.9156 33.8823 64.3849 33.8823C65.2702 33.8823 66.0382 34.0476 66.6889 34.3783C67.3396 34.6983 67.8409 35.1623 68.1929 35.7703C68.5449 36.3783 68.7209 37.1036 68.7209 37.9463C68.7209 38.5756 68.6196 39.1463 68.4169 39.6583C68.2249 40.1703 67.9369 40.6076 67.5529 40.9703C67.1689 41.3223 66.7102 41.5943 66.1769 41.7863C65.6542 41.9783 65.0569 42.0743 64.3849 42.0743ZM71.1317 42.0103C70.833 42.0103 70.593 41.9303 70.4117 41.7703C70.2303 41.5996 70.1343 41.3863 70.1237 41.1303C70.1237 40.8743 70.2303 40.613 70.4437 40.3463L72.9237 37.3063V38.3943L70.6197 35.5783C70.3957 35.301 70.289 35.0343 70.2997 34.7783C70.3103 34.5223 70.4063 34.3143 70.5877 34.1543C70.769 33.9943 71.009 33.9143 71.3077 33.9143C71.5957 33.9143 71.8357 33.9623 72.0277 34.0583C72.2197 34.1543 72.401 34.3143 72.5717 34.5383L74.2837 36.7303H73.4357L75.1477 34.5383C75.329 34.3143 75.5157 34.1543 75.7077 34.0583C75.8997 33.9623 76.1343 33.9143 76.4117 33.9143C76.7103 33.9143 76.9503 33.9996 77.1317 34.1703C77.313 34.3303 77.4037 34.5383 77.4037 34.7943C77.4143 35.0503 77.3077 35.3116 77.0837 35.5783L74.7797 38.3943V37.3063L77.2757 40.3463C77.4997 40.6023 77.6063 40.8583 77.5957 41.1143C77.585 41.3703 77.4837 41.5836 77.2917 41.7543C77.1103 41.925 76.8703 42.0103 76.5717 42.0103C76.2837 42.0103 76.0437 41.9623 75.8517 41.8663C75.6703 41.7596 75.489 41.5996 75.3077 41.3863L73.4357 39.0023H74.2517L72.3797 41.3863C72.209 41.589 72.0277 41.7436 71.8357 41.8503C71.6543 41.957 71.4197 42.0103 71.1317 42.0103Z" fill="white"/>
</svg>
