<svg width="349" height="67" viewBox="0 0 349 67" fill="none" xmlns="http://www.w3.org/2000/svg">
<rect x="0.854858" y="0.209473" width="347.182" height="66.4157" rx="33.2079" fill="#14172A"/>
<path d="M226.838 15.2681V47.0748" stroke="black" stroke-width="2" stroke-linecap="round"/>
<path d="M121.476 15.2681V47.0748" stroke="black" stroke-width="2" stroke-linecap="round"/>
<g opacity="0.6">
<g clip-path="url(#clip0_132_1335)">
<g clip-path="url(#clip1_132_1335)">
<path d="M264.815 11.6858H293.77C295.501 11.6858 296.904 13.0891 296.904 14.8201V34.9694C296.904 36.618 295.568 37.9544 293.919 37.9544H264.665C263.017 37.9544 261.68 36.618 261.68 34.9694V14.8201C261.68 13.0891 263.083 11.6858 264.815 11.6858Z" fill="#AAC0D8"/>
<path d="M293.609 13.4768H264.976C264.145 13.4768 263.471 14.1503 263.471 14.9811V35.2561C263.471 36.0869 264.145 36.7604 264.976 36.7604H293.609C294.439 36.7604 295.113 36.0869 295.113 35.2561V14.9811C295.113 14.1503 294.439 13.4768 293.609 13.4768Z" fill="#5C5B5B"/>
<path d="M291.973 15.2678H266.612C266.196 15.2678 265.86 15.6046 265.86 16.02V33.6201C265.86 34.0355 266.196 34.3723 266.612 34.3723H291.973C292.389 34.3723 292.725 34.0355 292.725 33.6201V16.02C292.725 15.6046 292.389 15.2678 291.973 15.2678Z" fill="white"/>
<path d="M292.725 33.6201C292.725 34.0355 292.389 34.3723 291.973 34.3723H266.612C266.196 34.3723 265.86 34.0355 265.86 33.6201V16.02C265.86 15.6046 266.196 15.2678 266.612 15.2678" fill="#F1F5F9"/>
<path d="M259.543 36.1633H299.042C299.18 36.1633 299.292 36.262 299.292 36.3837V38.1282C299.292 38.6916 298.774 39.1484 298.134 39.1484H260.451C259.811 39.1484 259.292 38.6916 259.292 38.1282V36.3837C259.292 36.262 259.405 36.1633 259.543 36.1633Z" fill="#AAC0D8"/>
<path d="M278.098 22.1335H280.486C280.981 22.1335 281.381 22.5345 281.381 23.0291V30.1932C281.381 30.6878 280.981 31.0888 280.486 31.0888H278.098C277.603 31.0888 277.202 30.6878 277.202 30.1932V23.0291C277.202 22.5345 277.603 22.1335 278.098 22.1335Z" fill="#78C800"/>
<path d="M284.068 18.5515H286.456C286.951 18.5515 287.352 18.9525 287.352 19.447V30.1933C287.352 30.6879 286.951 31.0888 286.456 31.0888H284.068C283.574 31.0888 283.173 30.6879 283.173 30.1933V19.447C283.173 18.9525 283.574 18.5515 284.068 18.5515Z" fill="#78C800"/>
<path d="M272.128 25.7156H274.516C275.011 25.7156 275.412 26.1165 275.412 26.6111V30.1932C275.412 30.6878 275.011 31.0887 274.516 31.0887H272.128C271.634 31.0887 271.233 30.6878 271.233 30.1932V26.6111C271.233 26.1165 271.634 25.7156 272.128 25.7156Z" fill="#78C800"/>
</g>
</g>
<path d="M253.709 52.5072C253.509 52.5072 253.342 52.4539 253.209 52.3472C253.082 52.2339 253.009 52.0972 252.989 51.9372C252.969 51.7706 253.022 51.6006 253.149 51.4272L255.359 48.4972V49.1872L253.239 46.3672C253.112 46.1872 253.055 46.0172 253.069 45.8572C253.089 45.6906 253.162 45.5539 253.289 45.4472C253.422 45.3339 253.585 45.2772 253.779 45.2772C253.945 45.2772 254.089 45.3172 254.209 45.3972C254.335 45.4772 254.462 45.6039 254.589 45.7772L256.239 48.0572H255.739L257.379 45.7772C257.505 45.5972 257.632 45.4706 257.759 45.3972C257.885 45.3172 258.032 45.2772 258.199 45.2772C258.399 45.2772 258.562 45.3306 258.689 45.4372C258.822 45.5439 258.895 45.6806 258.909 45.8472C258.929 46.0072 258.872 46.1806 258.739 46.3672L256.609 49.1872V48.4972L258.809 51.4272C258.942 51.6006 258.999 51.7706 258.979 51.9372C258.965 52.0972 258.892 52.2339 258.759 52.3472C258.632 52.4539 258.465 52.5072 258.259 52.5072C258.099 52.5072 257.955 52.4672 257.829 52.3872C257.709 52.3072 257.582 52.1772 257.449 51.9972L255.729 49.6272H256.239L254.519 51.9972C254.392 52.1772 254.265 52.3072 254.139 52.3872C254.012 52.4672 253.869 52.5072 253.709 52.5072ZM261.041 54.3072C260.867 54.3072 260.724 54.2606 260.611 54.1672C260.497 54.0739 260.431 53.9506 260.411 53.7972C260.391 53.6506 260.417 53.4939 260.491 53.3272L261.161 51.8472V52.4672L259.391 48.4072C259.324 48.2339 259.301 48.0739 259.321 47.9272C259.347 47.7739 259.421 47.6539 259.541 47.5672C259.667 47.4739 259.841 47.4272 260.061 47.4272C260.241 47.4272 260.384 47.4706 260.491 47.5572C260.604 47.6372 260.707 47.7939 260.801 48.0272L261.981 51.0272H261.661L262.881 48.0172C262.974 47.7906 263.077 47.6372 263.191 47.5572C263.311 47.4706 263.471 47.4272 263.671 47.4272C263.844 47.4272 263.981 47.4739 264.081 47.5672C264.187 47.6539 264.251 47.7706 264.271 47.9172C264.297 48.0639 264.271 48.2239 264.191 48.3972L261.841 53.7272C261.741 53.9539 261.627 54.1072 261.501 54.1872C261.381 54.2672 261.227 54.3072 261.041 54.3072ZM265.849 54.3072C265.602 54.3072 265.412 54.2406 265.279 54.1072C265.152 53.9806 265.089 53.7906 265.089 53.5372V48.1872C265.089 47.9406 265.152 47.7539 265.279 47.6272C265.412 47.4939 265.596 47.4272 265.829 47.4272C266.076 47.4272 266.262 47.4939 266.389 47.6272C266.516 47.7539 266.579 47.9406 266.579 48.1872V48.8672L266.469 48.4772C266.569 48.1572 266.769 47.9006 267.069 47.7072C267.376 47.5072 267.726 47.4072 268.119 47.4072C268.546 47.4072 268.919 47.5106 269.239 47.7172C269.566 47.9239 269.819 48.2172 269.999 48.5972C270.179 48.9772 270.269 49.4306 270.269 49.9572C270.269 50.4839 270.179 50.9406 269.999 51.3272C269.819 51.7139 269.569 52.0106 269.249 52.2172C268.929 52.4239 268.552 52.5272 268.119 52.5272C267.732 52.5272 267.389 52.4339 267.089 52.2472C266.789 52.0539 266.586 51.8039 266.479 51.4972H266.599V53.5372C266.599 53.7906 266.532 53.9806 266.399 54.1072C266.272 54.2406 266.089 54.3072 265.849 54.3072ZM267.669 51.3972C267.882 51.3972 268.069 51.3439 268.229 51.2372C268.396 51.1306 268.522 50.9739 268.609 50.7672C268.702 50.5539 268.749 50.2839 268.749 49.9572C268.749 49.4706 268.649 49.1139 268.449 48.8872C268.249 48.6539 267.989 48.5372 267.669 48.5372C267.456 48.5372 267.266 48.5872 267.099 48.6872C266.939 48.7872 266.812 48.9439 266.719 49.1572C266.626 49.3639 266.579 49.6306 266.579 49.9572C266.579 50.4439 266.679 50.8072 266.879 51.0472C267.079 51.2806 267.342 51.3972 267.669 51.3972ZM271.949 52.5072C271.795 52.5072 271.665 52.4772 271.559 52.4172C271.452 52.3572 271.372 52.2706 271.319 52.1572C271.272 52.0372 271.249 51.8839 271.249 51.6972V48.1472C271.249 47.9139 271.309 47.7372 271.429 47.6172C271.549 47.4906 271.715 47.4272 271.929 47.4272C272.149 47.4272 272.315 47.4906 272.429 47.6172C272.549 47.7372 272.609 47.9139 272.609 48.1472V50.8372H272.339L274.549 47.9072C274.629 47.8006 274.732 47.6939 274.859 47.5872C274.985 47.4806 275.165 47.4272 275.399 47.4272C275.552 47.4272 275.679 47.4572 275.779 47.5172C275.885 47.5706 275.962 47.6572 276.009 47.7772C276.062 47.8906 276.089 48.0406 276.089 48.2272V51.7872C276.089 52.0139 276.029 52.1906 275.909 52.3172C275.795 52.4439 275.632 52.5072 275.419 52.5072C275.192 52.5072 275.019 52.4439 274.899 52.3172C274.785 52.1906 274.729 52.0139 274.729 51.7872V49.0872H275.009L272.789 52.0172C272.709 52.1306 272.605 52.2406 272.479 52.3472C272.359 52.4539 272.182 52.5072 271.949 52.5072ZM277.971 52.5072C277.758 52.5072 277.594 52.4472 277.481 52.3272C277.368 52.2006 277.311 52.0239 277.311 51.7972V48.2572C277.311 48.0772 277.334 47.9272 277.381 47.8072C277.428 47.6806 277.504 47.5872 277.611 47.5272C277.718 47.4606 277.848 47.4272 278.001 47.4272C278.148 47.4272 278.271 47.4506 278.371 47.4972C278.471 47.5439 278.558 47.6072 278.631 47.6872C278.704 47.7672 278.771 47.8606 278.831 47.9672L280.161 50.1872L281.481 47.9772C281.534 47.8772 281.594 47.7872 281.661 47.7072C281.734 47.6272 281.821 47.5606 281.921 47.5072C282.028 47.4539 282.154 47.4272 282.301 47.4272C282.541 47.4272 282.718 47.5006 282.831 47.6472C282.944 47.7872 283.001 47.9906 283.001 48.2572V51.7972C283.001 52.0239 282.944 52.2006 282.831 52.3272C282.718 52.4472 282.551 52.5072 282.331 52.5072C282.124 52.5072 281.961 52.4472 281.841 52.3272C281.728 52.2006 281.671 52.0239 281.671 51.7972V49.2572H281.921L280.661 51.3572C280.614 51.4306 280.554 51.5006 280.481 51.5672C280.408 51.6339 280.301 51.6672 280.161 51.6672C280.021 51.6672 279.914 51.6339 279.841 51.5672C279.768 51.5006 279.704 51.4306 279.651 51.3572L278.381 49.2572H278.631V51.7972C278.631 52.0239 278.574 52.2006 278.461 52.3272C278.348 52.4472 278.184 52.5072 277.971 52.5072ZM286.003 52.5072C285.763 52.5072 285.576 52.4406 285.443 52.3072C285.316 52.1739 285.253 51.9839 285.253 51.7372V48.6872H284.173C283.753 48.6872 283.543 48.4906 283.543 48.0972C283.543 47.9106 283.596 47.7672 283.703 47.6672C283.816 47.5606 283.973 47.5072 284.173 47.5072H287.833C288.259 47.5072 288.473 47.7039 288.473 48.0972C288.473 48.2906 288.416 48.4372 288.303 48.5372C288.196 48.6372 288.039 48.6872 287.833 48.6872H286.763V51.7372C286.763 51.9839 286.699 52.1739 286.573 52.3072C286.446 52.4406 286.256 52.5072 286.003 52.5072ZM292.977 52.5072C292.73 52.5072 292.54 52.4406 292.407 52.3072C292.28 52.1739 292.217 51.9839 292.217 51.7372V48.6772H290.937V49.2272C290.937 49.6539 290.907 50.0406 290.847 50.3872C290.787 50.7339 290.697 51.0406 290.577 51.3072C290.457 51.5739 290.303 51.8006 290.117 51.9872C289.93 52.1672 289.707 52.3106 289.447 52.4172C289.273 52.4906 289.117 52.5106 288.977 52.4772C288.837 52.4439 288.72 52.3806 288.627 52.2872C288.54 52.1939 288.483 52.0839 288.457 51.9572C288.437 51.8239 288.453 51.6939 288.507 51.5672C288.567 51.4339 288.673 51.3206 288.827 51.2272C288.973 51.1472 289.093 51.0439 289.187 50.9172C289.28 50.7906 289.353 50.6406 289.407 50.4672C289.46 50.2939 289.497 50.1039 289.517 49.8972C289.543 49.6839 289.557 49.4439 289.557 49.1772V48.3572C289.557 48.0839 289.627 47.8739 289.767 47.7272C289.913 47.5806 290.123 47.5072 290.397 47.5072H292.887C293.16 47.5072 293.367 47.5806 293.507 47.7272C293.653 47.8739 293.727 48.0839 293.727 48.3572V51.7372C293.727 51.9839 293.66 52.1739 293.527 52.3072C293.4 52.4406 293.217 52.5072 292.977 52.5072ZM296.61 52.5272C296.25 52.5272 295.927 52.4572 295.64 52.3172C295.354 52.1772 295.13 51.9872 294.97 51.7472C294.81 51.5072 294.73 51.2372 294.73 50.9372C294.73 50.5772 294.824 50.2939 295.01 50.0872C295.197 49.8739 295.5 49.7239 295.92 49.6372C296.34 49.5439 296.897 49.4972 297.59 49.4972H298.12V50.2772H297.6C297.26 50.2772 296.984 50.2972 296.77 50.3372C296.564 50.3706 296.414 50.4306 296.32 50.5172C296.234 50.6039 296.19 50.7239 296.19 50.8772C296.19 51.0639 296.254 51.2172 296.38 51.3372C296.514 51.4572 296.704 51.5172 296.95 51.5172C297.144 51.5172 297.314 51.4739 297.46 51.3872C297.614 51.2939 297.734 51.1706 297.82 51.0172C297.907 50.8572 297.95 50.6772 297.95 50.4772V49.3272C297.95 49.0339 297.884 48.8272 297.75 48.7072C297.617 48.5806 297.39 48.5172 297.07 48.5172C296.89 48.5172 296.694 48.5406 296.48 48.5872C296.274 48.6272 296.044 48.6972 295.79 48.7972C295.644 48.8639 295.514 48.8806 295.4 48.8472C295.287 48.8072 295.2 48.7406 295.14 48.6472C295.08 48.5472 295.05 48.4406 295.05 48.3272C295.05 48.2072 295.084 48.0939 295.15 47.9872C295.217 47.8739 295.327 47.7906 295.48 47.7372C295.794 47.6106 296.087 47.5239 296.36 47.4772C296.64 47.4306 296.897 47.4072 297.13 47.4072C297.644 47.4072 298.064 47.4839 298.39 47.6372C298.724 47.7839 298.974 48.0139 299.14 48.3272C299.307 48.6339 299.39 49.0306 299.39 49.5172V51.7372C299.39 51.9839 299.33 52.1739 299.21 52.3072C299.09 52.4406 298.917 52.5072 298.69 52.5072C298.464 52.5072 298.287 52.4406 298.16 52.3072C298.04 52.1739 297.98 51.9839 297.98 51.7372V51.3672L298.05 51.4272C298.01 51.6539 297.924 51.8506 297.79 52.0172C297.664 52.1772 297.5 52.3039 297.3 52.3972C297.1 52.4839 296.87 52.5272 296.61 52.5272ZM304.613 52.5072C304.366 52.5072 304.176 52.4406 304.043 52.3072C303.916 52.1739 303.853 51.9839 303.853 51.7372V48.6772H302.573V49.2272C302.573 49.6539 302.543 50.0406 302.483 50.3872C302.423 50.7339 302.333 51.0406 302.213 51.3072C302.093 51.5739 301.939 51.8006 301.753 51.9872C301.566 52.1672 301.343 52.3106 301.083 52.4172C300.909 52.4906 300.753 52.5106 300.613 52.4772C300.473 52.4439 300.356 52.3806 300.263 52.2872C300.176 52.1939 300.119 52.0839 300.093 51.9572C300.073 51.8239 300.089 51.6939 300.143 51.5672C300.203 51.4339 300.309 51.3206 300.463 51.2272C300.609 51.1472 300.729 51.0439 300.823 50.9172C300.916 50.7906 300.989 50.6406 301.043 50.4672C301.096 50.2939 301.133 50.1039 301.153 49.8972C301.179 49.6839 301.193 49.4439 301.193 49.1772V48.3572C301.193 48.0839 301.263 47.8739 301.403 47.7272C301.549 47.5806 301.759 47.5072 302.033 47.5072H304.523C304.796 47.5072 305.003 47.5806 305.143 47.7272C305.289 47.8739 305.363 48.0839 305.363 48.3572V51.7372C305.363 51.9839 305.296 52.1739 305.163 52.3072C305.036 52.4406 304.853 52.5072 304.613 52.5072Z" fill="white"/>
</g>
<g clip-path="url(#clip2_132_1335)">
<g clip-path="url(#clip3_132_1335)">
<path d="M177.333 37.9441H171.559C171.089 37.9441 170.708 38.3248 170.708 38.7944V40.5222C170.708 40.9918 171.089 41.3725 171.559 41.3725H177.333C177.803 41.3725 178.184 40.9918 178.184 40.5222V38.7944C178.184 38.3248 177.803 37.9441 177.333 37.9441Z" fill="#1899D6"/>
<path d="M158.1 12.23H190.791C191.242 12.23 191.675 12.409 191.994 12.7279C192.313 13.0468 192.493 13.4794 192.493 13.9306V38.8147C192.493 39.754 191.731 40.5153 190.792 40.5153H158.1C157.649 40.5153 157.217 40.3363 156.897 40.0174C156.578 39.6985 156.399 39.2658 156.399 38.8147V13.9306C156.399 12.9915 157.161 12.2304 158.1 12.2304V12.23Z" fill="#1899D6"/>
<path d="M176.692 36.0151H172.199C171.73 36.0151 171.349 36.3958 171.349 36.8654V37.9506C171.349 38.4202 171.73 38.8009 172.199 38.8009H176.692C177.162 38.8009 177.543 38.4202 177.543 37.9506V36.8654C177.543 36.3958 177.162 36.0151 176.692 36.0151Z" fill="#D2E4E8"/>
<path d="M158.748 32.1584H190.357V36.8792C190.357 37.1049 190.268 37.3214 190.108 37.481C189.948 37.6405 189.732 37.7301 189.506 37.73H159.599C159.373 37.73 159.157 37.6404 158.997 37.4808C158.838 37.3212 158.748 37.1048 158.748 36.8792V32.1584Z" fill="#D2E4E8"/>
<path d="M190.357 34.7299H177.529C175.885 34.7299 174.552 36.0626 174.552 37.7065C174.552 36.0626 173.22 34.7299 171.576 34.7299H158.748V14.1518C158.748 13.6821 159.128 13.301 159.598 13.301H171.575C172.364 13.301 173.121 13.6146 173.68 14.1728C174.238 14.7311 174.551 15.4882 174.551 16.2776C174.551 15.4881 174.865 14.7309 175.423 14.1727C175.982 13.6144 176.739 13.301 177.528 13.301H189.506C189.976 13.301 190.357 13.6821 190.357 14.1518L190.357 34.7299Z" fill="white"/>
<path d="M171.779 15.4441H161.095C160.742 15.4441 160.457 15.7297 160.457 16.0821V16.7346C160.457 17.0869 160.742 17.3725 161.095 17.3725H171.779C172.131 17.3725 172.417 17.0869 172.417 16.7346V16.0821C172.417 15.7297 172.131 15.4441 171.779 15.4441Z" fill="#D2E4E8"/>
<path d="M171.779 24.23H161.095C160.742 24.23 160.457 24.5156 160.457 24.8679V25.5204C160.457 25.8728 160.742 26.1584 161.095 26.1584H171.779C172.131 26.1584 172.417 25.8728 172.417 25.5204V24.8679C172.417 24.5156 172.131 24.23 171.779 24.23Z" fill="#D2E4E8"/>
<path d="M169.429 19.9441H161.095C160.742 19.9441 160.457 20.2297 160.457 20.5821V21.2346C160.457 21.5869 160.742 21.8725 161.095 21.8725H169.429C169.782 21.8725 170.067 21.5869 170.067 21.2346V20.5821C170.067 20.2297 169.782 19.9441 169.429 19.9441Z" fill="#D2E4E8"/>
<path d="M169.429 28.5151H161.095C160.742 28.5151 160.457 28.8008 160.457 29.1531V29.8056C160.457 30.1579 160.742 30.4436 161.095 30.4436H169.429C169.782 30.4436 170.067 30.1579 170.067 29.8056V29.1531C170.067 28.8008 169.782 28.5151 169.429 28.5151Z" fill="#D2E4E8"/>
<path d="M163.87 11.3726H168.789C169.141 11.3726 169.426 11.6585 169.426 12.0101V27.4366C169.426 27.6667 169.303 27.8791 169.103 27.9925C168.902 28.1058 168.657 28.1024 168.459 27.9837L166.564 26.8422C166.355 26.7165 166.093 26.7205 165.889 26.8526L164.216 27.9312C164.02 28.0579 163.77 28.0672 163.565 27.9555C163.36 27.8438 163.233 27.6289 163.233 27.3954V12.0101C163.233 11.658 163.519 11.3726 163.87 11.3726Z" fill="#FF4B4B"/>
<path d="M188.224 15.4441H177.54C177.188 15.4441 176.902 15.7297 176.902 16.0821V16.7346C176.902 17.0869 177.188 17.3725 177.54 17.3725H188.224C188.577 17.3725 188.862 17.0869 188.862 16.7346V16.0821C188.862 15.7297 188.577 15.4441 188.224 15.4441Z" fill="#D2E4E8"/>
<path d="M188.224 24.23H177.54C177.188 24.23 176.902 24.5156 176.902 24.8679V25.5204C176.902 25.8728 177.188 26.1584 177.54 26.1584H188.224C188.577 26.1584 188.862 25.8728 188.862 25.5204V24.8679C188.862 24.5156 188.577 24.23 188.224 24.23Z" fill="#D2E4E8"/>
<path d="M185.875 19.9441H177.54C177.188 19.9441 176.902 20.2297 176.902 20.5821V21.2346C176.902 21.5869 177.188 21.8725 177.54 21.8725H185.875C186.227 21.8725 186.513 21.5869 186.513 21.2346V20.5821C186.513 20.2297 186.227 19.9441 185.875 19.9441Z" fill="#D2E4E8"/>
<path d="M185.875 28.5151H177.54C177.188 28.5151 176.902 28.8008 176.902 29.1531V29.8056C176.902 30.1579 177.188 30.4436 177.54 30.4436H185.875C186.227 30.4436 186.513 30.1579 186.513 29.8056V29.1531C186.513 28.8008 186.227 28.5151 185.875 28.5151Z" fill="#D2E4E8"/>
</g>
</g>
<path d="M161.351 53.4626C161.164 53.4626 161.011 53.4192 160.891 53.3326C160.777 53.2459 160.704 53.1292 160.671 52.9826C160.644 52.8359 160.674 52.6726 160.761 52.4926L163.321 46.8826C163.427 46.6559 163.554 46.4926 163.701 46.3926C163.847 46.2859 164.017 46.2326 164.211 46.2326C164.404 46.2326 164.574 46.2859 164.721 46.3926C164.867 46.4926 164.991 46.6559 165.091 46.8826L167.671 52.4926C167.757 52.6726 167.787 52.8392 167.761 52.9926C167.741 53.1392 167.674 53.2559 167.561 53.3426C167.447 53.4226 167.301 53.4626 167.121 53.4626C166.894 53.4626 166.717 53.4092 166.591 53.3026C166.471 53.1959 166.364 53.0292 166.271 52.8026L165.671 51.4126L166.291 51.8426H162.121L162.741 51.4126L162.151 52.8026C162.051 53.0359 161.944 53.2059 161.831 53.3126C161.724 53.4126 161.564 53.4626 161.351 53.4626ZM164.191 47.9726L162.911 51.0226L162.641 50.6326H165.771L165.501 51.0226L164.211 47.9726H164.191ZM172.13 53.4626C171.89 53.4626 171.703 53.3959 171.57 53.2626C171.443 53.1292 171.38 52.9392 171.38 52.6926V51.4526H170.95C170.83 51.4526 170.723 51.4692 170.63 51.5026C170.543 51.5292 170.463 51.5792 170.39 51.6526C170.316 51.7192 170.243 51.8192 170.17 51.9526L169.57 53.0326C169.476 53.2059 169.356 53.3226 169.21 53.3826C169.07 53.4426 168.926 53.4592 168.78 53.4326C168.633 53.4059 168.503 53.3492 168.39 53.2626C168.283 53.1692 168.213 53.0526 168.18 52.9126C168.153 52.7659 168.186 52.6092 168.28 52.4426L168.82 51.4726C168.926 51.2859 169.04 51.1226 169.16 50.9826C169.28 50.8426 169.413 50.7292 169.56 50.6426C169.706 50.5559 169.866 50.5026 170.04 50.4826L169.77 50.9726L168.68 49.4526C168.566 49.2992 168.513 49.1526 168.52 49.0126C168.526 48.8726 168.573 48.7526 168.66 48.6526C168.753 48.5459 168.863 48.4726 168.99 48.4326C169.123 48.3926 169.26 48.3959 169.4 48.4426C169.54 48.4826 169.663 48.5792 169.77 48.7326L170.9 50.2926H171.38V49.1526C171.38 48.9059 171.443 48.7159 171.57 48.5826C171.703 48.4492 171.89 48.3826 172.13 48.3826C172.37 48.3826 172.556 48.4492 172.69 48.5826C172.823 48.7159 172.89 48.9059 172.89 49.1526V50.2926H173.37L174.49 48.7326C174.596 48.5792 174.72 48.4792 174.86 48.4326C175.006 48.3859 175.143 48.3826 175.27 48.4226C175.403 48.4626 175.513 48.5359 175.6 48.6426C175.686 48.7426 175.733 48.8626 175.74 49.0026C175.746 49.1426 175.696 49.2926 175.59 49.4526L174.49 50.9726L174.21 50.4826C174.39 50.5026 174.553 50.5559 174.7 50.6426C174.846 50.7292 174.98 50.8426 175.1 50.9826C175.226 51.1159 175.34 51.2792 175.44 51.4726L175.98 52.4426C176.066 52.6092 176.093 52.7659 176.06 52.9126C176.033 53.0526 175.963 53.1692 175.85 53.2626C175.743 53.3492 175.616 53.4059 175.47 53.4326C175.33 53.4592 175.186 53.4426 175.04 53.3826C174.9 53.3226 174.783 53.2059 174.69 53.0326L174.09 51.9526C174.016 51.8192 173.943 51.7159 173.87 51.6426C173.796 51.5692 173.716 51.5192 173.63 51.4926C173.543 51.4659 173.436 51.4526 173.31 51.4526H172.89V52.6926C172.89 52.9392 172.823 53.1292 172.69 53.2626C172.556 53.3959 172.37 53.4626 172.13 53.4626ZM177.645 53.4626C177.492 53.4626 177.362 53.4326 177.255 53.3726C177.149 53.3126 177.069 53.2259 177.015 53.1126C176.969 52.9926 176.945 52.8392 176.945 52.6526V49.1026C176.945 48.8692 177.005 48.6926 177.125 48.5726C177.245 48.4459 177.412 48.3826 177.625 48.3826C177.845 48.3826 178.012 48.4459 178.125 48.5726C178.245 48.6926 178.305 48.8692 178.305 49.1026V51.7926H178.035L180.245 48.8626C180.325 48.7559 180.429 48.6492 180.555 48.5426C180.682 48.4359 180.862 48.3826 181.095 48.3826C181.249 48.3826 181.375 48.4126 181.475 48.4726C181.582 48.5259 181.659 48.6126 181.705 48.7326C181.759 48.8459 181.785 48.9959 181.785 49.1826V52.7426C181.785 52.9692 181.725 53.1459 181.605 53.2726C181.492 53.3992 181.329 53.4626 181.115 53.4626C180.889 53.4626 180.715 53.3992 180.595 53.2726C180.482 53.1459 180.425 52.9692 180.425 52.7426V50.0426H180.705L178.485 52.9726C178.405 53.0859 178.302 53.1959 178.175 53.3026C178.055 53.4092 177.879 53.4626 177.645 53.4626ZM187.038 53.4626C186.791 53.4626 186.601 53.3959 186.468 53.2626C186.341 53.1292 186.278 52.9392 186.278 52.6926V49.6326H184.998V50.1826C184.998 50.6092 184.968 50.9959 184.908 51.3426C184.848 51.6892 184.758 51.9959 184.638 52.2626C184.518 52.5292 184.364 52.7559 184.178 52.9426C183.991 53.1226 183.768 53.2659 183.508 53.3726C183.334 53.4459 183.178 53.4659 183.038 53.4326C182.898 53.3992 182.781 53.3359 182.688 53.2426C182.601 53.1492 182.544 53.0392 182.518 52.9126C182.498 52.7792 182.514 52.6492 182.568 52.5226C182.628 52.3892 182.734 52.2759 182.888 52.1826C183.034 52.1026 183.154 51.9992 183.248 51.8726C183.341 51.7459 183.414 51.5959 183.468 51.4226C183.521 51.2492 183.558 51.0592 183.578 50.8526C183.604 50.6392 183.618 50.3992 183.618 50.1326V49.3126C183.618 49.0392 183.688 48.8292 183.828 48.6826C183.974 48.5359 184.184 48.4626 184.458 48.4626H186.948C187.221 48.4626 187.428 48.5359 187.568 48.6826C187.714 48.8292 187.788 49.0392 187.788 49.3126V52.6926C187.788 52.9392 187.721 53.1292 187.588 53.2626C187.461 53.3959 187.278 53.4626 187.038 53.4626Z" fill="white"/>
<g opacity="0.6">
<path d="M78.8778 34.683C78.5809 36.2415 77.2183 37.3691 75.6318 37.3691H64.9327C63.3461 37.3691 61.9835 36.2415 61.6867 34.683L59.2736 22.0141L70.1927 13.9395L81.2914 22.0113L78.8778 34.683Z" fill="#FFC800"/>
<path opacity="0.5" fill-rule="evenodd" clip-rule="evenodd" d="M67.4484 32.5284C67.4484 31.9393 67.9259 31.4617 68.515 31.4617H72.7817C73.3708 31.4617 73.8484 31.9393 73.8484 32.5284C73.8484 33.1175 73.3708 33.5951 72.7817 33.5951H68.515C67.9259 33.5951 67.4484 33.1175 67.4484 32.5284Z" fill="#945151"/>
<path d="M73.7711 25.7171C73.7711 27.6381 72.2138 29.1953 70.2928 29.1953C68.3718 29.1953 66.8146 27.6381 66.8146 25.7171C66.8146 23.7961 68.3718 22.2388 70.2928 22.2388C72.2138 22.2388 73.7711 23.7961 73.7711 25.7171Z" fill="#945151"/>
<path d="M70.4611 12.2619C70.9357 12.2596 71.4159 12.4032 71.8287 12.7028L84.2381 21.6492C85.2707 22.3995 85.4996 23.8448 84.7494 24.8774C83.9993 25.9097 82.5546 26.1388 81.522 25.3892L70.4528 17.4091L59.3847 25.3885L59.3838 25.3892C58.3513 26.1386 56.9066 25.9096 56.1565 24.8772C55.4063 23.8446 55.6352 22.3993 56.6678 21.6491L56.6694 21.6479L69.0765 12.7032C69.4941 12.4001 69.9813 12.2562 70.4611 12.2619Z" fill="#FF4B4B"/>
<path d="M59.501 53.5072C59.2476 53.5072 59.0543 53.4372 58.921 53.2972C58.7876 53.1572 58.721 52.9606 58.721 52.7072V47.0772C58.721 46.8239 58.7876 46.6272 58.921 46.4872C59.0543 46.3472 59.2476 46.2772 59.501 46.2772C59.7476 46.2772 59.9376 46.3472 60.071 46.4872C60.2043 46.6272 60.271 46.8239 60.271 47.0772V49.1972H63.551V47.0772C63.551 46.8239 63.6176 46.6272 63.751 46.4872C63.8843 46.3472 64.0743 46.2772 64.321 46.2772C64.5743 46.2772 64.7676 46.3472 64.901 46.4872C65.0343 46.6272 65.101 46.8239 65.101 47.0772V52.7072C65.101 52.9606 65.0343 53.1572 64.901 53.2972C64.7676 53.4372 64.5743 53.5072 64.321 53.5072C64.0743 53.5072 63.8843 53.4372 63.751 53.2972C63.6176 53.1572 63.551 52.9606 63.551 52.7072V50.4872H60.271V52.7072C60.271 52.9606 60.2043 53.1572 60.071 53.2972C59.9443 53.4372 59.7543 53.5072 59.501 53.5072ZM68.4237 55.3072C68.1837 55.3072 67.997 55.2406 67.8637 55.1072C67.7304 54.9806 67.6637 54.7906 67.6637 54.5372V53.1772L66.0237 49.4072C65.9504 49.2339 65.927 49.0739 65.9537 48.9272C65.9804 48.7739 66.0537 48.6539 66.1737 48.5672C66.3004 48.4739 66.4704 48.4272 66.6837 48.4272C66.8637 48.4272 67.0104 48.4706 67.1237 48.5572C67.237 48.6372 67.337 48.7939 67.4237 49.0272L68.6037 52.0272H68.2937L69.5137 49.0172C69.6004 48.7906 69.7004 48.6372 69.8137 48.5572C69.9337 48.4706 70.0904 48.4272 70.2837 48.4272C70.457 48.4272 70.597 48.4739 70.7037 48.5672C70.8104 48.6539 70.877 48.7706 70.9037 48.9172C70.9304 49.0639 70.9037 49.2239 70.8237 49.3972L69.1737 53.1172V54.5372C69.1737 55.0506 68.9237 55.3072 68.4237 55.3072ZM73.7241 55.3072C73.4841 55.3072 73.2974 55.2406 73.1641 55.1072C73.0308 54.9806 72.9641 54.7906 72.9641 54.5372V53.1772L71.3241 49.4072C71.2508 49.2339 71.2274 49.0739 71.2541 48.9272C71.2808 48.7739 71.3541 48.6539 71.4741 48.5672C71.6008 48.4739 71.7708 48.4272 71.9841 48.4272C72.1641 48.4272 72.3108 48.4706 72.4241 48.5572C72.5374 48.6372 72.6374 48.7939 72.7241 49.0272L73.9041 52.0272H73.5941L74.8141 49.0172C74.9008 48.7906 75.0008 48.6372 75.1141 48.5572C75.2341 48.4706 75.3908 48.4272 75.5841 48.4272C75.7574 48.4272 75.8974 48.4739 76.0041 48.5672C76.1108 48.6539 76.1774 48.7706 76.2041 48.9172C76.2308 49.0639 76.2041 49.2239 76.1241 49.3972L74.4741 53.1172V54.5372C74.4741 55.0506 74.2241 55.3072 73.7241 55.3072ZM77.7345 55.3072C77.4878 55.3072 77.2978 55.2406 77.1645 55.1072C77.0378 54.9806 76.9745 54.7906 76.9745 54.5372V49.1872C76.9745 48.9406 77.0378 48.7539 77.1645 48.6272C77.2978 48.4939 77.4811 48.4272 77.7145 48.4272C77.9611 48.4272 78.1478 48.4939 78.2745 48.6272C78.4011 48.7539 78.4645 48.9406 78.4645 49.1872V49.8672L78.3545 49.4772C78.4545 49.1572 78.6545 48.9006 78.9545 48.7072C79.2611 48.5072 79.6111 48.4072 80.0045 48.4072C80.4311 48.4072 80.8045 48.5106 81.1245 48.7172C81.4511 48.9239 81.7045 49.2172 81.8845 49.5972C82.0645 49.9772 82.1545 50.4306 82.1545 50.9572C82.1545 51.4839 82.0645 51.9406 81.8845 52.3272C81.7045 52.7139 81.4545 53.0106 81.1345 53.2172C80.8145 53.4239 80.4378 53.5272 80.0045 53.5272C79.6178 53.5272 79.2745 53.4339 78.9745 53.2472C78.6745 53.0539 78.4711 52.8039 78.3645 52.4972H78.4845V54.5372C78.4845 54.7906 78.4178 54.9806 78.2845 55.1072C78.1578 55.2406 77.9745 55.3072 77.7345 55.3072ZM79.5545 52.3972C79.7678 52.3972 79.9545 52.3439 80.1145 52.2372C80.2811 52.1306 80.4078 51.9739 80.4945 51.7672C80.5878 51.5539 80.6345 51.2839 80.6345 50.9572C80.6345 50.4706 80.5345 50.1139 80.3345 49.8872C80.1345 49.6539 79.8745 49.5372 79.5545 49.5372C79.3411 49.5372 79.1511 49.5872 78.9845 49.6872C78.8245 49.7872 78.6978 49.9439 78.6045 50.1572C78.5111 50.3639 78.4645 50.6306 78.4645 50.9572C78.4645 51.4439 78.5645 51.8072 78.7645 52.0472C78.9645 52.2806 79.2278 52.3972 79.5545 52.3972Z" fill="white"/>
</g>
<defs>
<clipPath id="clip0_132_1335">
<rect width="40" height="30" fill="white" transform="translate(259.292 10.4172)"/>
</clipPath>
<clipPath id="clip1_132_1335">
<rect width="40" height="27.4627" fill="white" transform="translate(259.292 11.6858)"/>
</clipPath>
<clipPath id="clip2_132_1335">
<rect width="40" height="30" fill="white" transform="translate(154.446 11.3726)"/>
</clipPath>
<clipPath id="clip3_132_1335">
<rect width="36.0938" height="30" fill="white" transform="translate(156.399 11.3726)"/>
</clipPath>
</defs>
</svg>
