<svg width="390" height="845" viewBox="0 0 390 845" fill="none" xmlns="http://www.w3.org/2000/svg">
<rect width="390" height="844" transform="translate(0 0.489594)" fill="#14172A"/>
<g opacity="0.8">
<path opacity="0.1" fill-rule="evenodd" clip-rule="evenodd" d="M353.905 824.066C363.203 824.066 370.74 815.972 370.74 805.988C370.74 796.004 363.203 787.911 353.905 787.911C344.608 787.911 337.071 796.004 337.071 805.988C337.071 815.972 344.608 824.066 353.905 824.066Z" fill="#C4D0FB"/>
<path opacity="0.1" fill-rule="evenodd" clip-rule="evenodd" d="M77.1042 825.603C82.1482 825.603 86.2372 821.212 86.2372 815.796C86.2372 810.379 82.1482 805.988 77.1042 805.988C72.0602 805.988 67.9712 810.379 67.9712 815.796C67.9712 821.212 72.0602 825.603 77.1042 825.603Z" fill="#C4D0FB"/>
<path opacity="0.1" fill-rule="evenodd" clip-rule="evenodd" d="M221.713 676.564C226.757 676.564 230.846 672.173 230.846 666.757C230.846 661.34 226.757 656.949 221.713 656.949C216.669 656.949 212.58 661.34 212.58 666.757C212.58 672.173 216.669 676.564 221.713 676.564Z" fill="#C4D0FB"/>
<path d="M171.527 773.411C172.716 769.71 177.953 769.71 179.143 773.411L182.472 783.77C183.004 785.424 184.543 786.546 186.281 786.546H197.146C201.01 786.546 202.628 791.482 199.514 793.77L190.649 800.28C189.262 801.299 188.682 803.09 189.209 804.728L192.577 815.208C193.764 818.901 189.528 821.952 186.401 819.656L177.703 813.267C176.294 812.232 174.376 812.232 172.967 813.267L164.269 819.656C161.142 821.952 156.906 818.901 158.093 815.208L161.461 804.728C161.987 803.09 161.407 801.299 160.021 800.28L151.156 793.77C148.041 791.482 149.659 786.546 153.524 786.546H164.389C166.127 786.546 167.666 785.424 168.197 783.77L171.527 773.411Z" fill="#26293F"/>
<path d="M306.242 652.257C307.431 648.556 312.668 648.556 313.858 652.257L317.187 662.616C317.719 664.27 319.258 665.392 320.995 665.392H331.861C335.725 665.392 337.343 670.328 334.229 672.616L325.364 679.126C323.977 680.145 323.397 681.936 323.924 683.574L327.292 694.054C328.479 697.747 324.242 700.798 321.116 698.502L312.418 692.113C311.009 691.078 309.091 691.078 307.682 692.113L298.983 698.502C295.857 700.798 291.62 697.747 292.807 694.054L296.176 683.574C296.702 681.936 296.122 680.145 294.736 679.126L285.871 672.616C282.756 670.328 284.374 665.392 288.239 665.392H299.104C300.842 665.392 302.381 664.27 302.912 662.616L306.242 652.257Z" fill="#26293F"/>
<path d="M111.602 630.564C112.791 626.863 118.028 626.863 119.218 630.564L122.547 640.923C123.079 642.577 124.618 643.699 126.355 643.699H137.221C141.085 643.699 142.703 648.635 139.589 650.923L130.724 657.433C129.337 658.452 128.757 660.243 129.284 661.881L132.652 672.361C133.839 676.054 129.602 679.105 126.476 676.809L117.777 670.42C116.368 669.385 114.451 669.385 113.042 670.42L104.343 676.809C101.217 679.105 96.9804 676.054 98.1673 672.361L101.536 661.881C102.062 660.243 101.482 658.452 100.095 657.433L91.2307 650.923C88.1161 648.635 89.7341 643.699 93.5985 643.699H104.464C106.202 643.699 107.74 642.577 108.272 640.923L111.602 630.564Z" fill="#26293F"/>
<path d="M34.0515 730.586C34.9879 727.146 39.8687 727.146 40.8051 730.586C41.2197 732.11 42.603 733.167 44.1819 733.167H44.4373C47.9855 733.167 49.6298 737.572 46.9496 739.897L45.9111 740.798C44.7601 741.796 44.2827 743.366 44.6828 744.836L45.1702 746.627C46.053 749.871 42.1973 752.294 39.6578 750.091C38.3786 748.981 36.478 748.981 35.1988 750.091C32.6593 752.294 28.8036 749.871 29.6863 746.627L30.1737 744.836C30.5738 743.366 30.0964 741.796 28.9454 740.798L27.907 739.897C25.2268 737.572 26.8711 733.167 30.4192 733.167H30.6747C32.2535 733.167 33.6369 732.11 34.0515 730.586Z" fill="#26293F"/>
</g>
<g opacity="0.8">
<path opacity="0.1" fill-rule="evenodd" clip-rule="evenodd" d="M358.152 151.491C363.675 151.491 368.152 147.013 368.152 141.491C368.152 135.968 363.675 131.491 358.152 131.491C352.629 131.491 348.152 135.968 348.152 141.491C348.152 147.013 352.629 151.491 358.152 151.491Z" fill="#C4D0FB"/>
<path opacity="0.1" fill-rule="evenodd" clip-rule="evenodd" d="M190.413 184.451C195.373 184.451 199.394 180.783 199.394 176.259C199.394 171.735 195.373 168.067 190.413 168.067C185.453 168.067 181.432 171.735 181.432 176.259C181.432 180.783 185.453 184.451 190.413 184.451Z" fill="#C4D0FB"/>
<path d="M52.0605 106.159C53.2579 102.474 58.4716 102.474 59.669 106.159L61.7021 112.416C62.2376 114.064 63.7734 115.18 65.5063 115.18H72.0857C75.9606 115.18 77.5717 120.139 74.4368 122.416L69.114 126.283C67.7121 127.302 67.1254 129.107 67.6609 130.756L69.6941 137.013C70.8915 140.698 66.6736 143.763 63.5387 141.485L58.2159 137.618C56.8139 136.599 54.9156 136.599 53.5136 137.618L48.1908 141.485C45.0559 143.763 40.838 140.698 42.0354 137.013L44.0686 130.756C44.604 129.107 44.0174 127.302 42.6155 126.283L37.2926 122.416C34.1578 120.139 35.7689 115.18 39.6438 115.18H46.2232C47.9561 115.18 49.4919 114.064 50.0274 112.416L52.0605 106.159Z" fill="#26293F"/>
<path d="M340.835 71.6407C341.407 69.8812 343.897 69.8812 344.468 71.6407C344.724 72.4276 345.457 72.9604 346.285 72.9604C348.135 72.9604 348.904 75.3278 347.407 76.4153C346.738 76.9016 346.458 77.7636 346.713 78.5505C347.285 80.3101 345.271 81.7733 343.774 80.6858C343.105 80.1995 342.199 80.1995 341.529 80.6858C340.033 81.7733 338.019 80.3101 338.59 78.5505C338.846 77.7636 338.566 76.9016 337.897 76.4153C336.4 75.3278 337.169 72.9604 339.019 72.9604C339.847 72.9604 340.58 72.4276 340.835 71.6407Z" fill="#26293F"/>
<path d="M196.084 76.3327C196.874 73.4587 200.95 73.4587 201.741 76.3327C202.091 77.6059 203.249 78.4882 204.569 78.4882H204.77C207.738 78.4882 209.105 82.1795 206.853 84.1121L206.037 84.8118C205.067 85.6441 204.665 86.9614 205.004 88.1937L205.39 89.5962C206.138 92.3151 202.913 94.3592 200.773 92.5229C199.703 91.6042 198.122 91.6042 197.051 92.5229C194.911 94.3592 191.687 92.3151 192.435 89.5962L192.821 88.1937C193.16 86.9614 192.757 85.6441 191.787 84.8118L190.972 84.1121C188.72 82.1795 190.087 78.4882 193.054 78.4882H193.255C194.576 78.4882 195.733 77.6059 196.084 76.3327Z" fill="#26293F"/>
</g>
<g opacity="0.8">
<path opacity="0.1" fill-rule="evenodd" clip-rule="evenodd" d="M150.788 229.077C151.502 223.601 147.642 218.582 142.165 217.868C136.689 217.153 131.67 221.014 130.956 226.49C130.242 231.967 134.102 236.986 139.579 237.7C145.055 238.414 150.074 234.553 150.788 229.077Z" fill="#C4D0FB"/>
<path opacity="0.1" fill-rule="evenodd" clip-rule="evenodd" d="M161.778 399.67C162.42 394.752 159.303 390.29 154.817 389.705C150.331 389.12 146.174 392.633 145.533 397.552C144.891 402.47 148.008 406.932 152.494 407.517C156.98 408.102 161.137 404.589 161.778 399.67Z" fill="#C4D0FB"/>
<path d="M66.2516 526.735C62.7521 525.071 63.4264 519.902 67.2355 519.191L73.7033 517.984C75.4068 517.666 76.7119 516.288 76.936 514.569L77.7869 508.045C78.288 504.203 83.4132 503.246 85.2662 506.649L88.4126 512.428C89.2413 513.95 90.9558 514.765 92.6593 514.447L99.127 513.24C102.936 512.529 105.429 517.108 102.766 519.922L98.2424 524.7C97.0511 525.959 96.8056 527.841 97.6343 529.363L100.781 535.141C102.634 538.544 99.0495 542.33 95.5501 540.667L89.6082 537.841C88.0432 537.097 86.177 537.445 84.9857 538.704L80.4625 543.482C77.7986 546.296 73.0902 544.057 73.5913 540.215L74.4422 533.69C74.6663 531.972 73.7584 530.305 72.1934 529.561L66.2516 526.735Z" fill="#26293F"/>
<path d="M69.3692 235.921C67.6983 235.127 68.0203 232.658 69.839 232.319C70.6523 232.167 71.2754 231.509 71.3824 230.689C71.6217 228.854 74.0688 228.398 74.9535 230.022C75.3492 230.749 76.1678 231.138 76.9811 230.986C78.7998 230.647 79.9903 232.833 78.7184 234.177C78.1495 234.778 78.0323 235.676 78.428 236.403C79.3128 238.028 77.6014 239.836 75.9306 239.041C75.1834 238.686 74.2924 238.852 73.7236 239.453C72.4517 240.797 70.2036 239.728 70.4428 237.893C70.5498 237.073 70.1164 236.277 69.3692 235.921Z" fill="#26293F"/>
<path d="M55.3019 380.065C52.5542 378.909 53.0813 374.867 56.0335 374.455C57.3413 374.272 58.366 373.238 58.5367 371.929L58.5627 371.73C58.9465 368.787 62.7836 367.909 64.4086 370.392L64.997 371.291C65.6969 372.361 66.9511 372.93 68.2169 372.753L69.6575 372.552C72.4503 372.162 74.0603 375.624 71.9626 377.508C70.9132 378.451 70.7087 380.019 71.4813 381.199C73.0254 383.558 70.5814 386.491 67.9822 385.398L66.6413 384.834C65.4632 384.339 64.1049 384.567 63.1541 385.421L62.3549 386.14C60.1473 388.123 56.6637 386.29 57.0475 383.348L57.0735 383.148C57.2443 381.839 56.5191 380.577 55.3019 380.065Z" fill="#26293F"/>
</g>
</svg>
