<svg width="33" height="33" viewBox="0 0 33 33" fill="none" xmlns="http://www.w3.org/2000/svg">
<path d="M24.8522 25.5718C24.5553 27.1303 23.1927 28.2579 21.6062 28.2579H10.9071C9.3205 28.2579 7.95791 27.1303 7.66105 25.5718L5.24792 12.9029L16.1671 4.82822L27.2658 12.9001L24.8522 25.5718Z" fill="#FFC800"/>
<path opacity="0.5" fill-rule="evenodd" clip-rule="evenodd" d="M13.4227 23.4171C13.4227 22.828 13.9002 22.3504 14.4893 22.3504H18.756C19.3451 22.3504 19.8227 22.828 19.8227 23.4171C19.8227 24.0062 19.3451 24.4838 18.756 24.4838H14.4893C13.9002 24.4838 13.4227 24.0062 13.4227 23.4171Z" fill="#945151"/>
<path d="M19.7454 16.6058C19.7454 18.5268 18.1881 20.084 16.2671 20.084C14.3461 20.084 12.7889 18.5268 12.7889 16.6058C12.7889 14.6848 14.3461 13.1275 16.2671 13.1275C18.1881 13.1275 19.7454 14.6848 19.7454 16.6058Z" fill="#945151"/>
<path d="M16.4355 3.15059C16.9101 3.14828 17.3903 3.29186 17.8031 3.59155L30.2125 12.5379C31.2451 13.2882 31.474 14.7335 30.7238 15.7661C29.9737 16.7984 28.529 17.0275 27.4964 16.2779L16.4272 8.29782L5.35905 16.2772L5.35818 16.2779C4.32562 17.0273 2.88092 16.7983 2.13088 15.7659C1.38064 14.7333 1.60955 13.288 2.64217 12.5378L2.64376 12.5366L15.0509 3.59193C15.4685 3.28878 15.9557 3.14486 16.4355 3.15059Z" fill="#FF4B4B"/>
</svg>
