<svg width="37" height="31" viewBox="0 0 37 31" fill="none" xmlns="http://www.w3.org/2000/svg">
<g clip-path="url(#clip0_132_1356)">
<path d="M21.3333 26.9441H15.5588C15.0892 26.9441 14.7085 27.3248 14.7085 27.7944V29.5222C14.7085 29.9918 15.0892 30.3725 15.5588 30.3725H21.3333C21.803 30.3725 22.1837 29.9918 22.1837 29.5222V27.7944C22.1837 27.3248 21.803 26.9441 21.3333 26.9441Z" fill="#1899D6"/>
<path d="M2.10002 1.22998H34.7911C35.2423 1.22998 35.675 1.40896 35.9941 1.72789C36.3132 2.04682 36.4927 2.47945 36.4927 2.93061V27.8147C36.4927 28.754 35.7309 29.5153 34.7916 29.5153H2.10049C1.64933 29.5153 1.2166 29.3363 0.897496 29.0174C0.578391 28.6985 0.398926 28.2658 0.398926 27.8147V2.93061C0.399443 1.99148 1.1609 1.23045 2.10002 1.23045V1.22998Z" fill="#1899D6"/>
<path d="M20.6924 25.0151H16.1994C15.7298 25.0151 15.3491 25.3958 15.3491 25.8654V26.9506C15.3491 27.4202 15.7298 27.8009 16.1994 27.8009H20.6924C21.162 27.8009 21.5427 27.4202 21.5427 26.9506V25.8654C21.5427 25.3958 21.162 25.0151 20.6924 25.0151Z" fill="#D2E4E8"/>
<path d="M2.74829 21.1584H34.357V25.8792C34.357 26.1049 34.2676 26.3214 34.108 26.481C33.9484 26.6405 33.7319 26.7301 33.5063 26.73H3.5986C3.37301 26.73 3.15665 26.6404 2.99718 26.4808C2.8377 26.3212 2.74829 26.1048 2.74829 25.8792V21.1584Z" fill="#D2E4E8"/>
<path d="M34.3568 23.7299H21.529C19.8851 23.7299 18.5524 25.0626 18.5524 26.7065C18.5524 25.0626 17.2197 23.7299 15.5758 23.7299H2.74756V3.15181C2.74756 2.68212 3.12818 2.30103 3.59787 2.30103H15.5749C16.3643 2.30103 17.1214 2.61463 17.6796 3.17284C18.2379 3.73105 18.5515 4.48815 18.5515 5.27759C18.5515 4.48807 18.8651 3.7309 19.4234 3.17267C19.9818 2.61445 20.739 2.30103 21.5285 2.30103H33.5065C33.9762 2.30103 34.3572 2.68212 34.3572 3.15181L34.3568 23.7299Z" fill="white"/>
<path d="M15.7787 4.44409H5.09451C4.74217 4.44409 4.45654 4.72972 4.45654 5.08206V5.73456C4.45654 6.0869 4.74217 6.37253 5.09451 6.37253H15.7787C16.1311 6.37253 16.4167 6.0869 16.4167 5.73456V5.08206C16.4167 4.72972 16.1311 4.44409 15.7787 4.44409Z" fill="#D2E4E8"/>
<path d="M15.7787 13.23H5.09451C4.74217 13.23 4.45654 13.5156 4.45654 13.8679V14.5204C4.45654 14.8728 4.74217 15.1584 5.09451 15.1584H15.7787C16.1311 15.1584 16.4167 14.8728 16.4167 14.5204V13.8679C16.4167 13.5156 16.1311 13.23 15.7787 13.23Z" fill="#D2E4E8"/>
<path d="M13.4294 8.94409H5.09451C4.74217 8.94409 4.45654 9.22972 4.45654 9.58206V10.2346C4.45654 10.5869 4.74217 10.8725 5.09451 10.8725H13.4294C13.7817 10.8725 14.0673 10.5869 14.0673 10.2346V9.58206C14.0673 9.22972 13.7817 8.94409 13.4294 8.94409Z" fill="#D2E4E8"/>
<path d="M13.4294 17.5151H5.09451C4.74217 17.5151 4.45654 17.8008 4.45654 18.1531V18.8056C4.45654 19.1579 4.74217 19.4436 5.09451 19.4436H13.4294C13.7817 19.4436 14.0673 19.1579 14.0673 18.8056V18.1531C14.0673 17.8008 13.7817 17.5151 13.4294 17.5151Z" fill="#D2E4E8"/>
<path d="M7.87041 0.372559H12.7885C13.141 0.372559 13.426 0.658496 13.426 1.01006V16.4366C13.4264 16.6667 13.3028 16.8791 13.1025 16.9925C12.9023 17.1058 12.6565 17.1024 12.4595 16.9837L10.5638 15.8422C10.3553 15.7165 10.0934 15.7205 9.88885 15.8526L8.21635 16.9312C8.02021 17.0579 7.77048 17.0672 7.56542 16.9555C7.36037 16.8438 7.2328 16.6289 7.23291 16.3954V1.01006C7.23291 0.658027 7.51885 0.372559 7.87041 0.372559Z" fill="#FF4B4B"/>
<path d="M32.2243 4.44409H21.5401C21.1877 4.44409 20.9021 4.72972 20.9021 5.08206V5.73456C20.9021 6.0869 21.1877 6.37253 21.5401 6.37253H32.2243C32.5766 6.37253 32.8623 6.0869 32.8623 5.73456V5.08206C32.8623 4.72972 32.5766 4.44409 32.2243 4.44409Z" fill="#D2E4E8"/>
<path d="M32.2243 13.23H21.5401C21.1877 13.23 20.9021 13.5156 20.9021 13.8679V14.5204C20.9021 14.8728 21.1877 15.1584 21.5401 15.1584H32.2243C32.5766 15.1584 32.8623 14.8728 32.8623 14.5204V13.8679C32.8623 13.5156 32.5766 13.23 32.2243 13.23Z" fill="#D2E4E8"/>
<path d="M29.8749 8.94409H21.5401C21.1877 8.94409 20.9021 9.22972 20.9021 9.58206V10.2346C20.9021 10.5869 21.1877 10.8725 21.5401 10.8725H29.8749C30.2273 10.8725 30.5129 10.5869 30.5129 10.2346V9.58206C30.5129 9.22972 30.2273 8.94409 29.8749 8.94409Z" fill="#D2E4E8"/>
<path d="M29.8749 17.5151H21.5401C21.1877 17.5151 20.9021 17.8008 20.9021 18.1531V18.8056C20.9021 19.1579 21.1877 19.4436 21.5401 19.4436H29.8749C30.2273 19.4436 30.5129 19.1579 30.5129 18.8056V18.1531C30.5129 17.8008 30.2273 17.5151 29.8749 17.5151Z" fill="#D2E4E8"/>
</g>
<defs>
<clipPath id="clip0_132_1356">
<rect width="36.0938" height="30" fill="white" transform="translate(0.398926 0.372559)"/>
</clipPath>
</defs>
</svg>
