<svg width="33" height="32" viewBox="0 0 33 32" fill="none" xmlns="http://www.w3.org/2000/svg">
<mask id="mask0_49_1974" style="mask-type:alpha" maskUnits="userSpaceOnUse" x="0" y="0" width="33" height="32">
<rect x="0.5" width="32" height="32" rx="12" fill="#6A5AE0"/>
</mask>
<g mask="url(#mask0_49_1974)">
<path d="M33.5293 23.1192C33.5292 27.6068 31.7322 31.9106 28.5336 35.0839C25.335 38.2571 20.9968 40.0398 16.4733 40.04C16.24 40.04 16.0111 40.0356 15.7779 40.0269C14.7689 39.986 13.766 39.8572 12.7806 39.6423C12.5385 39.5895 12.5021 39.2666 12.7195 39.1477C12.7363 39.1386 12.753 39.1294 12.7697 39.1201C12.7767 39.1163 12.7845 39.1133 12.7913 39.1092C12.7925 39.1085 12.7937 39.1078 12.7951 39.107C12.797 39.106 12.7988 39.1047 12.8003 39.1032V39.1032C12.8017 39.1018 12.8033 39.1007 12.805 39.0998C13.0462 38.9692 13.283 38.8387 13.5155 38.7038C13.5727 38.6688 13.6299 38.6383 13.6871 38.6077C13.9072 38.4767 14.1273 38.3457 14.343 38.206C14.4067 38.1717 14.4684 38.1338 14.5278 38.0924C14.6951 37.992 14.8623 37.8828 15.0252 37.7737C15.1396 37.6994 15.2585 37.6208 15.3685 37.5466C15.5358 37.4331 15.6986 37.3195 15.8615 37.2016C15.9715 37.1274 16.0728 37.0532 16.1784 36.9702C16.3193 36.8741 16.4557 36.7694 16.5921 36.6646C16.7154 36.5772 16.8342 36.4855 16.9531 36.3894C17.1203 36.2628 17.2832 36.1318 17.446 35.9921C17.5165 35.9397 17.5869 35.8829 17.6573 35.8218C17.8334 35.6777 18.005 35.5292 18.1767 35.3764C18.2691 35.2978 18.3616 35.2192 18.454 35.1319C18.5552 35.0445 18.6521 34.9572 18.7489 34.8655C18.9338 34.6996 19.1142 34.5249 19.2947 34.3502C19.3189 34.3306 19.341 34.3087 19.3607 34.2847C19.5368 34.1188 19.7084 33.9441 19.8757 33.7695C19.9945 33.6559 20.1046 33.538 20.2102 33.4201C20.3379 33.2935 20.4567 33.1625 20.5756 33.0315C20.646 32.9573 20.712 32.883 20.7736 32.8088C20.9321 32.6341 21.0861 32.4551 21.2402 32.2761C21.3194 32.1844 21.3986 32.0883 21.4735 31.9922C21.5879 31.8612 21.698 31.7302 21.7992 31.5949C21.9048 31.4682 22.0061 31.3372 22.1029 31.2062C22.1953 31.0927 22.2834 30.9748 22.367 30.8613C22.4814 30.7128 22.5915 30.5643 22.6971 30.4115C22.8027 30.2587 22.9172 30.1058 23.0228 29.9486C23.0752 29.8801 23.1237 29.8086 23.1681 29.7347C23.3177 29.5163 23.463 29.2936 23.6038 29.0709C23.7843 28.7958 23.9559 28.5164 24.1188 28.2325C24.1936 28.1103 24.2641 27.988 24.3345 27.8657C24.9053 26.867 25.4139 25.8345 25.8574 24.7741C25.9234 24.6257 25.9851 24.4772 26.0423 24.3244C26.1127 24.1628 26.1743 23.9969 26.236 23.8309C26.2888 23.6956 26.3416 23.5558 26.39 23.4161C26.4472 23.2633 26.5 23.1061 26.5529 22.9532C26.7465 22.3943 26.9226 21.831 27.0767 21.259C27.1163 21.1149 27.1559 20.9752 27.1911 20.8311C27.2175 20.7394 27.2395 20.652 27.2615 20.5603L27.3672 20.1149C27.508 19.508 27.6268 18.8966 27.7281 18.2766L27.7941 17.8574C27.8029 17.7919 27.8117 17.7307 27.8205 17.6652C27.8469 17.4993 27.8689 17.3334 27.8865 17.1674C27.9173 16.9185 27.9482 16.6696 27.9702 16.4207C27.979 16.3552 27.9834 16.2897 27.9878 16.2242C28.0054 16.0539 28.0186 15.8793 28.0318 15.709C28.045 15.5387 28.0538 15.3596 28.0626 15.185C28.0714 15.0627 28.0758 14.9404 28.0802 14.8138C28.0978 14.4121 28.1066 14.0103 28.1066 13.6086C28.1066 13.4034 28.1066 13.2025 28.0978 13.0016C28.0978 12.8968 28.0978 12.7964 28.0934 12.6916C28.0802 12.3292 28.0626 11.9711 28.0362 11.613L28.0362 11.5999C28.0318 11.5126 28.0274 11.4253 28.0186 11.3379C28.001 11.0978 27.979 10.862 27.957 10.6218V10.6218C27.9571 10.6167 27.9654 10.6116 27.9692 10.615C28.556 11.1466 29.1049 11.7179 29.6119 12.3248L29.6252 12.3379V12.3379C29.6298 12.3424 29.6318 12.3493 29.6359 12.3543C32.1586 15.3827 33.5358 19.1903 33.5293 23.1192Z" fill="#FF8FA2"/>
<path d="M28.0893 13.5306C28.0916 18.7541 26.672 23.8811 23.9806 28.3689C21.291 32.8538 17.4312 36.5337 12.8093 39.0197C12.8034 39.0228 12.7984 39.0274 12.793 39.0312C12.7898 39.0334 12.7862 39.0352 12.7824 39.0365C12.7798 39.0373 12.7774 39.0386 12.7755 39.0405V39.0405C12.7745 39.0414 12.7734 39.0422 12.7722 39.0429C12.709 39.0767 12.6458 39.1102 12.5826 39.1434C12.2651 39.3103 11.8954 39.3523 11.5516 39.25C10.3093 38.8804 9.11395 38.3681 7.98996 37.7231C7.25357 37.3019 6.54991 36.8272 5.8847 36.3029C5.6003 36.0788 5.5798 35.6602 5.82217 35.3912V35.3912V35.3912C5.82496 35.3884 5.82642 35.3844 5.82866 35.3811C5.83003 35.3792 5.8319 35.3772 5.83387 35.3752C5.83482 35.3743 5.83611 35.3737 5.83746 35.3737V35.3737C5.83889 35.3737 5.84027 35.3731 5.84123 35.3721C10.6519 30.0614 13.3086 23.1676 13.2973 16.0241C13.298 12.9472 12.8085 9.88951 11.8468 6.96455C11.8464 6.96352 11.8455 6.96282 11.8444 6.96282V6.96282C11.843 6.96282 11.8419 6.96168 11.8417 6.96029C11.8411 6.95327 11.8382 6.94624 11.8376 6.93922C11.8375 6.93778 11.8363 6.93661 11.8349 6.93661V6.93661C11.8338 6.93661 11.8328 6.93592 11.8324 6.93488C11.8307 6.92953 11.8295 6.924 11.8289 6.91839C11.8287 6.91599 11.8283 6.91361 11.8275 6.91132C11.8203 6.88931 11.813 6.8673 11.8056 6.84529C11.6879 6.49168 11.9474 6.12001 12.3201 6.12001L16.4677 6.12001C20.373 6.11464 24.1503 7.44517 27.1717 9.87072C27.6757 10.2753 27.9767 10.8769 28.0189 11.5218V11.5218C28.0673 12.1856 28.0893 12.8537 28.0893 13.5306Z" fill="#9087E5"/>
<path d="M13.3 15.984C13.3 16.2766 13.2957 16.5692 13.287 16.8574C13.2826 17.0451 13.2739 17.2286 13.2651 17.4163C13.2302 18.1674 13.1648 18.9142 13.0688 19.6565C13.047 19.8487 13.0208 20.0364 12.9903 20.2242C12.9597 20.4556 12.9205 20.6827 12.8812 20.9142C12.8463 21.1325 12.8071 21.3465 12.7634 21.5648C12.7547 21.6172 12.7416 21.6696 12.7329 21.722C12.698 21.9011 12.6587 22.0845 12.6195 22.2635C12.4145 23.1942 12.1626 24.1138 11.8647 25.019C11.808 25.198 11.7469 25.3727 11.6858 25.543C11.6805 25.564 11.6732 25.5845 11.664 25.6041C11.6029 25.7832 11.5419 25.9535 11.4764 26.1282C11.459 26.1806 11.4372 26.2373 11.4153 26.2941C11.3455 26.4819 11.2714 26.6653 11.1972 26.8487C11.1143 27.0583 11.0271 27.2679 10.9354 27.4732C10.8438 27.6871 10.7479 27.9011 10.6519 28.1151C10.5603 28.3116 10.4643 28.5081 10.3727 28.7002C10.2723 28.9055 10.172 29.1064 10.0673 29.3029C9.96256 29.4994 9.85786 29.7002 9.74879 29.8968C9.63972 30.0933 9.53065 30.2898 9.42159 30.4819C9.31252 30.674 9.19473 30.8706 9.07693 31.0627C8.95914 31.2548 8.84135 31.4426 8.71919 31.6304C8.47924 32.0059 8.23057 32.3771 7.97317 32.7396C7.71577 33.102 7.44528 33.4601 7.17479 33.8138C6.76516 34.3329 6.34104 34.8389 5.90238 35.3318C5.90143 35.3328 5.90005 35.3335 5.89861 35.3335V35.3335C5.89727 35.3335 5.89597 35.334 5.89504 35.3349C5.89215 35.3379 5.89215 35.3384 5.89215 35.3422C5.89215 35.3433 5.89172 35.3445 5.89089 35.3453V35.3453C5.8893 35.3468 5.88696 35.3475 5.8855 35.3491C5.83887 35.4013 5.79181 35.4534 5.74446 35.5054C5.57249 35.6943 5.28121 35.7095 5.0921 35.5378C4.53771 35.0344 4.01705 34.4947 3.53361 33.9222C3.52669 33.914 3.52109 33.9047 3.51418 33.8966V33.8966C3.50902 33.8905 3.50317 33.885 3.49803 33.8789C0.93727 30.8346 -0.464876 26.9814 -0.459948 23.0015L-0.459948 13.1609C-0.459948 9.25022 2.71026 6.08002 6.62091 6.08002L10.9508 6.08002C11.3215 6.08002 11.6558 6.31051 11.7719 6.66263C11.7944 6.73088 11.8164 6.79935 11.8378 6.86811C11.8383 6.86962 11.8391 6.871 11.8402 6.87212V6.87212C11.8419 6.87383 11.8429 6.87611 11.8432 6.87851C11.8438 6.88409 11.8449 6.88959 11.8467 6.89491C11.847 6.89593 11.848 6.89662 11.8491 6.89662V6.89662C11.8505 6.89662 11.8516 6.89776 11.8516 6.89917L11.8516 6.90971C11.8514 6.91208 11.8516 6.91448 11.8523 6.91675C11.8529 6.91852 11.8538 6.92018 11.855 6.92164C11.8556 6.92242 11.8565 6.92281 11.8575 6.92281V6.92281C11.8592 6.92281 11.8606 6.92395 11.861 6.92556C11.8645 6.93963 11.8694 6.9533 11.8756 6.96638C11.877 6.96937 11.8783 6.97243 11.8793 6.9756L11.9301 7.14115C12.0785 7.60404 12.2137 8.07129 12.3359 8.54728C12.4231 8.86606 12.5017 9.19356 12.5758 9.52107C12.7111 10.115 12.8289 10.722 12.9292 11.3377C12.951 11.4862 12.9772 11.6303 12.9946 11.7787C13.047 12.1412 13.095 12.5036 13.1343 12.8704C13.1517 13.0058 13.1648 13.1456 13.1735 13.2809C13.1997 13.5342 13.2171 13.7919 13.2346 14.0451C13.2782 14.6871 13.3 15.3333 13.3 15.984Z" fill="#C4D0FB"/>
</g>
<rect x="0.5" width="32" height="28.8" rx="12" fill="#BAB0FF"/>
<path d="M13.7676 21.4401C13.261 21.4401 12.8676 21.3001 12.5876 21.0201C12.321 20.7401 12.1876 20.3534 12.1876 19.8601V8.88006C12.1876 8.36006 12.321 7.96673 12.5876 7.70006C12.8543 7.4334 13.241 7.30006 13.7476 7.30006C14.241 7.30006 14.621 7.4334 14.8876 7.70006C15.1543 7.96673 15.2876 8.36006 15.2876 8.88006V18.8201H20.6476C21.0743 18.8201 21.401 18.9334 21.6276 19.1601C21.8676 19.3867 21.9876 19.7067 21.9876 20.1201C21.9876 20.5467 21.8676 20.8734 21.6276 21.1001C21.401 21.3267 21.0743 21.4401 20.6476 21.4401H13.7676Z" fill="white"/>
</svg>
