<svg width="81" height="90" viewBox="0 0 81 90" fill="none" xmlns="http://www.w3.org/2000/svg">
<g clip-path="url(#clip0_36_555)">
<g clip-path="url(#clip1_36_555)">
<path opacity="0.3" d="M76.72 38.001H4.71997C2.51083 38.001 0.719971 39.7918 0.719971 42.001V74.001C0.719971 76.2101 2.51083 78.001 4.71997 78.001H76.72C78.9291 78.001 80.72 76.2101 80.72 74.001V42.001C80.72 39.7918 78.9291 38.001 76.72 38.001Z" fill="#AFAFAF"/>
<path d="M9.00879 39.7376C9.00879 34.2011 13.497 29.7129 19.0335 29.7129H61.4757C67.0122 29.7129 71.5004 34.2011 71.5004 39.7376V66.3213C71.5004 68.5359 69.7051 70.3312 67.4905 70.3312H13.0187C10.8041 70.3312 9.00879 68.5359 9.00879 66.3213V39.7376Z" fill="#9A9A9A"/>
<path d="M6.84204 25.2284C6.84204 19.6919 11.3303 15.2037 16.8668 15.2037H63.9829C69.5194 15.2037 74.0077 19.6919 74.0077 25.2284V55.052H6.84204V25.2284Z" fill="#9A9A9A"/>
<path d="M77.6385 42.7726H3.82959V54.301H77.6385V42.7726Z" fill="#D8D8D8"/>
<path d="M67.741 25.478H75.6375C76.7448 25.478 77.6424 26.3756 77.6424 27.4829V45.778H67.741V25.478Z" fill="#D8D8D8"/>
<path d="M3.82959 27.4829C3.82959 26.3756 4.72723 25.478 5.83453 25.478H12.2272C13.3345 25.478 14.2322 26.3756 14.2322 27.4829V43.7731C14.2322 44.8804 13.3345 45.778 12.2272 45.778H5.83453C4.72723 45.778 3.82959 44.8804 3.82959 43.7731V27.4829Z" fill="#D8D8D8"/>
<path d="M6.84204 14.0059C6.84204 12.8986 7.73968 12.001 8.84698 12.001H19.3729C20.4802 12.001 21.3779 12.8986 21.3779 14.0059V34.5037H6.84204V14.0059Z" fill="#D8D8D8"/>
<path d="M59.4724 14.0059C59.4724 12.8986 60.3701 12.001 61.4774 12.001H72.0033C73.1106 12.001 74.0083 12.8986 74.0083 14.0059V34.5037H59.4724V14.0059Z" fill="#D8D8D8"/>
<path d="M6.97363 24.1456L21.3218 20.5733V33.2232L6.97363 33.0474V24.1456Z" fill="#EDEDED"/>
<path d="M6.84204 31.726H21.3779V46.2207H6.84204V31.726Z" fill="#BFBFBF"/>
<path d="M6.84204 52.5446C6.84204 51.4373 7.73968 50.5396 8.84698 50.5396H19.3729C20.4802 50.5396 21.3779 51.4373 21.3779 52.5446V70.3913C21.3779 71.4986 20.4802 72.3963 19.3729 72.3963H8.84698C7.73968 72.3963 6.84204 71.4986 6.84204 70.3913V52.5446Z" fill="#BFBFBF"/>
<path d="M58.1548 52.5446C58.1548 51.4373 59.0525 50.5396 60.1598 50.5396H70.6857C71.793 50.5396 72.6907 51.4373 72.6907 52.5446V70.3913C72.6907 71.4986 71.793 72.3963 70.6857 72.3963H60.1598C59.0525 72.3963 58.1548 71.4986 58.1548 70.3913V52.5446Z" fill="#BFBFBF"/>
<path d="M74.0082 31.726H59.4724V46.2207H74.0082V31.726Z" fill="#BFBFBF"/>
<path d="M43.182 49.9138H37.6685V59.6252H43.182V49.9138Z" fill="#C4C4C4"/>
<path d="M21.3778 55.3089H6.84204V60.1959H21.3778V55.3089Z" fill="#9A9A9A"/>
<path d="M72.6906 55.3089H58.1548V60.1959H72.6906V55.3089Z" fill="#9A9A9A"/>
<path d="M58.1512 63.819H21.373V66.4505H58.1512V63.819Z" fill="#898989"/>
<path d="M59.4669 23.6405H21.373V26.272H59.4669V23.6405Z" fill="#898989"/>
<path opacity="0.92" d="M58.1512 55.3089H21.373V60.1959H58.1512V55.3089Z" fill="#888888"/>
<path opacity="0.92" d="M59.4669 35.3057H21.373V42.7713H59.4669V35.3057Z" fill="#898989"/>
<path d="M3.82959 46.2169H77.6385V55.3018C77.6385 56.4091 76.7408 57.3068 75.6335 57.3068H5.83453C4.72723 57.3068 3.82959 56.4091 3.82959 55.3018V46.2169Z" fill="#BFBFBF"/>
<path d="M47.5644 38.384H32.6527C30.9917 38.384 29.6453 39.7304 29.6453 41.3914V53.5773C29.6453 55.2382 30.9917 56.5847 32.6527 56.5847H47.5644C49.2254 56.5847 50.5719 55.2382 50.5719 53.5773V41.3914C50.5719 39.7304 49.2254 38.384 47.5644 38.384Z" fill="#D8D8D8"/>
<path d="M34.3212 38.384H32.6527C30.9918 38.384 29.6453 39.7304 29.6453 41.3914V53.5773C29.6453 55.2382 30.9918 56.5847 32.6527 56.5847H33.6567C34.1821 56.5847 34.6048 56.1528 34.5935 55.6275L34.3212 42.9739V38.384Z" fill="#EDEDED"/>
<path d="M47.5644 42.8641H32.6527C30.9917 42.8641 29.6453 44.2105 29.6453 45.8715V57.7974C29.6453 59.4583 30.9917 60.8048 32.6527 60.8048H47.5644C49.2254 60.8048 50.5719 59.4583 50.5719 57.7974V45.8715C50.5719 44.2105 49.2254 42.8641 47.5644 42.8641Z" fill="#BFBFBF"/>
<path d="M39.7636 53.2514C41.9436 53.2514 43.7109 51.6644 43.7109 49.7067C43.7109 47.749 41.9436 46.162 39.7636 46.162C37.5836 46.162 35.8164 47.749 35.8164 49.7067C35.8164 51.6644 37.5836 53.2514 39.7636 53.2514Z" fill="#8A8A8A"/>
<path d="M38.8671 51.6043C39.2365 50.8655 40.2909 50.8655 40.6603 51.6043L42.4566 55.1967C42.7899 55.8632 42.3053 56.6475 41.56 56.6475H37.9674C37.2222 56.6475 36.7375 55.8632 37.0708 55.1967L38.8671 51.6043Z" fill="#8A8A8A"/>
<path d="M59.5054 16.3858L73.9761 12.8941V20.8588L59.5054 24.3506V16.3858Z" fill="#EDEDED"/>
<path d="M29.6472 42.359H21.2048V46.162H29.6472V42.359Z" fill="#EDEDED"/>
</g>
</g>
<defs>
<clipPath id="clip0_36_555">
<rect width="80" height="90" fill="white" transform="translate(0.719971 0.000976562)"/>
</clipPath>
<clipPath id="clip1_36_555">
<rect width="80" height="90" fill="white" transform="translate(0.719971 0.000976562)"/>
</clipPath>
</defs>
</svg>
