<svg width="41" height="28" viewBox="0 0 41 28" fill="none" xmlns="http://www.w3.org/2000/svg">
<g clip-path="url(#clip0_132_782)">
<path d="M6.00274 0.175781H34.958C36.689 0.175781 38.0923 1.57907 38.0923 3.31011V23.4594C38.0923 25.108 36.7558 26.4444 35.1072 26.4444H5.85348C4.20487 26.4444 2.86841 25.108 2.86841 23.4594V3.31011C2.86841 1.57907 4.27169 0.175781 6.00274 0.175781Z" fill="#AAC0D8"/>
<path d="M34.7969 1.9668H6.16373C5.33293 1.9668 4.65942 2.6403 4.65942 3.47111V23.7461C4.65942 24.5769 5.33293 25.2504 6.16373 25.2504H34.7969C35.6277 25.2504 36.3012 24.5769 36.3012 23.7461V3.47111C36.3012 2.6403 35.6277 1.9668 34.7969 1.9668Z" fill="#5C5B5B"/>
<path d="M33.1614 3.75781H7.80001C7.3846 3.75781 7.04785 4.09456 7.04785 4.50997V22.1101C7.04785 22.5255 7.3846 22.8623 7.80001 22.8623H33.1614C33.5768 22.8623 33.9135 22.5255 33.9135 22.1101V4.50997C33.9135 4.09456 33.5768 3.75781 33.1614 3.75781Z" fill="white"/>
<path d="M33.9135 22.1101C33.9135 22.5255 33.5768 22.8623 33.1614 22.8623H7.80001C7.3846 22.8623 7.04785 22.5255 7.04785 22.1101V4.50997C7.04785 4.09456 7.3846 3.75781 7.80001 3.75781" fill="#F1F5F9"/>
<path d="M0.731043 24.6534H40.2304C40.3686 24.6534 40.4807 24.7521 40.4807 24.8738V26.6183C40.4807 27.1818 39.9619 27.6385 39.3219 27.6385H1.63951C0.999525 27.6385 0.480713 27.1818 0.480713 26.6183V24.8738C0.480713 24.7521 0.592789 24.6534 0.731043 24.6534Z" fill="#AAC0D8"/>
<path d="M19.2861 10.6235H21.6742C22.1688 10.6235 22.5697 11.0245 22.5697 11.5191V18.6832C22.5697 19.1778 22.1688 19.5788 21.6742 19.5788H19.2861C18.7916 19.5788 18.3906 19.1778 18.3906 18.6832V11.5191C18.3906 11.0245 18.7916 10.6235 19.2861 10.6235Z" fill="#78C800"/>
<path d="M25.2566 7.0415H27.6447C28.1392 7.0415 28.5402 7.44244 28.5402 7.93703V18.6833C28.5402 19.1779 28.1392 19.5788 27.6447 19.5788H25.2566C24.762 19.5788 24.3611 19.1779 24.3611 18.6833V7.93703C24.3611 7.44244 24.762 7.0415 25.2566 7.0415Z" fill="#78C800"/>
<path d="M13.3164 14.2057H15.7045C16.1991 14.2057 16.6 14.6066 16.6 15.1012V18.6833C16.6 19.1779 16.1991 19.5788 15.7045 19.5788H13.3164C12.8218 19.5788 12.4209 19.1779 12.4209 18.6833V15.1012C12.4209 14.6066 12.8218 14.2057 13.3164 14.2057Z" fill="#78C800"/>
</g>
<defs>
<clipPath id="clip0_132_782">
<rect width="40" height="27.4627" fill="white" transform="translate(0.480713 0.175781)"/>
</clipPath>
</defs>
</svg>
