<svg width="27" height="26" viewBox="0 0 27 26" fill="none" xmlns="http://www.w3.org/2000/svg">
<path d="M11.8995 1.84261C12.2999 1.2393 13.1889 1.24838 13.577 1.85974L16.6724 6.73672C16.8009 6.93917 16.9979 7.0887 17.2274 7.15807L23.6532 9.10003C24.3431 9.30853 24.5925 10.1562 24.1256 10.7052L20.6309 14.8134C20.4771 14.9942 20.3926 15.2239 20.3926 15.4613V22.5461C20.3926 23.2675 19.6519 23.7516 18.9911 23.4619L13.1529 20.9025C12.897 20.7903 12.6058 20.7903 12.3499 20.9025L6.51172 23.4619C5.85095 23.7516 5.11021 23.2675 5.11021 22.5461V15.4613C5.11021 15.2239 5.02574 14.9942 4.87191 14.8134L1.37033 10.697C0.905163 10.1502 1.15068 9.30589 1.83655 9.09376L8.10219 7.15587C8.32245 7.08775 8.51239 6.94562 8.63989 6.75354L11.8995 1.84261Z" fill="white"/>
</svg>
