<svg width="109" height="249" viewBox="0 0 109 249" fill="none" xmlns="http://www.w3.org/2000/svg">
<path d="M19.0828 106.579C22.18 106.635 24.6455 109.191 24.5895 112.289C24.5413 114.956 24.2008 117.123 23.4963 120.149L23.1423 121.665C22.6676 123.723 22.5987 124.204 22.6032 124.957C22.6101 126.112 23.0604 127.146 24.6464 128.845L24.7899 128.997C27.1728 131.493 31.4426 134.588 38.1172 138.515C40.7873 140.085 41.6786 143.523 40.1079 146.193C38.5373 148.863 35.0995 149.755 32.4294 148.184C17.202 139.226 11.4334 133.045 11.3853 125.025C11.378 123.799 11.5063 122.594 11.754 121.256L11.7901 121.064C11.8836 120.576 11.9901 120.081 12.1245 119.496L12.2743 118.857C12.3812 118.404 12.513 117.85 12.5296 117.779L12.5991 117.481C13.1186 115.233 13.3427 113.777 13.3733 112.086C13.4287 109.02 15.9346 106.572 18.99 106.578L19.0828 106.579Z" fill="#F6DDD6"/>
<path d="M94.9938 84.2909C97.4812 82.4447 100.994 82.9645 102.841 85.452C107.218 91.3502 109.2 97.2498 108.616 102.695C108.044 108.037 105.023 112.451 100.458 115.031C96.2508 117.409 91.0608 118.039 86.0737 116.797C80.8281 115.491 76.125 112.218 72.735 107.315C70.9732 104.767 71.6106 101.273 74.1586 99.5116C76.7066 97.7499 80.2004 98.3872 81.9622 100.935C83.807 103.603 86.1983 105.267 88.7846 105.911C91.0399 106.473 93.2822 106.201 94.938 105.265C96.4178 104.429 97.2839 103.163 97.462 101.5C97.7144 99.1441 96.6664 95.9915 93.9183 92.2537L93.8327 92.1379C91.9865 89.6504 92.5063 86.1372 94.9938 84.2909Z" fill="#F6DDD6"/>
<path d="M5.37817 111.545L39.4787 88.9774L43.585 114.016L28.3458 128.946L5.37817 111.545Z" fill="#FF9386"/>
<path d="M27.6367 131.326L4.07251 112.415L8.42458 108.933L30.9008 126.756L27.6367 131.326Z" fill="#FF1903"/>
<path d="M93.3179 101.854L66.8353 98.4675L65.0295 116.681L84.6659 127.668L93.3179 101.854Z" fill="#FF9386"/>
<path d="M88.3008 129.77L97.6703 101.886L92.7518 101.254L83.675 127.797L88.3008 129.77Z" fill="#FF1903"/>
<path d="M22.0177 141.65L33.0558 109.608L38.2782 93.7224L48.0704 95.8984L66.349 93.7224L85.1962 138.071C85.1962 138.071 88.2076 144.094 85.835 146.102C83.4624 148.109 78.8998 148.109 78.8998 148.109L54.3809 158.786L29.3495 150.299C29.3495 150.299 24.0849 148.831 22.7793 146.981C21.4736 145.131 22.0177 141.65 22.0177 141.65Z" fill="#FF776A"/>
<path d="M32.7258 119.273H46.4138V129.311C46.4138 131.327 44.7796 132.961 42.7636 132.961H36.3759C34.36 132.961 32.7258 131.327 32.7258 129.311V119.273Z" fill="#FF9386"/>
<path d="M51.5346 114.031C59.2862 114.031 65.57 107.504 65.57 99.4516C65.57 91.3996 59.2862 84.8722 51.5346 84.8722C43.7831 84.8722 37.4993 91.3996 37.4993 99.4516C37.4993 107.504 43.7831 114.031 51.5346 114.031Z" fill="#FF1903"/>
<path d="M62.1759 159.685C64.1291 158.133 66.9617 158.439 68.5392 160.36L69.9354 162.115C73.2843 166.333 75.1968 168.94 77.0333 171.995C79.471 176.05 81.1603 180.068 82.0887 184.375C84.2657 194.474 82.0956 205.674 74.8617 219.001C73.6596 221.216 70.8898 222.037 68.6751 220.835C66.4604 219.633 65.6396 216.863 66.8417 214.648C73.099 203.12 74.8484 194.091 73.1683 186.298C72.4806 183.108 71.2141 180.064 69.3287 176.891L69.2125 176.697C67.7478 174.26 66.1561 172.059 63.4436 168.617L61.4419 166.095C59.8743 164.122 60.203 161.252 62.1759 159.685Z" fill="#F6DDD6"/>
<path d="M37.3243 162.345C37.6568 159.847 39.9513 158.092 42.4492 158.424C44.922 158.753 46.6671 161.005 46.3792 163.474L46.3698 163.549C44.8417 175.028 46.9152 220.32 49.4959 236.479L49.5743 236.96C49.988 239.445 48.3084 241.796 45.8227 242.21C43.337 242.623 40.9866 240.944 40.5729 238.458C39.3174 230.915 38.0589 215.622 37.3193 199.624L37.2734 198.617C36.5384 182.214 36.5007 168.531 37.3243 162.345Z" fill="#F6DDD6"/>
<path d="M71.1542 173.683L38.5322 171.393L30.7585 153.979L74.7366 153.93L71.1542 173.683Z" fill="#FF776A"/>
<path d="M50.9131 156.945L78.2314 157.136L89.1024 186.808L84.4843 213.131L61.0115 210.085L64.943 187.852L50.9131 156.945Z" fill="#FF776A"/>
<path d="M30.0076 159.309L54.3495 158.258L52.266 192.519L52.1282 225.306L30.2839 224.968L28.927 193.526L30.0076 159.309Z" fill="#FF776A"/>
<path d="M38.4748 168.835C41.1137 167.333 42.5494 161.386 42.9455 158.568L29.9996 159.127L29.6233 170.295C31.6117 170.514 35.836 170.337 38.4748 168.835Z" fill="#FF1903"/>
<path d="M71.1434 166.462C68.2474 165.215 65.6005 160.442 64.9382 157.702L77.8235 156.149L81.82 166.806C79.7564 167.196 74.7935 168.034 71.1434 166.462Z" fill="#FF1903"/>
<path d="M29.2493 150.208L78.8446 148.068L78.4897 157.947L29.986 160.041L29.2493 150.208Z" fill="#221512"/>
<path d="M39.9386 229.64C40.5438 227.525 39.1 225.904 38.3024 225.357C37.9394 225.915 37.575 228.678 36.7975 230.841L34.6467 233.692L31.3955 237.944L27.2336 240.154L29.5673 242.667C31.0305 241.443 39.3332 231.757 39.9386 229.64Z" fill="#3B3937"/>
<path d="M53.8033 243.409C53.8033 243.409 53.7314 238.87 52.6583 236.4C51.5854 233.931 50.312 227.498 50.312 227.498C50.312 227.498 48.6799 229.407 45.493 229.545C42.3059 229.682 38.8926 229.06 38.8926 229.06C38.8926 229.06 33.3109 237.134 31.8072 238.165C30.3037 239.198 22.8584 241.552 22.8584 241.552C21.2049 241.624 19.9224 243.022 19.9938 244.675L20.0595 246.197L38.2157 245.414L53.8033 243.409Z" fill="#1C1B19"/>
<mask id="mask0_49_2301" style="mask-type:luminance" maskUnits="userSpaceOnUse" x="19" y="227" width="35" height="20">
<path fill-rule="evenodd" clip-rule="evenodd" d="M53.8036 243.409C53.8036 243.409 53.7317 238.87 52.6585 236.4C51.5856 233.931 50.3122 227.498 50.3122 227.498C50.3122 227.498 48.6801 229.407 45.4932 229.545C42.3061 229.682 38.8929 229.06 38.8929 229.06C38.8929 229.06 33.3111 237.134 31.8074 238.165C30.304 239.198 23.692 241.364 22.8707 241.456C21.1688 241.644 19.7639 242.936 19.8645 244.646L19.9506 246.11L38.216 245.414L53.8036 243.409Z" fill="white"/>
</mask>
<g mask="url(#mask0_49_2301)">
<path d="M22.8708 251.95C25.9955 251.95 28.5285 249.417 28.5285 246.292C28.5285 243.168 25.9955 240.635 22.8708 240.635C19.7462 240.635 17.2131 243.168 17.2131 246.292C17.2131 249.417 19.7462 251.95 22.8708 251.95Z" fill="#D0CEC1"/>
</g>
<path d="M35.7836 231.056C35.8859 230.765 36.1974 230.606 36.4905 230.691L36.523 230.701L37.5056 231.046C37.8078 231.152 37.9668 231.483 37.8607 231.785C37.7584 232.077 37.447 232.235 37.1539 232.151L37.1214 232.14L36.1388 231.795C35.8365 231.689 35.6775 231.358 35.7836 231.056Z" fill="#ECECEC"/>
<path d="M34.6032 232.848C34.7055 232.557 35.017 232.399 35.3101 232.483L35.3426 232.493L36.325 232.838C36.6273 232.944 36.7862 233.275 36.6801 233.577C36.5778 233.869 36.2663 234.027 35.9732 233.943L35.9408 233.933L34.9583 233.588C34.6561 233.481 34.4971 233.15 34.6032 232.848Z" fill="#ECECEC"/>
<path d="M33.3258 234.647C33.4276 234.355 33.7388 234.196 34.0321 234.28L34.0646 234.29L35.047 234.634C35.3494 234.739 35.509 235.07 35.4033 235.372C35.3015 235.664 34.9903 235.823 34.6971 235.739L34.6646 235.729L33.6821 235.386C33.3797 235.28 33.2202 234.949 33.3258 234.647Z" fill="#ECECEC"/>
<path d="M31.6628 236.458C31.7651 236.167 32.0765 236.009 32.3697 236.093L32.4021 236.103L33.3847 236.448C33.687 236.554 33.846 236.885 33.7399 237.187C33.6376 237.479 33.3261 237.637 33.033 237.553L33.0005 237.543L32.0179 237.198C31.7157 237.091 31.5567 236.76 31.6628 236.458Z" fill="#ECECEC"/>
<path d="M30.1843 238.07C30.2866 237.778 30.598 237.62 30.8911 237.704L30.9236 237.715L31.9062 238.059C32.2085 238.166 32.3675 238.497 32.2614 238.799C32.1591 239.09 31.8476 239.249 31.5545 239.164L31.522 239.154L30.5394 238.809C30.2372 238.703 30.0782 238.372 30.1843 238.07Z" fill="#ECECEC"/>
<path d="M53.9794 243.356L36.9188 244.865L19.8882 244.827L19.7161 247.06C19.6639 247.738 20.2034 248.316 20.8833 248.309L36.7061 248.165L45.531 247.88L54.3391 247.21L53.9794 243.356Z" fill="#D0CEC1"/>
<path d="M54.1415 245.186L54.2024 245.957L48.8255 246.393L46.9769 246.537C44.6462 246.716 42.8935 246.833 41.7469 246.883L41.4631 246.894C39.0187 246.985 33.9223 247.015 31.8169 246.935L31.6528 246.928L31.687 246.156L31.9352 246.166C34.0977 246.242 39.1771 246.209 41.5291 246.118L41.8529 246.104C42.8718 246.057 44.3413 245.96 46.2398 245.817L47.9725 245.684L54.1415 245.186Z" fill="#1C1B19"/>
<path d="M32.2236 248.165L32.1486 246.425L32.1194 245.75L19.8293 245.699L19.7227 247.274C19.6846 247.838 20.1348 248.314 20.6991 248.307L32.2236 248.165Z" fill="#ECEADF"/>
<path d="M46.8466 239.503C44.9265 239.586 43.3027 238.096 43.2198 236.176C43.137 234.256 44.6264 232.632 46.5465 232.549C48.4666 232.467 50.0904 233.956 50.1732 235.876C50.2561 237.796 48.7667 239.42 46.8466 239.503Z" fill="#DCE0E4"/>
<path d="M46.5944 233.467C46.5088 233.332 46.3051 233.352 46.2495 233.504L45.7315 234.904C45.7094 234.964 45.6594 235.009 45.5977 235.024L44.1503 235.391C43.995 235.431 43.9523 235.632 44.078 235.73L45.2501 236.656C45.2999 236.696 45.3273 236.758 45.3231 236.82L45.2252 238.311C45.2147 238.47 45.392 238.574 45.5253 238.484L46.7676 237.656C46.8205 237.621 46.8875 237.614 46.9466 237.638L48.3335 238.191C48.4822 238.249 48.6346 238.112 48.5912 237.959L48.1871 236.521C48.1698 236.46 48.1838 236.395 48.2245 236.345L49.1796 235.197C49.2822 235.073 49.1989 234.887 49.0387 234.88L47.5467 234.82C47.483 234.818 47.4248 234.785 47.3908 234.73L46.5944 233.467Z" fill="#5B568E"/>
<path d="M73.0726 220.838C73.8033 218.765 75.9029 218.259 76.8614 218.266C76.8333 218.927 75.5349 221.393 74.9166 223.601L75.0102 227.153L75.1843 232.473L77.2695 236.643L73.9384 237.371C73.463 235.541 72.3418 222.911 73.0726 220.838Z" fill="#3B3937"/>
<path d="M53.947 224.218C53.947 224.218 56.6209 220.548 58.9099 219.139C61.1989 217.732 65.9334 213.197 65.9334 213.197C65.9334 213.197 66.151 215.684 68.6444 217.606C71.1376 219.528 74.2511 220.957 74.2511 220.957C74.2511 220.957 74.105 230.724 74.7236 232.422C75.3423 234.119 79.9964 240.269 79.9964 240.269C81.2895 241.266 81.5298 243.124 80.533 244.416L79.5785 245.655L65.3742 234.707L53.947 224.218Z" fill="#1C1B19"/>
<mask id="mask1_49_2301" style="mask-type:luminance" maskUnits="userSpaceOnUse" x="53" y="213" width="29" height="33">
<path fill-rule="evenodd" clip-rule="evenodd" d="M53.947 224.218C53.947 224.218 56.6209 220.548 58.9099 219.139C61.1991 217.73 65.9336 213.197 65.9336 213.197C65.9336 213.197 66.1512 215.682 68.6444 217.606C71.1378 219.528 74.2511 220.957 74.2511 220.957C74.2511 220.957 74.105 230.724 74.7238 232.422C75.3425 234.119 79.4317 239.642 80.0422 240.184C81.3063 241.304 81.7078 243.144 80.656 244.465L79.7176 245.644L65.3742 234.707L53.947 224.218Z" fill="white"/>
</mask>
<g mask="url(#mask1_49_2301)">
<path d="M73.9967 248.762C71.4758 246.986 70.8911 243.475 72.6906 240.921C74.4901 238.367 77.9925 237.736 80.5134 239.512C83.0343 241.288 83.6191 244.798 81.8195 247.352C80.02 249.907 76.5176 250.538 73.9967 248.762Z" fill="#D0CEC1"/>
</g>
<path d="M73.5084 223.766C73.5917 223.468 73.893 223.29 74.1913 223.356L74.2232 223.364L75.2148 223.641C75.5232 223.728 75.7034 224.048 75.6171 224.356C75.5337 224.654 75.2325 224.832 74.9342 224.766L74.9022 224.758L73.9107 224.481C73.6022 224.395 73.4221 224.075 73.5084 223.766Z" fill="#ECECEC"/>
<path d="M73.4286 225.901C73.5119 225.604 73.8131 225.425 74.1114 225.491L74.1434 225.499L75.1349 225.777C75.4434 225.863 75.6235 226.183 75.5372 226.491C75.4539 226.789 75.1527 226.967 74.8544 226.902L74.8224 226.894L73.8309 226.616C73.5224 226.53 73.3423 226.21 73.4286 225.901Z" fill="#ECECEC"/>
<path d="M73.4239 228.096C73.5067 227.798 73.8076 227.619 74.1061 227.685L74.138 227.693L75.1296 227.968C75.4382 228.054 75.6189 228.374 75.5331 228.682C75.4503 228.98 75.1494 229.159 74.8509 229.094L74.819 229.086L73.8274 228.81C73.5188 228.724 73.3381 228.405 73.4239 228.096Z" fill="#ECECEC"/>
<path d="M73.7215 230.523C73.8043 230.225 74.1053 230.047 74.4037 230.112L74.4356 230.12L75.4272 230.396C75.7358 230.481 75.9165 230.801 75.8307 231.11C75.7479 231.408 75.447 231.586 75.1485 231.521L75.1166 231.513L74.125 231.238C73.8164 231.152 73.6357 230.832 73.7215 230.523Z" fill="#ECECEC"/>
<path d="M73.9864 232.678C74.0698 232.38 74.371 232.202 74.6693 232.268L74.7012 232.276L75.6928 232.553C76.0013 232.639 76.1814 232.959 76.0951 233.268C76.0118 233.566 75.7105 233.744 75.4122 233.678L75.3803 233.67L74.3887 233.393C74.0802 233.306 73.9001 232.986 73.9864 232.678Z" fill="#ECECEC"/>
<path d="M53.8366 224.074L66.7377 234.993L80.5072 244.631L79.3575 246.557C79.0094 247.141 78.2376 247.301 77.6861 246.905L65.0085 237.811L58.0488 232.568L51.325 227.019L53.8366 224.074Z" fill="#D0CEC1"/>
<path d="M52.157 226.074L52.6508 225.479L57.5505 229.559L58.7298 230.533C60.1495 231.701 61.2577 232.596 62.0408 233.204L62.2965 233.401C64.1612 234.826 68.3265 237.795 70.0795 238.932L70.2163 239.02L69.7998 239.672L69.5882 239.535C67.7762 238.353 63.681 235.432 61.8257 234.014L61.5106 233.771C60.686 233.13 59.5236 232.189 58.0348 230.962L52.157 226.074Z" fill="#1C1B19"/>
<path d="M68.627 240.355L69.6891 238.977L70.1023 238.443L80.0518 245.38L79.2293 246.728C78.9358 247.21 78.2946 247.338 77.8378 247.009L68.627 240.355Z" fill="#ECEADF"/>
<path d="M61.8142 224.974C63.3164 226.132 65.4854 225.837 66.6587 224.314C67.832 222.792 67.5654 220.619 66.0632 219.462C64.561 218.304 62.3921 218.599 61.2188 220.121C60.0454 221.643 60.312 223.816 61.8142 224.974Z" fill="#DCE0E4"/>
<path d="M65.4896 220.188C65.638 220.126 65.7933 220.261 65.7513 220.416L65.3642 221.849C65.3475 221.911 65.3622 221.977 65.4039 222.026L66.3587 223.145C66.4622 223.267 66.3828 223.455 66.2238 223.464L64.7426 223.556C64.6799 223.559 64.6227 223.594 64.5899 223.647L63.8108 224.921C63.7268 225.058 63.5226 225.037 63.4655 224.888L62.9429 223.512C62.9201 223.451 62.8688 223.408 62.8061 223.393L61.3754 223.059C61.2192 223.023 61.1726 222.824 61.2969 222.721L62.4509 221.776C62.4996 221.736 62.5259 221.676 62.5214 221.612L62.4117 220.13C62.3998 219.971 62.5746 219.867 62.7088 219.953L63.9454 220.75C63.9991 220.785 64.0664 220.791 64.1252 220.765L65.4896 220.188Z" fill="#5B568E"/>
<path d="M28.9089 223.11L53.1873 222.063L52.9765 230.022L30.6347 230.985L28.9089 223.11Z" fill="#6E86B7"/>
<path d="M60.2049 206.597L86.8097 211.766L83.664 219.247L59.0527 214.465L60.2049 206.597Z" fill="#6E86B7"/>
<mask id="mask2_49_2301" style="mask-type:luminance" maskUnits="userSpaceOnUse" x="47" y="147" width="13" height="14">
<rect x="47.8003" y="148.311" width="10.7678" height="12.2279" rx="1.5" transform="rotate(-2.47128 47.8003 148.311)" fill="white"/>
</mask>
<g mask="url(#mask2_49_2301)">
<path fill-rule="evenodd" clip-rule="evenodd" d="M48.7842 145.711L57.354 145.341C59.368 145.254 61.0711 146.817 61.1581 148.831L61.5909 158.859C61.6778 160.873 60.1156 162.576 58.1016 162.663L49.5318 163.033C47.5177 163.12 45.8146 161.558 45.7277 159.544L45.2948 149.515C45.2079 147.501 46.7701 145.798 48.7842 145.711ZM56.4225 157.62L56.1156 150.509L50.4632 150.753L50.7701 157.864L56.4225 157.62Z" fill="black"/>
</g>
<path d="M37.2364 148.307C38.219 148.179 39.1203 148.859 39.2737 149.831L39.2809 149.882L40.5585 159.737C40.688 160.737 39.9828 161.652 38.9832 161.782C38.0005 161.909 37.0993 161.23 36.9459 160.257L36.9386 160.207L35.6611 150.351C35.5315 149.352 36.2368 148.436 37.2364 148.307Z" fill="#001744"/>
<path d="M68.1673 148.528C68.3389 147.535 69.2832 146.869 70.2765 147.041C71.2529 147.209 71.9131 148.125 71.7721 149.099L71.7641 149.15L70.0696 158.957C69.898 159.951 68.9537 160.617 67.9604 160.445C66.984 160.276 66.3238 159.361 66.4647 158.386L66.4727 158.336L68.1673 148.528Z" fill="#001744"/>
<rect x="43.021" y="84.4095" width="17.0169" height="25.5398" rx="8.50846" fill="#E6CBC3"/>
<path d="M24.8782 49.576C24.8782 36.2934 37.3798 31.6654 52.8015 31.6654C68.2233 31.6654 80.7249 36.2934 80.7249 49.576V73.4968C78.473 89.0129 66.9269 97.7399 52.8015 97.5469C38.6762 97.3536 26.5295 87.2026 24.8782 73.4968V49.576Z" fill="#F6DDD6"/>
<path d="M52.6531 64.2258C42.8589 64.1911 30.1854 64.6286 25.0728 66.281C23.9685 60.0822 27.6407 48.2308 33.5363 40.9515C39.4322 33.6723 48.7117 34.911 52.8133 36.7755C55.5613 35.2044 63.1271 33.8997 71.4068 41.2485C79.6866 48.5973 80.9484 61.2655 80.5443 66.281C75.3281 64.924 62.4474 64.2603 52.6531 64.2258Z" fill="black"/>
<path fill-rule="evenodd" clip-rule="evenodd" d="M85.5527 65.429C88.2277 68.4295 91.0755 72.0632 94.1391 76.4622C96.7248 80.175 98.8532 83.8573 100.559 87.4784C98.185 93.3819 92.4054 97.5496 85.6525 97.5496C76.7826 97.5496 69.592 90.359 69.592 81.4891C69.592 72.6525 76.7287 65.4826 85.5527 65.429Z" fill="#FF0000" fill-opacity="0.03"/>
<path fill-rule="evenodd" clip-rule="evenodd" d="M9.20825 95.8328C9.43856 91.8195 9.99427 87.2364 10.9385 81.9596C11.7355 77.506 12.8341 73.3972 14.1885 69.6305C20.0418 67.1347 27.0754 68.2744 31.8504 73.0495C38.1224 79.3215 38.1224 89.4904 31.8504 95.7624C25.602 102.011 15.4858 102.034 9.20825 95.8328Z" fill="#FF0000" fill-opacity="0.03"/>
<path d="M64.7556 77.8394C67.8299 77.8394 70.3221 75.3472 70.3221 72.273C70.3221 69.1987 67.8299 66.7065 64.7556 66.7065C61.6814 66.7065 59.1892 69.1987 59.1892 72.273C59.1892 75.3472 61.6814 77.8394 64.7556 77.8394Z" fill="white"/>
<path d="M62.6567 74.3717C63.8158 74.3717 64.7555 73.432 64.7555 72.2729C64.7555 71.1137 63.8158 70.1741 62.6567 70.1741C61.4975 70.1741 60.5579 71.1137 60.5579 72.2729C60.5579 73.432 61.4975 74.3717 62.6567 74.3717Z" fill="black"/>
<path d="M40.8474 77.8394C43.9217 77.8394 46.4139 75.3472 46.4139 72.273C46.4139 69.1987 43.9217 66.7065 40.8474 66.7065C37.7732 66.7065 35.281 69.1987 35.281 72.273C35.281 75.3472 37.7732 77.8394 40.8474 77.8394Z" fill="white"/>
<path d="M42.946 74.3717C44.1051 74.3717 45.0448 73.432 45.0448 72.2729C45.0448 71.1137 44.1051 70.1741 42.946 70.1741C41.7868 70.1741 40.8472 71.1137 40.8472 72.2729C40.8472 73.432 41.7868 74.3717 42.946 74.3717Z" fill="black"/>
<path d="M52.4399 71.2584L55.6011 71.5875L55.5878 71.7268C55.5522 72.1373 55.5441 72.5997 55.5471 73.5484L55.5492 74.3994C55.5491 74.4809 55.5487 74.5583 55.5482 74.6408L55.5458 74.8826C55.5212 76.7491 55.357 77.9697 54.8485 79.0232C54.0248 80.7296 52.3973 81.4531 50.3111 80.9709L50.2346 80.9527L50.988 77.865L51.0894 77.8891C51.7053 78.0304 51.831 77.9631 51.9862 77.6416C52.2333 77.1296 52.3492 76.2442 52.368 74.8173L52.3709 74.4291L52.3683 73.1373C52.3689 72.3209 52.3825 71.8669 52.4267 71.3927L52.4399 71.2584Z" fill="#E1BFB4"/>
<path d="M47.2182 84.7087C47.3994 85.047 47.944 85.5257 48.7457 85.9162C49.8672 86.4625 51.3441 86.7822 53.1665 86.7822C54.9763 86.7822 56.3509 86.4676 57.3048 85.9386C57.6657 85.7384 57.9465 85.5168 58.1457 85.2924C58.2798 85.1413 58.363 85.0044 58.3958 84.9113L58.403 84.889L60.1579 85.3902C59.9368 86.1642 59.2346 86.9552 58.19 87.5346C56.9482 88.2233 55.2704 88.6072 53.1665 88.6072C49.3404 88.6072 46.5628 87.2728 45.6369 85.6207L45.6094 85.5705L47.2182 84.7087Z" fill="#FE9287"/>
<path fill-rule="evenodd" clip-rule="evenodd" d="M48.7564 12.6073C38.0387 12.2764 27.234 11.9427 10.6427 35.7637C-0.124956 51.2232 -3.86788 77.0162 4.80245 90.1156C11.71 100.552 23.6927 106.949 52.5218 106.949C79.356 106.949 91.0364 105.398 100.435 91.8922C109.834 78.3868 110.444 57.6033 95.234 35.7637C78.4196 11.6199 68.1051 12.0715 57.184 12.5497C55.6485 12.617 54.1011 12.6847 52.5218 12.6847C51.2618 12.6847 50.0097 12.6461 48.7564 12.6073ZM52.8014 95.9074C66.5096 95.9074 77.6222 84.7948 77.6222 71.0866C77.6222 57.3784 66.5096 46.2659 52.8014 46.2659C39.0933 46.2659 27.9807 57.3784 27.9807 71.0866C27.9807 84.7948 39.0933 95.9074 52.8014 95.9074Z" fill="#FFEDD3"/>
<rect x="31.9958" y="6.22278" width="11.5315" height="17.9379" rx="5.76577" transform="rotate(-30 31.9958 6.22278)" fill="#FFEDD3"/>
<rect x="46.8301" y="2.18091" width="11.4979" height="17.8856" rx="5.74893" fill="#FFEDD3"/>
<rect x="63.6008" y="0.456909" width="11.5315" height="17.9379" rx="5.76577" transform="rotate(30 63.6008 0.456909)" fill="#FFEDD3"/>
<path d="M40.391 36.4106C44.7251 36.4106 48.2387 32.897 48.2387 28.5628C48.2387 24.2286 44.7251 20.7151 40.391 20.7151C36.0568 20.7151 32.5432 24.2286 32.5432 28.5628C32.5432 32.897 36.0568 36.4106 40.391 36.4106Z" fill="white"/>
<path fill-rule="evenodd" clip-rule="evenodd" d="M43.4023 35.8119C46.2421 34.6309 48.2387 31.83 48.2387 28.5628C48.2387 25.2954 46.2421 22.4945 43.4023 21.3135C40.5625 22.4945 38.5659 25.2954 38.5659 28.5628C38.5659 31.83 40.5625 34.6309 43.4023 35.8119Z" fill="black"/>
<path d="M62.6568 36.4106C66.991 36.4106 70.5046 32.897 70.5046 28.5628C70.5046 24.2286 66.991 20.7151 62.6568 20.7151C58.3226 20.7151 54.8091 24.2286 54.8091 28.5628C54.8091 32.897 58.3226 36.4106 62.6568 36.4106Z" fill="white"/>
<path fill-rule="evenodd" clip-rule="evenodd" d="M65.6682 35.8119C68.508 34.6309 70.5046 31.83 70.5046 28.5628C70.5046 25.2954 68.508 22.4945 65.6682 21.3135C62.8284 22.4945 60.8318 25.2954 60.8318 28.5628C60.8318 31.83 62.8284 34.6309 65.6682 35.8119Z" fill="black"/>
<path d="M49.6761 34.0715C49.9605 34.0513 50.2283 34.0758 50.573 34.1379L50.7835 34.178C51.0307 34.2266 51.1918 34.4665 51.1431 34.7137C51.0945 34.961 50.8547 35.122 50.6074 35.0734L50.49 35.0505C50.1734 34.9902 49.952 34.9667 49.7408 34.9817C49.2114 35.0194 48.8874 35.3074 48.7315 36.0993C48.6118 36.708 48.932 37.14 49.4362 37.3472L49.4632 37.3578L49.4933 37.36C49.7073 37.3778 49.9244 37.4215 50.1394 37.4898L50.189 37.506C50.6922 37.675 50.55 38.4219 50.0198 38.3942C49.8115 38.3833 49.588 38.3435 49.3673 38.2765L49.3321 38.2652L49.2939 38.2648C48.7294 38.2643 48.2641 38.5748 48.1082 39.2709L48.0973 39.3225C47.9076 40.2871 48.5249 40.7758 49.4021 40.7952C49.654 40.8008 49.8537 41.0095 49.8481 41.2615C49.8426 41.5134 49.6338 41.7131 49.3819 41.7075C48.0109 41.6772 46.8803 40.7822 47.2019 39.1464C47.3494 38.3971 47.7227 37.8979 48.2086 37.6201L48.2477 37.5982L48.2181 37.5645C47.8666 37.153 47.7165 36.617 47.8245 35.9865L47.8361 35.9232C48.0713 34.7281 48.7349 34.1385 49.6761 34.0715Z" fill="black"/>
<path fill-rule="evenodd" clip-rule="evenodd" d="M19.1401 24.8927C16.4755 27.8582 13.6544 31.4395 10.6425 35.7638C7.76913 39.8892 5.39599 44.7504 3.62549 49.91C6.52324 54.1036 11.3646 56.8513 16.8477 56.8513C25.7177 56.8513 32.9082 49.6607 32.9082 40.7908C32.9082 32.6992 26.9242 26.0051 19.1401 24.8927Z" fill="#FF0000" fill-opacity="0.5"/>
<path fill-rule="evenodd" clip-rule="evenodd" d="M86.6477 24.7306C89.3227 27.7312 92.1705 31.3649 95.234 35.7638C97.8198 39.4765 99.9481 43.1589 101.654 46.78C99.28 52.6835 93.5004 56.8512 86.7475 56.8512C77.8776 56.8512 70.687 49.6607 70.687 40.7907C70.687 31.9542 77.8237 24.7842 86.6477 24.7306Z" fill="#FF0000" fill-opacity="0.5"/>
</svg>
